<svg width="102" height="102" viewBox="0 0 102 102" fill="none" xmlns="http://www.w3.org/2000/svg">
<g opacity="0.8">
<path d="M51 101C78.6142 101 101 78.6142 101 51C101 23.3858 78.6142 1 51 1C23.3858 1 1 23.3858 1 51C1 78.6142 23.3858 101 51 101Z" fill="white" fill-opacity="0.2" stroke="#095540" stroke-miterlimit="10"/>
<path d="M40.9145 69.6017H50.2544V31.0153L38.296 34.38L45.0957 45.5075L45.1028 45.5218L45.11 45.536L45.1171 45.5503L45.1242 45.5645L45.1314 45.5788L45.1385 45.5931V45.6002L45.1456 45.6144V45.6216L45.1528 45.6358V45.643L45.1599 45.6572V45.6643L45.1671 45.6786V45.6857L45.1742 45.7V45.7071L45.1813 45.7142V45.7214L45.1885 45.7285V45.7356L45.1956 45.7499V45.757L45.2027 45.7713V45.7784L45.2099 45.7927V45.7998L45.217 45.814V45.8212L45.2241 45.8354V45.8426V45.8568V45.8639L45.2313 45.8782L45.2384 45.9138V45.9352V45.9495V45.9566V45.9709V45.978V45.9851C45.2313 48.3518 44.268 50.4974 42.7126 52.0443L42.6698 52.0871C41.1143 53.6268 38.9667 54.5678 36.6192 54.5678C34.2432 54.5678 32.0884 53.6055 30.5258 52.0443C28.9632 50.4832 28 48.3304 28 45.9566C28 45.8069 28.0428 45.6715 28.1213 45.5574L28.1284 45.5432L28.1356 45.536L34.9139 34.4513C34.2361 34.3871 33.6153 34.0806 33.1587 33.6244H33.1515C32.6307 33.104 32.3096 32.3911 32.3096 31.5927H33.7438C33.7438 31.9848 33.9079 32.3412 34.1647 32.605C34.4287 32.8616 34.7855 33.0256 35.1779 33.0256H35.7773L36.0056 32.6549C36.0627 32.5622 36.1412 32.4767 36.241 32.4196C36.5764 32.2129 37.0259 32.3199 37.2257 32.6549L37.454 33.0256H37.982L50.2687 29.5683V28H51.7099V29.5683L63.9966 33.0256H64.5174L64.7458 32.6549C64.8029 32.5622 64.8813 32.4767 64.9812 32.4196C65.3166 32.2129 65.759 32.3199 65.9659 32.6549L66.1942 33.0256H66.8007C67.1931 33.0256 67.557 32.8616 67.8139 32.605V32.5979C68.0779 32.3341 68.2348 31.9777 68.2348 31.5856H69.6761C69.6761 32.384 69.355 33.0969 68.8342 33.6172C68.3704 34.0806 67.7568 34.3871 67.0718 34.4513L73.8573 45.5503L73.8644 45.5645L73.8716 45.5788L73.8787 45.5931L73.8858 45.6073L73.893 45.6216L73.9001 45.6358V45.643L73.9072 45.6572V45.6643L73.9144 45.6786V45.6857L73.9215 45.7V45.7071L73.9286 45.7214V45.7285L73.9358 45.7428V45.7499L73.9429 45.757V45.7641L73.9501 45.7713V45.7784L73.9572 45.7927V45.7998L73.9643 45.814V45.8212L73.9715 45.8354V45.8426L73.9786 45.8568V45.8639L73.9857 45.8782V45.8853V45.8996V45.9067L73.9929 45.921L74 45.9566V45.978V45.9923V45.9994V46.0136V46.0208V46.0279C73.9929 48.3945 73.0296 50.5402 71.4742 52.0871L71.4314 52.1299C69.8759 53.6696 67.7282 54.6106 65.3808 54.6106C63.0048 54.6106 60.85 53.6482 59.2874 52.0871C57.7248 50.526 56.7616 48.3732 56.7616 45.9994C56.7616 45.8497 56.8044 45.7142 56.8829 45.6002L56.89 45.5859L56.8972 45.5788L63.6969 34.4655L51.7385 31.1009V69.6873H61.0783C61.6705 69.6873 62.2128 69.9296 62.6052 70.3217C62.9977 70.7138 63.2403 71.2484 63.2403 71.8472V73.28V74H62.5196H39.5232H38.8025V73.28V71.8472C38.8025 71.2555 39.0451 70.7138 39.4376 70.3217C39.83 69.9296 40.3651 69.6873 40.9573 69.6873L40.9288 69.6588L40.9145 69.6017ZM71.9665 45.1939L65.3808 34.4227H65.3023L58.7095 45.1939H71.9594H71.9665ZM70.4182 50.9893C71.5598 49.8488 72.3161 48.3233 72.4874 46.6338H58.1886C58.3527 48.3304 59.1162 49.8559 60.2578 50.9893L60.2649 50.9964C61.5635 52.2938 63.3616 53.0922 65.3451 53.0922C67.3073 53.0922 69.0982 52.3009 70.3896 51.025L70.4253 50.9893H70.4182ZM43.2263 45.1939L36.6335 34.4227H36.555L29.9622 45.1939H43.212H43.2192H43.2263ZM41.678 50.9893C42.8196 49.8488 43.5759 48.3233 43.7472 46.6338H29.4484C29.6125 48.3304 30.376 49.8559 31.5176 50.9893L31.5247 50.9964C32.8233 52.2938 34.6214 53.0922 36.6049 53.0922C38.5671 53.0922 40.358 52.3009 41.6494 51.025L41.6851 50.9893H41.678ZM61.0284 71.0417H40.9074C40.7148 71.0417 40.5292 71.1201 40.4008 71.2484C40.2724 71.3767 40.1939 71.5549 40.1939 71.7545V72.4745H61.749V71.7545C61.749 71.5621 61.6705 71.3767 61.5421 71.2484C61.4137 71.1201 61.2353 71.0417 61.0355 71.0417H61.0284Z" fill="#095540"/>
</g>
</svg>
