<svg width="102" height="102" viewBox="0 0 102 102" fill="none" xmlns="http://www.w3.org/2000/svg">
<g opacity="0.8">
<path d="M51 101C78.6142 101 101 78.6142 101 51C101 23.3858 78.6142 1 51 1C23.3858 1 1 23.3858 1 51C1 78.6142 23.3858 101 51 101Z" fill="white" fill-opacity="0.2" stroke="#095540" stroke-miterlimit="10"/>
<path d="M58.1452 51.7016H43.8486V51.9619C43.8486 52.6603 43.5633 53.3016 43.1167 53.7587L43.1105 53.7651C42.6577 54.2286 42.0375 54.5143 41.3552 54.5143H39.7364C39.0541 54.5143 38.4277 54.2222 37.9811 53.7651L37.9749 53.7587C37.5221 53.2952 37.243 52.6603 37.243 51.9619V51.7016H33.1184V67.1873C33.1184 67.5746 33.2735 67.9238 33.5216 68.1778C33.7697 68.4317 34.117 68.5905 34.4891 68.5905H67.4922C67.8706 68.5905 68.2117 68.4317 68.4598 68.1778C68.7079 67.9238 68.863 67.5683 68.863 67.1873V51.7016H64.7384V51.9619C64.7384 52.6603 64.4593 53.3016 64.0065 53.7587L64.0003 53.7651C63.5475 54.2286 62.9273 54.5143 62.245 54.5143H60.6262C59.9439 54.5143 59.3175 54.2222 58.8709 53.7651L58.8647 53.7587C58.4119 53.2952 58.1328 52.6603 58.1328 51.9619V51.7016H58.1266H58.1452ZM40.6792 39.0349V34.8825C40.6792 34.0889 40.9955 33.3651 41.5041 32.8444C42.0127 32.3238 42.7136 32 43.4951 32H58.4925C59.2678 32 59.9749 32.3238 60.4835 32.8444V32.8508C60.9921 33.3714 61.3084 34.0889 61.3084 34.8825V39.0349H72.3115H73V39.7397V47.6127C73 48.7365 72.5472 49.7651 71.8278 50.5016C71.3874 50.9524 70.854 51.2952 70.2523 51.4984V67.1873C70.2523 67.9619 69.9422 68.6667 69.446 69.1746C68.9498 69.6825 68.2614 70 67.5047 70H34.4954C33.7387 70 33.0502 69.6825 32.554 69.1746C32.0578 68.6667 31.7477 67.9619 31.7477 67.1873V51.4984C31.146 51.2952 30.6064 50.946 30.1723 50.5016C29.4466 49.7587 29 48.7365 29 47.6127V39.7397V39.0349H29.6885H40.6916H40.6854H40.6792ZM59.9315 39.0349V34.8825C59.9315 34.4762 59.7702 34.1079 59.5097 33.8413C59.2492 33.5746 58.8895 33.4095 58.4925 33.4095H43.4951C43.0981 33.4095 42.7384 33.5746 42.4779 33.8413C42.2174 34.1079 42.0561 34.4762 42.0561 34.8825V39.0349H59.9315H59.9377H59.9315ZM64.7446 50.2984H68.9994H69.0305C69.7375 50.2921 70.3764 49.9873 70.8478 49.5111C71.3191 49.0286 71.6169 48.3492 71.6169 47.6127V40.4444H30.3583V47.6127C30.3583 48.3492 30.656 49.0222 31.1274 49.5111C31.5988 49.9937 32.2377 50.2921 32.9448 50.2984H32.9758H37.2306V48.8889V48.1841H37.9191H43.1415H43.83V48.8889V50.2984H58.1266V48.8889V48.1841H58.8151H64.0375H64.726V48.8889V50.2984H64.7322H64.7446ZM63.3676 49.5936H59.5159V51.9746C59.5159 52.2857 59.64 52.5778 59.8385 52.781L59.8447 52.7873C60.0431 52.9905 60.3284 53.1175 60.6324 53.1175H62.2512C62.5551 53.1175 62.8404 52.9905 63.0389 52.7873L63.0451 52.781C63.2436 52.5778 63.3676 52.2857 63.3676 51.9746V49.5936ZM42.4717 49.5936H38.62V51.9746C38.62 52.2857 38.744 52.5778 38.9425 52.781L38.9487 52.7873C39.1472 52.9905 39.4325 53.1175 39.7364 53.1175H41.3552C41.6592 53.1175 41.9445 52.9905 42.1429 52.7873L42.1491 52.781C42.3476 52.5778 42.4717 52.2857 42.4717 51.9746V49.5936Z" fill="#095540"/>
</g>
</svg>
