<svg width="102" height="102" viewBox="0 0 102 102" fill="none" xmlns="http://www.w3.org/2000/svg">
<g opacity="0.8">
<path d="M51 101C78.6142 101 101 78.6142 101 51C101 23.3858 78.6142 1 51 1C23.3858 1 1 23.3858 1 51C1 78.6142 23.3858 101 51 101Z" fill="white" fill-opacity="0.2" stroke="#095540" stroke-miterlimit="10"/>
<path d="M61.1212 47.6022H51.0894V37.8981C51.0894 37.86 51.0818 37.8219 51.0588 37.7991C51.0359 37.7686 51.0053 37.7458 50.967 37.7381C50.9287 37.7305 50.8905 37.7305 50.8599 37.7381C50.8293 37.7534 50.7987 37.7762 50.7833 37.8067L40.8281 54.3281H49.5973V64.2608C49.5973 64.2989 49.6049 64.3369 49.6279 64.3598C49.6509 64.3903 49.6815 64.4131 49.7121 64.4207C49.7503 64.4283 49.7886 64.4283 49.8192 64.4207C49.8498 64.4131 49.8804 64.3903 49.9034 64.3598L61.1212 47.6099V47.6022ZM49.5973 44.7078V49.0876H58.3205L51.0894 59.881V52.8352H43.4681L49.5973 42.674V44.7078Z" fill="#095540"/>
<path d="M33.5803 64.0026C33.5803 63.5227 33.9705 63.1343 34.4526 63.1343C34.9347 63.1343 35.3249 63.5227 35.3249 64.0026V70.9418V71.1093V71.1246V71.1474V71.8101H34.9959C34.6898 72.0538 34.2307 72.0691 33.917 71.8101H27.4893C27.0072 71.8101 26.617 71.4216 26.617 70.9418C26.617 70.4619 27.0072 70.0734 27.4893 70.0734H31.981C29.7772 67.8949 27.9408 65.328 26.594 62.4944C24.9335 59.0058 24 55.1059 24 51.0003C24 46.8947 24.9335 42.9947 26.594 39.5061C28.3157 35.888 30.8332 32.7041 33.9093 30.198C34.2766 29.8934 34.8352 29.9467 35.1336 30.3199C35.4397 30.6855 35.3861 31.2416 35.0112 31.5386C32.1264 33.8847 29.7772 36.863 28.1703 40.245C26.617 43.4974 25.7523 47.146 25.7523 51.0003C25.7523 54.8469 26.6246 58.4955 28.1703 61.7556C29.5094 64.5663 31.3536 67.0875 33.5956 69.2051V64.0026H33.5803ZM68.4197 37.8075C68.4197 38.2874 68.0295 38.6758 67.5474 38.6758C67.0653 38.6758 66.6751 38.2874 66.6751 37.8075V30.8683V30H67.5474H74.5183C75.0004 30 75.3907 30.3885 75.3907 30.8683C75.3907 31.3482 75.0004 31.7367 74.5183 31.7367H69.8277C72.1233 33.9609 74.021 36.5888 75.4136 39.5061C77.0741 42.9947 78 46.8947 78 51.0003C78 55.1059 77.0665 59.0058 75.4136 62.4944C73.6919 66.1125 71.1744 69.2965 68.106 71.8025C67.7387 72.1072 67.1801 72.0538 66.8817 71.6806C66.5756 71.315 66.6292 70.7589 67.0041 70.4619C69.8889 68.1158 72.2381 65.1376 73.845 61.7556C75.3983 58.5031 76.263 54.8469 76.263 51.0003C76.263 47.1536 75.3907 43.5051 73.845 40.245C72.5059 37.4343 70.6618 34.913 68.4197 32.7878V37.8075Z" fill="#095540"/>
</g>
</svg>
