<svg width="102" height="102" viewBox="0 0 102 102" fill="none" xmlns="http://www.w3.org/2000/svg">
<g opacity="0.8">
<path d="M51 101C78.6142 101 101 78.6142 101 51C101 23.3858 78.6142 1 51 1C23.3858 1 1 23.3858 1 51C1 78.6142 23.3858 101 51 101Z" fill="white" fill-opacity="0.2" stroke="#095540" stroke-miterlimit="10"/>
<path d="M69.6001 49.7363V68.6676C69.6001 69.3202 69.3437 69.898 68.9139 70.3195C68.4842 70.7409 67.895 70.9992 67.2296 70.9992H34.847C34.1816 70.9992 33.5855 70.7477 33.1627 70.3262C32.733 69.9048 32.4766 69.3202 32.4766 68.6744V49.7431H34.0014V68.6744C34.0014 68.9123 34.0915 69.1231 34.2371 69.2726C34.3896 69.4154 34.5975 69.5037 34.847 69.5037H67.2296C67.4722 69.5037 67.6871 69.4154 67.8327 69.2658C67.9782 69.1231 68.0752 68.9123 68.0752 68.6744V49.7431H69.6001V49.7363Z" fill="#095540"/>
<path d="M71 48.0906C71 48.7432 70.7435 49.321 70.3138 49.7424C69.8841 50.1639 69.2949 50.4222 68.6295 50.4222H33.3774C32.712 50.4222 32.1229 50.1707 31.6931 49.7492C31.2634 49.3278 31 48.7432 31 48.0974V41.0347C31 40.3889 31.2565 39.8043 31.6862 39.3829C32.1159 38.9614 32.712 38.7031 33.3705 38.7031H68.6226C69.2811 38.7031 69.8771 38.9546 70.3069 39.3761C70.7366 39.7975 71 40.3821 71 41.0279V48.0906ZM69.2325 48.6888C69.3781 48.546 69.4682 48.3353 69.4682 48.0906V41.0279C69.4682 40.79 69.3781 40.5793 69.2325 40.4365C69.0801 40.287 68.8721 40.1986 68.6226 40.1986H33.3705C33.1279 40.1986 32.913 40.287 32.7675 40.4297C32.615 40.5793 32.5249 40.7832 32.5249 41.0279V48.0906C32.5249 48.3285 32.615 48.5392 32.7605 48.6888C32.9061 48.8315 33.1209 48.9199 33.3705 48.9199H68.6226C68.8652 48.9199 69.0801 48.8315 69.2325 48.6888Z" fill="#095540"/>
<path d="M61.8913 34.9736C60.9279 35.9184 57.9405 37.9373 55.3552 39.0521C53.4145 39.895 51.6054 40.2349 50.6836 39.3716L50.6697 39.358C49.7756 38.4811 50.1291 36.7002 50.9955 34.7832C52.1391 32.2409 54.1907 29.2976 55.1473 28.3527C56.0691 27.4486 57.2821 27 58.495 27C59.708 27 60.9279 27.4486 61.8844 28.3459L61.8983 28.3527C62.8132 29.25 63.2776 30.46 63.2776 31.6632C63.2776 32.8663 62.8201 34.0695 61.8983 34.9668L61.8913 34.9736ZM54.7383 37.6858C57.1642 36.639 59.9298 34.7764 60.81 33.92C61.4339 33.315 61.7388 32.4925 61.7388 31.6699C61.7388 30.8474 61.4269 30.0317 60.81 29.4199C60.1585 28.8082 59.3198 28.5091 58.4881 28.5091C57.6564 28.5091 56.8385 28.815 56.2216 29.4199C55.3413 30.2832 53.456 33.0159 52.3817 35.395C51.7579 36.7817 51.3975 37.9713 51.744 38.3112C52.1322 38.6443 53.3382 38.2976 54.7314 37.6926L54.7383 37.6858Z" fill="#095540"/>
<path d="M41.1168 33.9156C42.004 34.7789 44.7973 36.6686 47.2302 37.7358C48.6372 38.3544 49.8432 38.7147 50.1829 38.3748L50.1967 38.3612C50.6334 37.8786 49.9472 36.1452 48.9837 34.337C47.9163 32.3249 46.4816 30.3128 45.6984 29.5447L45.636 29.4835C45.0122 28.8718 44.1943 28.5727 43.3764 28.5727C42.5585 28.5727 41.7406 28.8785 41.1168 29.4835L41.096 29.4971C40.4861 30.0681 40.1811 30.8499 40.1811 31.6452C40.1811 32.4473 40.493 33.2698 41.1099 33.9088L41.1168 33.9156ZM46.6063 39.0953C44.0141 37.9601 41.0059 35.9141 40.0425 34.976L40.0217 34.9556C39.1137 34.0243 38.6562 32.8212 38.6562 31.652C38.6562 30.4692 39.1206 29.3 40.0356 28.4367C40.9574 27.5326 42.1634 27.084 43.3764 27.084C44.5824 27.084 45.7954 27.5326 46.7172 28.4367L46.7796 28.4979C47.646 29.3476 49.2055 31.516 50.3423 33.6573C51.576 35.9888 52.3107 38.368 51.2849 39.4216L51.2641 39.4488C50.37 40.3257 48.5609 39.9722 46.6133 39.1157L46.6063 39.0953Z" fill="#095540"/>
<path d="M45.457 44.7527C45.457 44.7459 46.6145 41.2859 50.9951 39.5797L52.0417 39.1719V70.1825H50.5168V41.4423C47.6542 42.9581 46.8918 45.2557 46.8918 45.2625L45.457 44.7527Z" fill="#095540"/>
<path d="M51.732 40.1211C51.7389 40.1347 53.2153 45.1649 58.3167 45.9194L58.0949 47.4013C52.0093 46.504 50.2765 40.5901 50.2695 40.5765L51.7251 40.1279L51.732 40.1211Z" fill="#095540"/>
</g>
</svg>
