<svg width="220" height="134" viewBox="0 0 220 134" fill="none" xmlns="http://www.w3.org/2000/svg">
<path d="M135.462 47H84.8412C82.2358 46.9996 79.6558 47.5128 77.2486 48.5103C74.8413 49.5079 72.654 50.9702 70.8115 52.8139C68.9691 54.6575 67.5075 56.8463 66.5104 59.2553C65.5132 61.6642 65 64.2462 65 66.8537C65.0009 72.1195 67.0917 77.1693 70.8125 80.8925C74.5334 84.6157 79.5796 86.7073 84.8412 86.7073H135.462C140.723 86.7065 145.768 84.6145 149.489 80.8914C153.209 77.1683 155.299 72.1189 155.3 66.8537C155.3 61.5881 153.21 56.5383 149.49 52.815C145.769 49.0917 140.723 47 135.462 47ZM78.6624 73.3475H71.1592V60.3729H73.7103V70.889H78.6494L78.6624 73.3475ZM90.2044 71.6563C89.0974 72.7818 87.6342 73.4876 86.0649 73.6534C84.4956 73.8191 82.9174 73.4343 81.6001 72.5649C80.2827 71.6954 79.3078 70.3952 78.842 68.8863C78.3762 67.3774 78.4483 65.7534 79.046 64.2918C79.6438 62.8302 80.73 61.6216 82.1193 60.8725C83.5085 60.1234 85.1145 59.8803 86.663 60.1847C88.2114 60.4891 89.6062 61.3221 90.6092 62.5414C91.6121 63.7607 92.1609 65.2907 92.1618 66.87C92.1761 67.7564 92.01 68.6365 91.6735 69.4565C91.337 70.2766 90.8371 71.0195 90.2044 71.64V71.6563ZM99.7498 73.3475H96.5854L92.2401 60.3892H95.0163L98.1774 70.3503L101.322 60.3892H104.115L99.7498 73.3475ZM113.363 73.3475H105.354V60.3729H113.272V62.8183H107.909V65.5771H112.802V67.9833H107.909V70.889H113.363V73.3475ZM135.149 85.4046C131.485 85.4046 127.904 84.3173 124.858 82.2802C121.811 80.2431 119.437 77.3477 118.035 73.9601C116.633 70.5726 116.267 66.845 116.982 63.249C117.697 59.6529 119.461 56.3497 122.052 53.7573C124.643 51.1648 127.944 49.3995 131.537 48.6846C135.131 47.9697 138.855 48.3373 142.24 49.7409C145.624 51.1445 148.517 53.521 150.552 56.57C152.587 59.619 153.673 63.2034 153.672 66.87C153.668 71.7834 151.714 76.4941 148.241 79.9666C144.767 83.4391 140.058 85.3892 135.149 85.3883V85.4046Z" fill="white"/>
<path d="M85.4182 62.5969C84.8662 62.5839 84.3173 62.6837 83.8051 62.8903C83.293 63.0969 82.8284 63.4059 82.4397 63.7984C81.6685 64.6269 81.2397 65.7171 81.2397 66.8494C81.2397 67.9817 81.6685 69.0719 82.4397 69.9004C83.0285 70.4989 83.7837 70.9061 84.6069 71.0694C85.4301 71.2326 86.2833 71.1442 87.0556 70.8156C87.828 70.4871 88.4837 69.9336 88.9375 69.2271C89.3914 68.5207 89.6223 67.6939 89.6004 66.8543C89.6187 66.2897 89.5214 65.7273 89.3143 65.2018C89.1073 64.6762 88.795 64.1986 88.3966 63.7984C88.0083 63.4054 87.5437 63.0961 87.0315 62.8895C86.5193 62.6829 85.9703 62.5833 85.4182 62.5969Z" fill="white"/>
<path d="M136.278 60.3731V73.3477H133.743V64.9276L130.112 70.9447H129.818L126.174 64.9472V73.3477H123.62V60.3731H126.246L129.952 66.4914L133.652 60.3633L136.278 60.3731Z" fill="white"/>
<path d="M141.236 70.8892H146.691V73.3476H138.682V60.373H146.6V62.8184H141.236V65.5772H146.13V67.9835H141.236V70.8892Z" fill="white"/>
</svg>
