<svg width="220" height="134" viewBox="0 0 220 134" fill="none" xmlns="http://www.w3.org/2000/svg">
<path d="M75.0464 33.0684H76.5602C76.9399 33.0684 77.233 33.1422 77.4429 33.2882C77.6527 33.4358 77.7568 33.654 77.7568 33.9445C77.7568 34.3312 77.5822 34.5831 77.233 34.7019C77.4236 34.758 77.5822 34.8559 77.7072 34.9971C77.8321 35.1383 77.8946 35.3261 77.8946 35.5652C77.8946 35.7529 77.8529 35.915 77.7712 36.0481C77.6895 36.1813 77.5774 36.2824 77.438 36.3482C77.2971 36.414 77.1545 36.4621 77.0071 36.4926C76.8598 36.5231 76.7028 36.5376 76.5346 36.5376H75.0464V33.0684ZM77.1529 35.4865C77.1529 35.1897 76.9559 35.0404 76.565 35.0404H75.7833V35.9326H76.525C76.7188 35.9326 76.8726 35.9005 76.9847 35.8379C77.0968 35.7754 77.1529 35.6582 77.1529 35.4865ZM77.0199 34.0745C77.0199 33.8097 76.8453 33.6781 76.4961 33.6781H75.7881V34.4708H76.5346C76.6803 34.4708 76.7973 34.4371 76.8854 34.3697C76.9751 34.3007 77.0199 34.2028 77.0199 34.0745Z" fill="white"/>
<path d="M79.9499 35.4824C79.8731 35.2673 79.833 35.0411 79.833 34.8036C79.833 34.5661 79.8715 34.3399 79.9499 34.1248C80.0268 33.9098 80.1406 33.7189 80.2912 33.5504C80.4417 33.3819 80.6356 33.2487 80.8727 33.1492C81.1097 33.0497 81.3773 33 81.6736 33C81.97 33 82.2375 33.0497 82.4746 33.1492C82.7117 33.2487 82.9055 33.3819 83.0561 33.5504C83.2066 33.7189 83.3204 33.9098 83.3973 34.1248C83.4742 34.3399 83.5142 34.5661 83.5142 34.8036C83.5142 35.0411 83.4758 35.2673 83.3973 35.4824C83.3204 35.6974 83.2066 35.8883 83.0561 36.0568C82.9055 36.2253 82.7117 36.3585 82.4746 36.458C82.2375 36.5575 81.97 36.6072 81.6736 36.6072C81.3773 36.6072 81.1097 36.5575 80.8727 36.458C80.6356 36.3585 80.4417 36.2253 80.2912 36.0568C80.1422 35.8883 80.0284 35.6974 79.9499 35.4824ZM82.4714 35.6011C82.6588 35.3893 82.7533 35.1245 82.7533 34.8036C82.7533 34.4827 82.6588 34.2179 82.4714 34.0061C82.2839 33.7943 82.018 33.6884 81.6752 33.6884C81.3292 33.6884 81.0617 33.7943 80.8743 34.0061C80.6868 34.2179 80.5923 34.4843 80.5923 34.8036C80.5923 35.1245 80.6868 35.3893 80.8743 35.6011C81.0617 35.8129 81.3292 35.9188 81.6752 35.9188C82.018 35.9172 82.2823 35.8129 82.4714 35.6011Z" fill="white"/>
<path d="M86.1815 33.0684H88.5556V36.5376H87.8139V33.7375H86.864C86.8447 33.9878 86.8255 34.198 86.8095 34.3649C86.7935 34.5318 86.7678 34.7243 86.7358 34.9426C86.7022 35.1608 86.6669 35.3405 86.6301 35.4833C86.5916 35.6261 86.542 35.7722 86.4811 35.9214C86.4202 36.0722 86.3513 36.191 86.2728 36.2776C86.196 36.3659 86.1014 36.4381 85.9941 36.4958C85.8852 36.5536 85.7634 36.5825 85.6273 36.5825C85.4895 36.5825 85.3598 36.5616 85.2412 36.5183V35.8636C85.3101 35.8829 85.3902 35.8925 85.4783 35.8877C85.5408 35.8845 85.5984 35.8636 85.6513 35.8251C85.7042 35.7866 85.7506 35.7288 85.7923 35.6518C85.8339 35.5748 85.8692 35.4946 85.9012 35.4143C85.9332 35.3341 85.9605 35.2266 85.9829 35.0918C86.0053 34.9586 86.0261 34.8399 86.0422 34.7356C86.0582 34.6313 86.0742 34.4949 86.0886 34.3264C86.103 34.1579 86.1143 34.0215 86.1239 33.9156C86.1319 33.8097 86.1415 33.6653 86.1543 33.4791C86.1655 33.2946 86.1735 33.1566 86.1815 33.0684Z" fill="white"/>
<path d="M95.3364 36.536H90.8799V33.0684H91.6216V35.8684H92.7397V33.0684H93.4814V35.8684H94.5995V33.0684H95.3364V36.536Z" fill="white"/>
<path d="M97.6621 33.0684H100.1V33.723H98.4038V34.4612H99.9528V35.111H98.4038V35.8845H100.131V36.5392H97.6621V33.0684Z" fill="white"/>
<path d="M103.038 34.3569H103.801C103.982 34.3569 104.148 34.3745 104.297 34.4082C104.448 34.4435 104.587 34.4997 104.715 34.5767C104.844 34.6537 104.944 34.7677 105.017 34.9169C105.089 35.0661 105.126 35.2426 105.126 35.4464C105.126 36.1733 104.683 36.536 103.799 36.536H102.295V33.0684H104.842V33.7375H103.037V34.3569H103.038ZM103.038 35.8829H103.806C103.98 35.8829 104.118 35.8524 104.219 35.7914C104.32 35.7304 104.369 35.6149 104.369 35.4464C104.369 35.2779 104.32 35.164 104.219 35.1014C104.118 35.0404 103.98 35.01 103.806 35.01H103.038V35.8829Z" fill="white"/>
<path d="M109.513 33.0684H110.255V36.5376H109.513V35.1399H107.959V36.5376H107.218V33.0684H107.959V34.466H109.513V33.0684Z" fill="white"/>
<path d="M112.991 36.5376H112.224L113.638 33.0684H114.439L115.849 36.5376H115.081L114.83 35.8877H113.247L112.991 36.5376ZM113.962 34.0311L113.481 35.2747H114.599L114.114 34.0311C114.08 33.9381 114.056 33.8482 114.04 33.7583C114.021 33.861 113.994 33.9525 113.962 34.0311Z" fill="white"/>
<path d="M118.378 36.536H117.523L118.487 35.2619C117.973 35.0902 117.715 34.7452 117.715 34.2269C117.715 33.837 117.847 33.5465 118.111 33.3556C118.375 33.1646 118.707 33.0684 119.106 33.0684H120.515V36.5376H119.774V35.3582H119.255L118.378 36.536ZM118.647 33.8482C118.534 33.9316 118.476 34.0584 118.476 34.2269C118.476 34.3954 118.534 34.5221 118.647 34.6088C118.761 34.6954 118.915 34.7372 119.11 34.7372H119.774V33.7214H119.11C118.917 33.723 118.761 33.7648 118.647 33.8482Z" fill="white"/>
<path d="M127.817 33.0684H128.558V36.5376H127.817V35.1399H126.263V36.5376H125.521V33.0684H126.263V34.466H127.817V33.0684Z" fill="white"/>
<path d="M130.807 35.4824C130.73 35.2673 130.69 35.0411 130.69 34.8036C130.69 34.5661 130.729 34.3399 130.807 34.1248C130.884 33.9098 130.998 33.7189 131.149 33.5504C131.299 33.3819 131.493 33.2487 131.73 33.1492C131.967 33.0497 132.235 33 132.531 33C132.827 33 133.095 33.0497 133.332 33.1492C133.569 33.2487 133.763 33.3819 133.913 33.5504C134.064 33.7189 134.178 33.9098 134.255 34.1248C134.332 34.3399 134.372 34.5661 134.372 34.8036C134.372 35.0411 134.333 35.2673 134.255 35.4824C134.178 35.6974 134.064 35.8883 133.913 36.0568C133.763 36.2253 133.569 36.3585 133.332 36.458C133.095 36.5575 132.827 36.6072 132.531 36.6072C132.235 36.6072 131.967 36.5575 131.73 36.458C131.493 36.3585 131.299 36.2253 131.149 36.0568C130.998 35.8883 130.884 35.6974 130.807 35.4824ZM133.327 35.6011C133.515 35.3893 133.609 35.1245 133.609 34.8036C133.609 34.4827 133.515 34.2179 133.327 34.0061C133.14 33.7943 132.874 33.6884 132.531 33.6884C132.185 33.6884 131.917 33.7943 131.73 34.0061C131.543 34.2179 131.448 34.4843 131.448 34.8036C131.448 35.1245 131.543 35.3893 131.73 35.6011C131.917 35.8129 132.185 35.9188 132.531 35.9188C132.874 35.9172 133.14 35.8129 133.327 35.6011Z" fill="white"/>
<path d="M139.208 36.536H138.466V35.2924C138.16 35.3919 137.867 35.4416 137.59 35.4416C137.194 35.4384 136.883 35.3357 136.659 35.1351C136.435 34.9329 136.323 34.6377 136.323 34.2478V33.0684H137.064V34.2237C137.064 34.405 137.129 34.5414 137.257 34.6297C137.385 34.7195 137.558 34.7628 137.776 34.7628C138.006 34.7628 138.235 34.7163 138.463 34.6248V33.0684H139.205V36.536H139.208Z" fill="white"/>
<path d="M142.839 36.536H141.534V33.0684H142.275V34.2076H142.839C143.836 34.2141 144.334 34.6024 144.334 35.3726C144.334 36.1492 143.836 36.536 142.839 36.536ZM142.275 34.8623V35.8829H142.874C143.342 35.8829 143.578 35.7128 143.578 35.3726C143.578 35.0324 143.344 34.8623 142.874 34.8623H142.275Z" fill="white"/>
<path d="M101.936 61.2389C105.347 59.5476 107.053 56.4732 107.053 52.0171C107.053 48.803 106.037 46.1939 104.006 44.1914C101.975 42.1904 99.1777 41.1875 95.6167 41.1875H75V78.9186C75 79.055 75.0993 79.1786 75.2355 79.1914C75.3925 79.2059 75.5238 79.0839 75.5238 78.9299V67.5435C75.7817 67.5451 76.1213 67.5451 76.5138 67.5451V85.2184C76.5138 85.3548 76.6131 85.4783 76.7493 85.4912C76.9063 85.5056 77.0376 85.3837 77.0376 85.2296V67.5467C77.2779 67.5467 77.5326 67.5467 77.7937 67.5451V80.6147C77.7937 80.7511 77.8931 80.8747 78.0292 80.8875C78.1862 80.902 78.3176 80.78 78.3176 80.626V67.5435C78.5675 67.5435 78.8206 67.5418 79.0737 67.5418V82.5964C79.0737 82.7328 79.173 82.8564 79.3092 82.8692C79.4661 82.8837 79.5975 82.7617 79.5975 82.6077V67.5402C79.8746 67.5402 80.147 67.5386 80.4129 67.5386V82.0733C80.4129 82.2097 80.5122 82.3333 80.6484 82.3461C80.8053 82.3606 80.9367 82.2386 80.9367 82.0846V67.537C81.1834 67.537 81.4173 67.5354 81.6351 67.5354V86.8535C81.6351 86.9899 81.7345 87.1135 81.8706 87.1263C82.0276 87.1407 82.159 87.0188 82.159 86.8647V67.5322C82.5402 67.5306 82.8254 67.5306 82.9743 67.529V84.928C82.9743 85.0644 83.0737 85.1879 83.2098 85.2007C83.3668 85.2152 83.4982 85.0932 83.4982 84.9392V64.538H94.4136C96.714 64.538 99.2226 66.1555 99.5013 67.5386V89.2428C99.5013 89.3792 99.6006 89.5027 99.7368 89.5156C99.8938 89.53 100.025 89.4081 100.025 89.254V67.5354C100.222 67.5338 100.458 67.5338 100.724 67.5322V85.6292C100.724 85.7656 100.823 85.8891 100.959 85.902C101.116 85.9164 101.247 85.7944 101.247 85.6404V67.5306C101.486 67.5306 101.739 67.529 102.003 67.529V89.2412C102.003 89.3776 102.103 89.5011 102.239 89.514C102.396 89.5284 102.527 89.4065 102.527 89.2524V67.529C102.756 67.529 102.99 67.529 103.226 67.529V89.2428C103.226 89.3792 103.325 89.5027 103.461 89.5156C103.618 89.53 103.75 89.4081 103.75 89.254V67.529C103.924 67.529 104.099 67.529 104.273 67.529V85.5714C104.273 85.7078 104.373 85.8314 104.509 85.8442C104.666 85.8586 104.797 85.7367 104.797 85.5826V67.529C105.057 67.529 105.31 67.529 105.553 67.529V89.2428C105.553 89.3792 105.653 89.5027 105.789 89.5156C105.946 89.53 106.077 89.4081 106.077 89.254V67.529C106.327 67.529 106.561 67.529 106.776 67.529V78.8657C106.776 79.0021 106.875 79.1256 107.011 79.1385C107.168 79.1529 107.299 79.031 107.299 78.8769V67.7216C107.299 67.5916 107.29 67.4632 107.269 67.3349C107.187 66.8358 106.947 65.5393 106.545 64.8878C105.488 63.1741 103.743 61.8615 101.936 61.2389ZM93.8113 58.1099H83.0512V48.0425H93.8113C95.2658 48.0425 96.4817 48.4516 97.4605 49.2684C98.4392 50.0867 98.9278 51.3977 98.9278 53.2013C98.9262 56.4748 97.2218 58.1099 93.8113 58.1099Z" fill="white"/>
<path d="M75.2611 79.8965C75.1169 79.8965 75 80.0136 75 80.158V81.8493C75 81.9937 75.1169 82.1109 75.2611 82.1109C75.4053 82.1109 75.5222 81.9937 75.5222 81.8493V80.158C75.5238 80.0136 75.4069 79.8965 75.2611 79.8965Z" fill="white"/>
<path d="M75.2611 84.1523C75.1169 84.1523 75 84.2695 75 84.4139V85.5211C75 85.6655 75.1169 85.7826 75.2611 85.7826C75.4053 85.7826 75.5222 85.6655 75.5222 85.5211V84.4139C75.5238 84.2695 75.4069 84.1523 75.2611 84.1523Z" fill="white"/>
<path d="M75.2611 86.4258C75.1169 86.4258 75 86.5429 75 86.6873V87.6196C75 87.764 75.1169 87.8812 75.2611 87.8812C75.4053 87.8812 75.5222 87.764 75.5222 87.6196V86.6873C75.5238 86.5429 75.4069 86.4258 75.2611 86.4258Z" fill="white"/>
<path d="M75.2611 88.9316C75.1169 88.9316 75 89.0488 75 89.1932V89.543C75 89.6874 75.1169 89.8046 75.2611 89.8046C75.4053 89.8046 75.5222 89.6874 75.5222 89.543V89.1932C75.5238 89.0488 75.4069 88.9316 75.2611 88.9316Z" fill="white"/>
<path d="M75.2611 90.9727C75.1169 90.9727 75 91.0898 75 91.2342V91.584C75 91.7284 75.1169 91.8456 75.2611 91.8456C75.4053 91.8456 75.5222 91.7284 75.5222 91.584V91.2342C75.5238 91.0898 75.4069 90.9727 75.2611 90.9727Z" fill="white"/>
<path d="M76.7748 86.252C76.6306 86.252 76.5137 86.3691 76.5137 86.5135V88.2048C76.5137 88.3492 76.6306 88.4663 76.7748 88.4663C76.919 88.4663 77.0359 88.3492 77.0359 88.2048V86.5135C77.0359 86.3691 76.919 86.252 76.7748 86.252Z" fill="white"/>
<path d="M76.7748 90.3887C76.6306 90.3887 76.5137 90.5058 76.5137 90.6502V91.8168C76.5137 91.9612 76.6306 92.0783 76.7748 92.0783C76.919 92.0783 77.0359 91.9612 77.0359 91.8168V90.6502C77.0359 90.5074 76.919 90.3887 76.7748 90.3887Z" fill="white"/>
<path d="M76.7748 93.7695C76.6306 93.7695 76.5137 93.8867 76.5137 94.0311V94.3809C76.5137 94.5253 76.6306 94.6424 76.7748 94.6424C76.919 94.6424 77.0359 94.5253 77.0359 94.3809V94.0311C77.0359 93.8883 76.919 93.7695 76.7748 93.7695Z" fill="white"/>
<path d="M78.0551 81.5293C77.9109 81.5293 77.7939 81.6464 77.7939 81.7909V83.4821C77.7939 83.6265 77.9109 83.7437 78.0551 83.7437C78.1992 83.7437 78.3162 83.6265 78.3162 83.4821V81.7909C78.3178 81.648 78.2008 81.5293 78.0551 81.5293Z" fill="white"/>
<path d="M78.0551 85.4941C77.9109 85.4941 77.7939 85.6113 77.7939 85.7557V86.9223C77.7939 87.0667 77.9109 87.1838 78.0551 87.1838C78.1992 87.1838 78.3162 87.0667 78.3162 86.9223V85.7557C78.3178 85.6113 78.2008 85.4941 78.0551 85.4941Z" fill="white"/>
<path d="M78.0551 90.3887C77.9109 90.3887 77.7939 90.5058 77.7939 90.6502V91C77.7939 91.1444 77.9109 91.2616 78.0551 91.2616C78.1992 91.2616 78.3162 91.1444 78.3162 91V90.6502C78.3178 90.5074 78.2008 90.3887 78.0551 90.3887Z" fill="white"/>
<path d="M76.7748 95.2285C76.6306 95.2285 76.5137 95.3457 76.5137 95.4901V95.8399C76.5137 95.9843 76.6306 96.1014 76.7748 96.1014C76.919 96.1014 77.0359 95.9843 77.0359 95.8399V95.4901C77.0359 95.3457 76.919 95.2285 76.7748 95.2285Z" fill="white"/>
<path d="M80.7909 91.8477C80.6467 91.8477 80.5298 91.9648 80.5298 92.1092V92.459C80.5298 92.6034 80.6467 92.7206 80.7909 92.7206C80.9351 92.7206 81.052 92.6034 81.052 92.459V92.1092C81.052 91.9648 80.9351 91.8477 80.7909 91.8477Z" fill="white"/>
<path d="M79.4515 92.4883C79.3074 92.4883 79.1904 92.6054 79.1904 92.7498V93.0996C79.1904 93.2441 79.3074 93.3612 79.4515 93.3612C79.5957 93.3612 79.7127 93.2441 79.7127 93.0996V92.7498C79.7143 92.6054 79.5957 92.4883 79.4515 92.4883Z" fill="white"/>
<path d="M79.4515 87.8828C79.3074 87.8828 79.1904 88 79.1904 88.1444V89.3109C79.1904 89.4553 79.3074 89.5725 79.4515 89.5725C79.5957 89.5725 79.7127 89.4553 79.7127 89.3109V88.1444C79.7143 88 79.5957 87.8828 79.4515 87.8828Z" fill="white"/>
<path d="M79.5974 85.5232V83.9491C79.5974 83.8046 79.4805 83.6875 79.3363 83.6875C79.1921 83.6875 79.0752 83.8046 79.0752 83.9491V85.5232C79.0752 85.6676 79.1921 85.7847 79.3363 85.7847C79.4805 85.7847 79.5974 85.6676 79.5974 85.5232Z" fill="white"/>
<path d="M80.6742 85.0269C80.8184 85.0269 80.9353 84.9098 80.9353 84.7654V83.1912C80.9353 83.0468 80.8184 82.9297 80.6742 82.9297C80.53 82.9297 80.4131 83.0468 80.4131 83.1912V84.7654C80.4131 84.9098 80.53 85.0269 80.6742 85.0269Z" fill="white"/>
<path d="M80.9368 88.3216V87.3299C80.9368 87.1855 80.8198 87.0684 80.6757 87.0684C80.5315 87.0684 80.4146 87.1855 80.4146 87.3299V88.3216C80.4146 88.466 80.5315 88.5831 80.6757 88.5831C80.8182 88.5831 80.9368 88.466 80.9368 88.3216Z" fill="white"/>
<path d="M81.8964 87.8828C81.7522 87.8828 81.6353 88 81.6353 88.1444V89.4858C81.6353 89.6302 81.7522 89.7474 81.8964 89.7474C82.0405 89.7474 82.1575 89.6302 82.1575 89.4858V88.1444C82.1575 88 82.0405 87.8828 81.8964 87.8828Z" fill="white"/>
<path d="M81.8964 92.0801C81.7522 92.0801 81.6353 92.1972 81.6353 92.3416V93.3333C81.6353 93.4777 81.7522 93.5948 81.8964 93.5948C82.0405 93.5948 82.1575 93.4777 82.1575 93.3333V92.3416C82.1575 92.1972 82.0405 92.0801 81.8964 92.0801Z" fill="white"/>
<path d="M83.2352 86.1934C83.0911 86.1934 82.9741 86.3105 82.9741 86.4549V88.029C82.9741 88.1735 83.0911 88.2906 83.2352 88.2906C83.3794 88.2906 83.4963 88.1735 83.4963 88.029V86.4549C83.4963 86.3105 83.3794 86.1934 83.2352 86.1934Z" fill="white"/>
<path d="M83.2352 90.7383C83.0911 90.7383 82.9741 90.8554 82.9741 90.9998V92.0493C82.9741 92.1937 83.0911 92.3108 83.2352 92.3108C83.3794 92.3108 83.4963 92.1937 83.4963 92.0493V90.9998C83.4963 90.857 83.3794 90.7383 83.2352 90.7383Z" fill="white"/>
<path d="M83.2352 95.5781C83.0911 95.5781 82.9741 95.6953 82.9741 95.8397V96.1895C82.9741 96.3339 83.0911 96.451 83.2352 96.451C83.3794 96.451 83.4963 96.3339 83.4963 96.1895V95.8397C83.4963 95.6953 83.3794 95.5781 83.2352 95.5781Z" fill="white"/>
<path d="M81.8964 96.6855C81.7522 96.6855 81.6353 96.8027 81.6353 96.9471V97.2969C81.6353 97.4413 81.7522 97.5585 81.8964 97.5585C82.0405 97.5585 82.1575 97.4413 82.1575 97.2969V96.9471C82.1575 96.8027 82.0405 96.6855 81.8964 96.6855Z" fill="white"/>
<path d="M84.3407 77.0977C84.1965 77.0977 84.0796 77.2148 84.0796 77.3592V85.6952C84.0796 85.8397 84.1965 85.9568 84.3407 85.9568C84.4849 85.9568 84.6018 85.8397 84.6018 85.6952V77.3592C84.6018 77.2164 84.4849 77.0977 84.3407 77.0977Z" fill="white"/>
<path d="M84.3407 86.834C84.1965 86.834 84.0796 86.9511 84.0796 87.0955V88.6697C84.0796 88.8141 84.1965 88.9312 84.3407 88.9312C84.4849 88.9312 84.6018 88.8141 84.6018 88.6697V87.0955C84.6018 86.9511 84.4849 86.834 84.3407 86.834Z" fill="white"/>
<path d="M84.3407 91.5566C84.1965 91.5566 84.0796 91.6738 84.0796 91.8182V92.8676C84.0796 93.012 84.1965 93.1292 84.3407 93.1292C84.4849 93.1292 84.6018 93.012 84.6018 92.8676V91.8182C84.6018 91.6738 84.4849 91.5566 84.3407 91.5566Z" fill="white"/>
<path d="M84.3407 96.2793C84.1965 96.2793 84.0796 96.3964 84.0796 96.5409V96.8907C84.0796 97.0351 84.1965 97.1522 84.3407 97.1522C84.4849 97.1522 84.6018 97.0351 84.6018 96.8907V96.5409C84.6018 96.3964 84.4849 96.2793 84.3407 96.2793Z" fill="white"/>
<path d="M85.4462 77.0977C85.302 77.0977 85.1851 77.1522 85.1851 77.218V82.6914C85.1851 82.7572 85.302 82.8117 85.4462 82.8117C85.5903 82.8117 85.7073 82.7572 85.7073 82.6914V77.218C85.7073 77.1522 85.5903 77.0977 85.4462 77.0977Z" fill="white"/>
<path d="M85.5038 84.2695C85.3596 84.2695 85.2427 84.3867 85.2427 84.5311V86.1052C85.2427 86.2496 85.3596 86.3668 85.5038 86.3668C85.648 86.3668 85.7649 86.2496 85.7649 86.1052V84.5311C85.7665 84.3867 85.6496 84.2695 85.5038 84.2695Z" fill="white"/>
<path d="M86.6683 93.9453C86.5242 93.9453 86.4072 94.0625 86.4072 94.2069V94.5567C86.4072 94.7011 86.5242 94.8182 86.6683 94.8182C86.8125 94.8182 86.9295 94.7011 86.9295 94.5567V94.2069C86.9295 94.0641 86.8125 93.9453 86.6683 93.9453Z" fill="white"/>
<path d="M86.6684 84.2691C86.8125 84.2691 86.9295 84.1519 86.9295 84.0075V77.3612C86.9295 77.2167 86.8125 77.0996 86.6684 77.0996C86.5242 77.0996 86.4072 77.2167 86.4072 77.3612V84.0075C86.4056 84.1519 86.5242 84.2691 86.6684 84.2691Z" fill="white"/>
<path d="M86.9295 90.3612C86.9295 90.2167 86.8125 90.0996 86.6683 90.0996C86.5242 90.0996 86.4072 90.2167 86.4072 90.3612V91.4683C86.4072 91.6128 86.5242 91.7299 86.6683 91.7299C86.8125 91.7299 86.9295 91.6128 86.9295 91.4683V90.3612Z" fill="white"/>
<path d="M87.8905 77.0977C87.7463 77.0977 87.6294 77.2148 87.6294 77.3592V85.6952C87.6294 85.8397 87.7463 85.9568 87.8905 85.9568C88.0347 85.9568 88.1516 85.8397 88.1516 85.6952V77.3592C88.1516 77.2164 88.0347 77.0977 87.8905 77.0977Z" fill="white"/>
<path d="M87.8905 86.834C87.7463 86.834 87.6294 86.9511 87.6294 87.0955V88.6697C87.6294 88.8141 87.7463 88.9312 87.8905 88.9312C88.0347 88.9312 88.1516 88.8141 88.1516 88.6697V87.0955C88.1516 86.9511 88.0347 86.834 87.8905 86.834Z" fill="white"/>
<path d="M87.8905 91.5566C87.7463 91.5566 87.6294 91.6738 87.6294 91.8182V92.8676C87.6294 93.012 87.7463 93.1292 87.8905 93.1292C88.0347 93.1292 88.1516 93.012 88.1516 92.8676V91.8182C88.1516 91.6738 88.0347 91.5566 87.8905 91.5566Z" fill="white"/>
<path d="M87.8905 95.8105C87.7463 95.8105 87.6294 95.9277 87.6294 96.0721V96.4219C87.6294 96.5663 87.7463 96.6835 87.8905 96.6835C88.0347 96.6835 88.1516 96.5663 88.1516 96.4219V96.0721C88.1516 95.9277 88.0347 95.8105 87.8905 95.8105Z" fill="white"/>
<path d="M89.1708 77.0977C89.0266 77.0977 88.9097 77.2148 88.9097 77.3592V86.6275C88.9097 86.7719 89.0266 86.8891 89.1708 86.8891C89.315 86.8891 89.4319 86.7719 89.4319 86.6275V77.3592C89.4335 77.2164 89.315 77.0977 89.1708 77.0977Z" fill="white"/>
<path d="M89.1708 92.4883C89.0266 92.4883 88.9097 92.6054 88.9097 92.7498V93.6243C88.9097 93.7688 89.0266 93.8859 89.1708 93.8859C89.315 93.8859 89.4319 93.7688 89.4319 93.6243V92.7498C89.4335 92.6054 89.315 92.4883 89.1708 92.4883Z" fill="white"/>
<path d="M89.1708 95.9863C89.0266 95.9863 88.9097 96.1035 88.9097 96.2479V96.5399C88.9097 96.6843 89.0266 96.8015 89.1708 96.8015C89.315 96.8015 89.4319 96.6843 89.4319 96.5399V96.2479C89.4335 96.1035 89.315 95.9863 89.1708 95.9863Z" fill="white"/>
<path d="M87.8905 98.4355C87.7463 98.4355 87.6294 98.5527 87.6294 98.6971V99.0469C87.6294 99.1913 87.7463 99.3085 87.8905 99.3085C88.0347 99.3085 88.1516 99.1913 88.1516 99.0469V98.6971C88.1516 98.5527 88.0347 98.4355 87.8905 98.4355Z" fill="white"/>
<path d="M91.1775 95.4334C91.1775 95.289 91.0606 95.1719 90.9164 95.1719C90.7722 95.1719 90.6553 95.289 90.6553 95.4334V95.7832C90.6553 95.9277 90.7722 96.0448 90.9164 96.0448C91.0606 96.0448 91.1775 95.9277 91.1775 95.7832V95.4334Z" fill="white"/>
<path d="M90.5383 89.3108V77.3612C90.5383 77.2167 90.4214 77.0996 90.2772 77.0996C90.1331 77.0996 90.0161 77.2167 90.0161 77.3612V89.3108C90.0161 89.4552 90.1331 89.5724 90.2772 89.5724C90.4214 89.5724 90.5383 89.4568 90.5383 89.3108Z" fill="white"/>
<path d="M90.6541 90.828C90.6541 90.6835 90.5371 90.5664 90.3929 90.5664C90.2488 90.5664 90.1318 90.6835 90.1318 90.828V91.9352C90.1318 92.0796 90.2488 92.1967 90.3929 92.1967C90.5371 92.1967 90.6541 92.0796 90.6541 91.9352V90.828Z" fill="white"/>
<path d="M91.4403 77.0977C91.2961 77.0977 91.1792 77.2148 91.1792 77.3592V85.6952C91.1792 85.8397 91.2961 85.9568 91.4403 85.9568C91.5845 85.9568 91.7014 85.8397 91.7014 85.6952V77.3592C91.7014 77.2164 91.5845 77.0977 91.4403 77.0977Z" fill="white"/>
<path d="M91.4403 86.834C91.2961 86.834 91.1792 86.9511 91.1792 87.0955V88.6697C91.1792 88.8141 91.2961 88.9312 91.4403 88.9312C91.5845 88.9312 91.7014 88.8141 91.7014 88.6697V87.0955C91.7014 86.9511 91.5845 86.834 91.4403 86.834Z" fill="white"/>
<path d="M91.4403 91.5566C91.2961 91.5566 91.1792 91.6738 91.1792 91.8182V92.8676C91.1792 93.012 91.2961 93.1292 91.4403 93.1292C91.5845 93.1292 91.7014 93.012 91.7014 92.8676V91.8182C91.7014 91.6738 91.5845 91.5566 91.4403 91.5566Z" fill="white"/>
<path d="M91.4403 96.2793C91.2961 96.2793 91.1792 96.3964 91.1792 96.5409V96.8907C91.1792 97.0351 91.2961 97.1522 91.4403 97.1522C91.5845 97.1522 91.7014 97.0351 91.7014 96.8907V96.5409C91.7014 96.3964 91.5845 96.2793 91.4403 96.2793Z" fill="white"/>
<path d="M92.7206 77.0977C92.5764 77.0977 92.4595 77.2148 92.4595 77.3592V89.3089C92.4595 89.4533 92.5764 89.5704 92.7206 89.5704C92.8648 89.5704 92.9817 89.4533 92.9817 89.3089V77.3592C92.9833 77.2164 92.8648 77.0977 92.7206 77.0977Z" fill="white"/>
<path d="M92.7206 90.7988C92.5764 90.7988 92.4595 90.916 92.4595 91.0604V92.6345C92.4595 92.7789 92.5764 92.8961 92.7206 92.8961C92.8648 92.8961 92.9817 92.7789 92.9817 92.6345V91.0604C92.9833 90.916 92.8648 90.7988 92.7206 90.7988Z" fill="white"/>
<path d="M92.7206 95.2285C92.5764 95.2285 92.4595 95.3457 92.4595 95.4901V96.5395C92.4595 96.6839 92.5764 96.8011 92.7206 96.8011C92.8648 96.8011 92.9817 96.6839 92.9817 96.5395V95.4901C92.9833 95.3457 92.8648 95.2285 92.7206 95.2285Z" fill="white"/>
<path d="M92.7206 100.066C92.5764 100.066 92.4595 100.184 92.4595 100.328V100.678C92.4595 100.822 92.5764 100.939 92.7206 100.939C92.8648 100.939 92.9817 100.822 92.9817 100.678V100.328C92.9833 100.184 92.8648 100.066 92.7206 100.066Z" fill="white"/>
<path d="M94.4667 95.1699C94.3225 95.1699 94.2056 95.2871 94.2056 95.4315V95.7813C94.2056 95.9257 94.3225 96.0428 94.4667 96.0428C94.6109 96.0428 94.7278 95.9257 94.7278 95.7813V95.4315C94.7294 95.2887 94.6109 95.1699 94.4667 95.1699Z" fill="white"/>
<path d="M93.9428 89.5743C94.0869 89.5743 94.2039 89.4572 94.2039 89.3127V77.3631C94.2039 77.2187 94.0869 77.1016 93.9428 77.1016C93.7986 77.1016 93.6816 77.2187 93.6816 77.3631V89.3127C93.6816 89.4572 93.7986 89.5743 93.9428 89.5743Z" fill="white"/>
<path d="M94.2053 90.828C94.2053 90.6835 94.0884 90.5664 93.9442 90.5664C93.8 90.5664 93.6831 90.6835 93.6831 90.828V91.9352C93.6831 92.0796 93.8 92.1967 93.9442 92.1967C94.0884 92.1967 94.2053 92.0796 94.2053 91.9352V90.828Z" fill="white"/>
<path d="M95.1649 77.0977C95.0207 77.0977 94.9038 77.2148 94.9038 77.3592V85.6952C94.9038 85.8397 95.0207 85.9568 95.1649 85.9568C95.3091 85.9568 95.426 85.8397 95.426 85.6952V77.3592C95.426 77.2164 95.3091 77.0977 95.1649 77.0977Z" fill="white"/>
<path d="M95.1649 86.834C95.0207 86.834 94.9038 86.9511 94.9038 87.0955V88.6697C94.9038 88.8141 95.0207 88.9312 95.1649 88.9312C95.3091 88.9312 95.426 88.8141 95.426 88.6697V87.0955C95.426 86.9511 95.3091 86.834 95.1649 86.834Z" fill="white"/>
<path d="M95.1649 91.5566C95.0207 91.5566 94.9038 91.6738 94.9038 91.8182V92.8676C94.9038 93.012 95.0207 93.1292 95.1649 93.1292C95.3091 93.1292 95.426 93.012 95.426 92.8676V91.8182C95.426 91.6738 95.3091 91.5566 95.1649 91.5566Z" fill="white"/>
<path d="M95.1649 96.2793C95.0207 96.2793 94.9038 96.3964 94.9038 96.5409V96.8907C94.9038 97.0351 95.0207 97.1522 95.1649 97.1522C95.3091 97.1522 95.426 97.0351 95.426 96.8907V96.5409C95.426 96.3964 95.3091 96.2793 95.1649 96.2793Z" fill="white"/>
<path d="M96.4447 77.0977C96.3005 77.0977 96.1836 77.2148 96.1836 77.3592V89.3089C96.1836 89.4533 96.3005 89.5704 96.4447 89.5704C96.5889 89.5704 96.7058 89.4533 96.7058 89.3089V77.3592C96.7074 77.2164 96.5889 77.0977 96.4447 77.0977Z" fill="white"/>
<path d="M96.4447 90.7988C96.3005 90.7988 96.1836 90.916 96.1836 91.0604V92.6345C96.1836 92.7789 96.3005 92.8961 96.4447 92.8961C96.5889 92.8961 96.7058 92.7789 96.7058 92.6345V91.0604C96.7074 90.916 96.5889 90.7988 96.4447 90.7988Z" fill="white"/>
<path d="M96.4447 95.2285C96.3005 95.2285 96.1836 95.3457 96.1836 95.4901V96.5395C96.1836 96.6839 96.3005 96.8011 96.4447 96.8011C96.5889 96.8011 96.7058 96.6839 96.7058 96.5395V95.4901C96.7074 95.3457 96.5889 95.2285 96.4447 95.2285Z" fill="white"/>
<path d="M96.4447 100.066C96.3005 100.066 96.1836 100.184 96.1836 100.328V100.678C96.1836 100.822 96.3005 100.939 96.4447 100.939C96.5889 100.939 96.7058 100.822 96.7058 100.678V100.328C96.7074 100.184 96.5889 100.066 96.4447 100.066Z" fill="white"/>
<path d="M98.7147 94.3535C98.5706 94.3535 98.4536 94.4706 98.4536 94.6151V94.9649C98.4536 95.1093 98.5706 95.2264 98.7147 95.2264C98.8589 95.2264 98.9758 95.1093 98.9758 94.9649V94.6151C98.9774 94.4706 98.8589 94.3535 98.7147 94.3535Z" fill="white"/>
<path d="M97.6669 89.5743C97.811 89.5743 97.928 89.4572 97.928 89.3127V77.3631C97.928 77.2187 97.811 77.1016 97.6669 77.1016C97.5227 77.1016 97.4058 77.2187 97.4058 77.3631V89.3127C97.4058 89.4572 97.5227 89.5743 97.6669 89.5743Z" fill="white"/>
<path d="M97.9299 90.828C97.9299 90.6835 97.813 90.5664 97.6688 90.5664C97.5247 90.5664 97.4077 90.6835 97.4077 90.828V91.9352C97.4077 92.0796 97.5247 92.1967 97.6688 92.1967C97.813 92.1967 97.9299 92.0796 97.9299 91.9352V90.828Z" fill="white"/>
<path d="M99.9945 94.3535C99.8503 94.3535 99.7334 94.4706 99.7334 94.6151V94.9649C99.7334 95.1093 99.8503 95.2264 99.9945 95.2264C100.139 95.2264 100.256 95.1093 100.256 94.9649V94.6151C100.257 94.4706 100.14 94.3535 99.9945 94.3535Z" fill="white"/>
<path d="M100.024 90.7694C100.024 90.625 99.9068 90.5078 99.7626 90.5078C99.6184 90.5078 99.5015 90.625 99.5015 90.7694V91.8766C99.5015 92.021 99.6184 92.1381 99.7626 92.1381C99.9068 92.1381 100.024 92.021 100.024 91.8766V90.7694Z" fill="white"/>
<path d="M100.985 86.7754C100.841 86.7754 100.724 86.8925 100.724 87.0369V88.6111C100.724 88.7555 100.841 88.8726 100.985 88.8726C101.129 88.8726 101.246 88.7555 101.246 88.6111V87.0369C101.246 86.8925 101.129 86.7754 100.985 86.7754Z" fill="white"/>
<path d="M100.985 91.498C100.841 91.498 100.724 91.6152 100.724 91.7596V92.809C100.724 92.9534 100.841 93.0706 100.985 93.0706C101.129 93.0706 101.246 92.9534 101.246 92.809V91.7596C101.246 91.6152 101.129 91.498 100.985 91.498Z" fill="white"/>
<path d="M101.159 95.5195C101.015 95.5195 100.898 95.6367 100.898 95.7811V96.1309C100.898 96.2753 101.015 96.3924 101.159 96.3924C101.303 96.3924 101.42 96.2753 101.42 96.1309V95.7811C101.42 95.6383 101.303 95.5195 101.159 95.5195Z" fill="white"/>
<path d="M102.265 90.7383C102.12 90.7383 102.003 90.8554 102.003 90.9998V92.574C102.003 92.7184 102.12 92.8355 102.265 92.8355C102.409 92.8355 102.526 92.7184 102.526 92.574V90.9998C102.527 90.857 102.409 90.7383 102.265 90.7383Z" fill="white"/>
<path d="M102.265 95.1699C102.12 95.1699 102.003 95.2871 102.003 95.4315V96.4809C102.003 96.6253 102.12 96.7425 102.265 96.7425C102.409 96.7425 102.526 96.6253 102.526 96.4809V95.4315C102.527 95.2887 102.409 95.1699 102.265 95.1699Z" fill="white"/>
<path d="M102.265 98.4355C102.12 98.4355 102.003 98.5527 102.003 98.6971V99.0469C102.003 99.1913 102.12 99.3085 102.265 99.3085C102.409 99.3085 102.526 99.1913 102.526 99.0469V98.6971C102.527 98.5527 102.409 98.4355 102.265 98.4355Z" fill="white"/>
<path d="M103.75 94.6151C103.75 94.4706 103.633 94.3535 103.489 94.3535C103.344 94.3535 103.228 94.4706 103.228 94.6151V94.9649C103.228 95.1093 103.344 95.2264 103.489 95.2264C103.633 95.2264 103.75 95.1093 103.75 94.9649V94.6151Z" fill="white"/>
<path d="M103.75 90.7694C103.75 90.625 103.633 90.5078 103.489 90.5078C103.344 90.5078 103.228 90.625 103.228 90.7694V91.8766C103.228 92.021 103.344 92.1381 103.489 92.1381C103.633 92.1381 103.75 92.021 103.75 91.8766V90.7694Z" fill="white"/>
<path d="M104.535 86.7754C104.39 86.7754 104.273 86.8925 104.273 87.0369V88.6111C104.273 88.7555 104.39 88.8726 104.535 88.8726C104.679 88.8726 104.796 88.7555 104.796 88.6111V87.0369C104.796 86.8925 104.679 86.7754 104.535 86.7754Z" fill="white"/>
<path d="M104.535 91.498C104.39 91.498 104.273 91.6152 104.273 91.7596V92.809C104.273 92.9534 104.39 93.0706 104.535 93.0706C104.679 93.0706 104.796 92.9534 104.796 92.809V91.7596C104.796 91.6152 104.679 91.498 104.535 91.498Z" fill="white"/>
<path d="M104.535 96.2188C104.39 96.2188 104.273 96.3359 104.273 96.4803V96.8301C104.273 96.9745 104.39 97.0917 104.535 97.0917C104.679 97.0917 104.796 96.9745 104.796 96.8301V96.4803C104.796 96.3359 104.679 96.2188 104.535 96.2188Z" fill="white"/>
<path d="M105.814 90.7383C105.67 90.7383 105.553 90.8554 105.553 90.9998V92.574C105.553 92.7184 105.67 92.8355 105.814 92.8355C105.959 92.8355 106.075 92.7184 106.075 92.574V90.9998C106.077 90.857 105.959 90.7383 105.814 90.7383Z" fill="white"/>
<path d="M105.814 95.1699C105.67 95.1699 105.553 95.2871 105.553 95.4315V96.4809C105.553 96.6253 105.67 96.7425 105.814 96.7425C105.959 96.7425 106.075 96.6253 106.075 96.4809V95.4315C106.077 95.2887 105.959 95.1699 105.814 95.1699Z" fill="white"/>
<path d="M105.814 98.4355C105.67 98.4355 105.553 98.5527 105.553 98.6971V99.0469C105.553 99.1913 105.67 99.3085 105.814 99.3085C105.959 99.3085 106.075 99.1913 106.075 99.0469V98.6971C106.077 98.5527 105.959 98.4355 105.814 98.4355Z" fill="white"/>
<path d="M98.7147 77.0977C98.5706 77.0977 98.4536 77.1618 98.4536 77.2421V83.8323C98.4536 83.9125 98.5706 83.9767 98.7147 83.9767C98.8589 83.9767 98.9758 83.9125 98.9758 83.8323V77.2421C98.9774 77.1634 98.8589 77.0977 98.7147 77.0977Z" fill="white"/>
<path d="M86.4058 87.2712C86.4058 87.4156 86.5227 87.5327 86.6669 87.5327C86.811 87.5327 86.928 87.4156 86.928 87.2712V85.5799C86.928 85.4355 86.811 85.3184 86.6669 85.3184C86.5227 85.3184 86.4058 85.4355 86.4058 85.5799V87.2712Z" fill="white"/>
<path d="M89.1708 87.7676C89.0266 87.7676 88.9097 87.8847 88.9097 88.0291V89.6033C88.9097 89.7477 89.0266 89.8648 89.1708 89.8648C89.315 89.8648 89.4319 89.7477 89.4319 89.6033V88.0291C89.4335 87.8847 89.315 87.7676 89.1708 87.7676Z" fill="white"/>
<path d="M107.037 82.1128C107.181 82.1128 107.298 81.9957 107.298 81.8513V80.16C107.298 80.0156 107.181 79.8984 107.037 79.8984C106.892 79.8984 106.775 80.0156 106.775 80.16V81.8513C106.775 81.9941 106.892 82.1128 107.037 82.1128Z" fill="white"/>
<path d="M107.095 84.1523C106.95 84.1523 106.833 84.2695 106.833 84.4139V85.5211C106.833 85.6655 106.95 85.7826 107.095 85.7826C107.239 85.7826 107.356 85.6655 107.356 85.5211V84.4139C107.357 84.2695 107.24 84.1523 107.095 84.1523Z" fill="white"/>
<path d="M107.095 86.4258C106.95 86.4258 106.833 86.5429 106.833 86.6873V87.6196C106.833 87.764 106.95 87.8812 107.095 87.8812C107.239 87.8812 107.356 87.764 107.356 87.6196V86.6873C107.357 86.5429 107.24 86.4258 107.095 86.4258Z" fill="white"/>
<path d="M107.095 88.9316C106.95 88.9316 106.833 89.0488 106.833 89.1932V89.543C106.833 89.6874 106.95 89.8046 107.095 89.8046C107.239 89.8046 107.356 89.6874 107.356 89.543V89.1932C107.357 89.0488 107.24 88.9316 107.095 88.9316Z" fill="white"/>
<path d="M110.433 80.0449C110.289 80.0449 110.172 80.1621 110.172 80.3065V81.9978C110.172 82.1422 110.289 82.2593 110.433 82.2593C110.577 82.2593 110.694 82.1422 110.694 81.9978V80.3065C110.694 80.1621 110.577 80.0449 110.433 80.0449Z" fill="white"/>
<path d="M110.433 84.3008C110.289 84.3008 110.172 84.4179 110.172 84.5623V85.6695C110.172 85.8139 110.289 85.9311 110.433 85.9311C110.577 85.9311 110.694 85.8139 110.694 85.6695V84.5623C110.694 84.4179 110.577 84.3008 110.433 84.3008Z" fill="white"/>
<path d="M110.433 86.5742C110.289 86.5742 110.172 86.6914 110.172 86.8358V87.7681C110.172 87.9125 110.289 88.0296 110.433 88.0296C110.577 88.0296 110.694 87.9125 110.694 87.7681V86.8358C110.694 86.6914 110.577 86.5742 110.433 86.5742Z" fill="white"/>
<path d="M110.433 89.0801C110.289 89.0801 110.172 89.1972 110.172 89.3416V89.6914C110.172 89.8359 110.289 89.953 110.433 89.953C110.577 89.953 110.694 89.8359 110.694 89.6914V89.3416C110.694 89.1972 110.577 89.0801 110.433 89.0801Z" fill="white"/>
<path d="M110.433 91.1191C110.289 91.1191 110.172 91.2363 110.172 91.3807V91.7305C110.172 91.8749 110.289 91.9921 110.433 91.9921C110.577 91.9921 110.694 91.8749 110.694 91.7305V91.3807C110.694 91.2363 110.577 91.1191 110.433 91.1191Z" fill="white"/>
<path d="M111.945 86.3984C111.801 86.3984 111.684 86.5156 111.684 86.66V88.3513C111.684 88.4957 111.801 88.6128 111.945 88.6128C112.089 88.6128 112.206 88.4957 112.206 88.3513V86.66C112.208 86.5156 112.091 86.3984 111.945 86.3984Z" fill="white"/>
<path d="M111.945 90.5371C111.801 90.5371 111.684 90.6542 111.684 90.7987V91.9652C111.684 92.1096 111.801 92.2268 111.945 92.2268C112.089 92.2268 112.206 92.1096 112.206 91.9652V90.7987C112.208 90.6542 112.091 90.5371 111.945 90.5371Z" fill="white"/>
<path d="M111.945 93.918C111.801 93.918 111.684 94.0351 111.684 94.1795V94.5293C111.684 94.6737 111.801 94.7909 111.945 94.7909C112.089 94.7909 112.206 94.6737 112.206 94.5293V94.1795C112.208 94.0351 112.091 93.918 111.945 93.918Z" fill="white"/>
<path d="M113.226 81.6758C113.082 81.6758 112.965 81.7929 112.965 81.9373V83.6286C112.965 83.773 113.082 83.8902 113.226 83.8902C113.371 83.8902 113.488 83.773 113.488 83.6286V81.9373C113.488 81.7929 113.371 81.6758 113.226 81.6758Z" fill="white"/>
<path d="M113.226 85.6406C113.082 85.6406 112.965 85.7578 112.965 85.9022V87.0687C112.965 87.2132 113.082 87.3303 113.226 87.3303C113.371 87.3303 113.488 87.2132 113.488 87.0687V85.9022C113.488 85.7578 113.371 85.6406 113.226 85.6406Z" fill="white"/>
<path d="M113.226 90.5371C113.082 90.5371 112.965 90.6542 112.965 90.7987V91.1485C112.965 91.2929 113.082 91.41 113.226 91.41C113.371 91.41 113.488 91.2929 113.488 91.1485V90.7987C113.488 90.6542 113.371 90.5371 113.226 90.5371Z" fill="white"/>
<path d="M111.945 95.375C111.801 95.375 111.684 95.4921 111.684 95.6366V95.9864C111.684 96.1308 111.801 96.2479 111.945 96.2479C112.089 96.2479 112.206 96.1308 112.206 95.9864V95.6366C112.208 95.4921 112.091 95.375 111.945 95.375Z" fill="white"/>
<path d="M115.961 91.9941C115.817 91.9941 115.7 92.1113 115.7 92.2557V92.6055C115.7 92.7499 115.817 92.8671 115.961 92.8671C116.105 92.8671 116.222 92.7499 116.222 92.6055V92.2557C116.224 92.1113 116.105 91.9941 115.961 91.9941Z" fill="white"/>
<path d="M114.623 92.6367C114.479 92.6367 114.362 92.7539 114.362 92.8983V93.2481C114.362 93.3925 114.479 93.5096 114.623 93.5096C114.768 93.5096 114.885 93.3925 114.885 93.2481V92.8983C114.885 92.7539 114.768 92.6367 114.623 92.6367Z" fill="white"/>
<path d="M114.623 88.0312C114.479 88.0312 114.362 88.1484 114.362 88.2928V89.4594C114.362 89.6038 114.479 89.7209 114.623 89.7209C114.768 89.7209 114.885 89.6038 114.885 89.4594V88.2928C114.885 88.1484 114.768 88.0312 114.623 88.0312Z" fill="white"/>
<path d="M114.767 85.6677V84.0936C114.767 83.9492 114.65 83.832 114.506 83.832C114.362 83.832 114.245 83.9492 114.245 84.0936V85.6677C114.245 85.8121 114.362 85.9293 114.506 85.9293C114.65 85.9293 114.767 85.8137 114.767 85.6677Z" fill="white"/>
<path d="M115.846 85.1754C115.99 85.1754 116.107 85.0582 116.107 84.9138V83.3397C116.107 83.1953 115.99 83.0781 115.846 83.0781C115.701 83.0781 115.584 83.1953 115.584 83.3397V84.9138C115.583 85.0566 115.7 85.1754 115.846 85.1754Z" fill="white"/>
<path d="M116.107 88.4681V87.4764C116.107 87.332 115.99 87.2148 115.846 87.2148C115.701 87.2148 115.584 87.332 115.584 87.4764V88.4681C115.584 88.6125 115.701 88.7296 115.846 88.7296C115.99 88.7296 116.107 88.6141 116.107 88.4681Z" fill="white"/>
<path d="M117.066 88.0312C116.922 88.0312 116.805 88.1484 116.805 88.2928V89.6343C116.805 89.7787 116.922 89.8958 117.066 89.8958C117.21 89.8958 117.327 89.7787 117.327 89.6343V88.2928C117.329 88.1484 117.212 88.0312 117.066 88.0312Z" fill="white"/>
<path d="M117.066 92.2266C116.922 92.2266 116.805 92.3437 116.805 92.4881V93.4798C116.805 93.6242 116.922 93.7413 117.066 93.7413C117.21 93.7413 117.327 93.6242 117.327 93.4798V92.4881C117.329 92.3453 117.212 92.2266 117.066 92.2266Z" fill="white"/>
<path d="M118.406 86.3398C118.261 86.3398 118.145 86.457 118.145 86.6014V88.1755C118.145 88.32 118.261 88.4371 118.406 88.4371C118.55 88.4371 118.667 88.32 118.667 88.1755V86.6014C118.668 86.457 118.55 86.3398 118.406 86.3398Z" fill="white"/>
<path d="M118.406 90.8867C118.261 90.8867 118.145 91.0039 118.145 91.1483V92.1977C118.145 92.3421 118.261 92.4592 118.406 92.4592C118.55 92.4592 118.667 92.3421 118.667 92.1977V91.1483C118.668 91.0039 118.55 90.8867 118.406 90.8867Z" fill="white"/>
<path d="M118.406 95.7246C118.261 95.7246 118.145 95.8417 118.145 95.9862V96.336C118.145 96.4804 118.261 96.5975 118.406 96.5975C118.55 96.5975 118.667 96.4804 118.667 96.336V95.9862C118.668 95.8417 118.55 95.7246 118.406 95.7246Z" fill="white"/>
<path d="M117.066 96.832C116.922 96.832 116.805 96.9492 116.805 97.0936V97.4434C116.805 97.5878 116.922 97.7049 117.066 97.7049C117.21 97.7049 117.327 97.5878 117.327 97.4434V97.0936C117.329 96.9508 117.212 96.832 117.066 96.832Z" fill="white"/>
<path d="M136.534 80.0449C136.395 80.0449 136.281 80.1588 136.281 80.2985V82.0058C136.281 82.1454 136.395 82.2593 136.534 82.2593C136.674 82.2593 136.787 82.1454 136.787 82.0058V80.2985C136.787 80.1588 136.674 80.0449 136.534 80.0449Z" fill="white"/>
<path d="M136.534 84.3008C136.395 84.3008 136.281 84.4147 136.281 84.5543V85.6792C136.281 85.8188 136.395 85.9327 136.534 85.9327C136.674 85.9327 136.787 85.8188 136.787 85.6792V84.5543C136.787 84.4147 136.674 84.3008 136.534 84.3008Z" fill="white"/>
<path d="M136.534 86.5742C136.395 86.5742 136.281 86.6881 136.281 86.8278V87.7777C136.281 87.9173 136.395 88.0312 136.534 88.0312C136.674 88.0312 136.787 87.9173 136.787 87.7777V86.8278C136.787 86.6865 136.674 86.5742 136.534 86.5742Z" fill="white"/>
<path d="M136.534 89.0801C136.395 89.0801 136.281 89.194 136.281 89.3336V89.6995C136.281 89.8391 136.395 89.953 136.534 89.953C136.674 89.953 136.787 89.8391 136.787 89.6995V89.3336C136.787 89.194 136.674 89.0801 136.534 89.0801Z" fill="white"/>
<path d="M136.534 91.1191C136.395 91.1191 136.281 91.2331 136.281 91.3727V91.7385C136.281 91.8781 136.395 91.9921 136.534 91.9921C136.674 91.9921 136.787 91.8781 136.787 91.7385V91.3727C136.787 91.2331 136.674 91.1191 136.534 91.1191Z" fill="white"/>
<path d="M137.999 86.3984C137.859 86.3984 137.746 86.5124 137.746 86.652V88.3593C137.746 88.4989 137.859 88.6128 137.999 88.6128C138.138 88.6128 138.252 88.4989 138.252 88.3593V86.652C138.253 86.5108 138.14 86.3984 137.999 86.3984Z" fill="white"/>
<path d="M137.999 90.5371C137.859 90.5371 137.746 90.651 137.746 90.7906V91.9733C137.746 92.1129 137.859 92.2268 137.999 92.2268C138.138 92.2268 138.252 92.1129 138.252 91.9733V90.7906C138.253 90.651 138.14 90.5371 137.999 90.5371Z" fill="white"/>
<path d="M137.999 93.918C137.859 93.918 137.746 94.0319 137.746 94.1715V94.5374C137.746 94.677 137.859 94.7909 137.999 94.7909C138.138 94.7909 138.252 94.677 138.252 94.5374V94.1715C138.253 94.0319 138.14 93.918 137.999 93.918Z" fill="white"/>
<path d="M144.37 41.1895H136.318V57.5165H118.262V41.1895H110.21L110.172 79.0778C110.172 79.2223 110.289 79.3394 110.433 79.3394C110.577 79.3394 110.694 79.2223 110.694 79.0778V67.539H111.684V85.3776C111.684 85.522 111.801 85.6391 111.945 85.6391C112.089 85.6391 112.206 85.522 112.206 85.3776V67.5374H112.962V80.7707C112.962 80.9151 113.079 81.0323 113.224 81.0323C113.368 81.0323 113.485 80.9151 113.485 80.7707V67.5374H114.241V82.754C114.241 82.8984 114.358 83.0156 114.502 83.0156C114.646 83.0156 114.763 82.8984 114.763 82.754V67.5374H115.578V82.2293C115.578 82.3737 115.695 82.4909 115.839 82.4909C115.984 82.4909 116.101 82.3737 116.101 82.2293V67.5374H116.799V87.0095C116.799 87.1539 116.916 87.2711 117.06 87.2711C117.204 87.2711 117.321 87.1539 117.321 87.0095V67.5374H118.137V85.0856C118.137 85.23 118.254 85.3471 118.398 85.3471C118.542 85.3471 118.659 85.23 118.659 85.0856V65.4401L136.31 65.469L136.272 79.0875C136.272 79.2271 136.386 79.341 136.525 79.341C136.664 79.341 136.778 79.2271 136.778 79.0875V67.531H137.736V85.3872C137.736 85.5268 137.85 85.6408 137.989 85.6408C138.129 85.6408 138.242 85.5268 138.242 85.3872V67.5294H138.974V80.7803C138.974 80.92 139.088 81.0339 139.227 81.0339C139.367 81.0339 139.481 80.92 139.481 80.7803V67.5294H140.213V82.7637C140.213 82.9033 140.326 83.0172 140.466 83.0172C140.605 83.0172 140.719 82.9033 140.719 82.7637V67.5294H141.507V82.239C141.507 82.3786 141.621 82.4925 141.76 82.4925C141.899 82.4925 142.013 82.3786 142.013 82.239V67.5294H142.689V87.0191C142.689 87.1587 142.803 87.2727 142.942 87.2727C143.082 87.2727 143.195 87.1587 143.195 87.0191V67.5294H143.984V85.0952C143.984 85.2348 144.097 85.3487 144.237 85.3487C144.376 85.3487 144.49 85.2348 144.49 85.0952L144.37 41.1895Z" fill="white"/>
<path d="M139.238 81.6758C139.099 81.6758 138.985 81.7897 138.985 81.9293V83.6366C138.985 83.7762 139.099 83.8902 139.238 83.8902C139.378 83.8902 139.492 83.7762 139.492 83.6366V81.9293C139.492 81.7897 139.378 81.6758 139.238 81.6758Z" fill="white"/>
<path d="M139.238 85.6406C139.099 85.6406 138.985 85.7546 138.985 85.8942V87.0768C138.985 87.2164 139.099 87.3303 139.238 87.3303C139.378 87.3303 139.492 87.2164 139.492 87.0768V85.8942C139.492 85.7546 139.378 85.6406 139.238 85.6406Z" fill="white"/>
<path d="M139.238 90.5371C139.099 90.5371 138.985 90.651 138.985 90.7906V91.1565C138.985 91.2961 139.099 91.41 139.238 91.41C139.378 91.41 139.492 91.2961 139.492 91.1565V90.7906C139.492 90.651 139.378 90.5371 139.238 90.5371Z" fill="white"/>
<path d="M137.999 95.375C137.859 95.375 137.746 95.4889 137.746 95.6285V95.9944C137.746 96.134 137.859 96.2479 137.999 96.2479C138.138 96.2479 138.252 96.134 138.252 95.9944V95.6285C138.253 95.4889 138.14 95.375 137.999 95.375Z" fill="white"/>
<path d="M141.886 91.9941C141.747 91.9941 141.633 92.1081 141.633 92.2477V92.6135C141.633 92.7531 141.747 92.8671 141.886 92.8671C142.026 92.8671 142.14 92.7531 142.14 92.6135V92.2477C142.14 92.1081 142.027 91.9941 141.886 91.9941Z" fill="white"/>
<path d="M140.591 92.6367C140.451 92.6367 140.337 92.7506 140.337 92.8903V93.2561C140.337 93.3957 140.451 93.5096 140.591 93.5096C140.73 93.5096 140.844 93.3957 140.844 93.2561V92.8903C140.844 92.7506 140.731 92.6367 140.591 92.6367Z" fill="white"/>
<path d="M140.591 88.0312C140.451 88.0312 140.337 88.1452 140.337 88.2848V89.4674C140.337 89.607 140.451 89.7209 140.591 89.7209C140.73 89.7209 140.844 89.607 140.844 89.4674V88.2848C140.844 88.1452 140.731 88.0312 140.591 88.0312Z" fill="white"/>
<path d="M140.731 85.6777V84.0875C140.731 83.9479 140.618 83.834 140.478 83.834C140.339 83.834 140.225 83.9479 140.225 84.0875V85.6777C140.225 85.8173 140.339 85.9312 140.478 85.9312C140.618 85.9312 140.731 85.8173 140.731 85.6777Z" fill="white"/>
<path d="M141.774 85.1754C141.913 85.1754 142.027 85.0614 142.027 84.9218V83.3317C142.027 83.1921 141.913 83.0781 141.774 83.0781C141.635 83.0781 141.521 83.1921 141.521 83.3317V84.9218C141.519 85.0614 141.633 85.1754 141.774 85.1754Z" fill="white"/>
<path d="M141.774 88.7296C141.913 88.7296 142.027 88.6157 142.027 88.4761V87.4684C142.027 87.3288 141.913 87.2148 141.774 87.2148C141.635 87.2148 141.521 87.3288 141.521 87.4684V88.4761C141.519 88.6157 141.633 88.7296 141.774 88.7296Z" fill="white"/>
<path d="M142.956 88.0312C142.817 88.0312 142.703 88.1452 142.703 88.2848V89.6423C142.703 89.7819 142.817 89.8958 142.956 89.8958C143.096 89.8958 143.209 89.7819 143.209 89.6423V88.2848C143.211 88.1452 143.097 88.0312 142.956 88.0312Z" fill="white"/>
<path d="M142.956 92.2266C142.817 92.2266 142.703 92.3405 142.703 92.4801V93.4878C142.703 93.6274 142.817 93.7413 142.956 93.7413C143.096 93.7413 143.209 93.6274 143.209 93.4878V92.4801C143.211 92.3405 143.097 92.2266 142.956 92.2266Z" fill="white"/>
<path d="M144.253 86.3398C144.113 86.3398 144 86.4538 144 86.5934V88.1836C144 88.3232 144.113 88.4371 144.253 88.4371C144.392 88.4371 144.506 88.3232 144.506 88.1836V86.5934C144.507 86.4538 144.394 86.3398 144.253 86.3398Z" fill="white"/>
<path d="M144.253 90.8867C144.113 90.8867 144 91.0006 144 91.1403V92.2057C144 92.3453 144.113 92.4592 144.253 92.4592C144.392 92.4592 144.506 92.3453 144.506 92.2057V91.1403C144.507 91.0006 144.394 90.8867 144.253 90.8867Z" fill="white"/>
<path d="M144.253 95.7246C144.113 95.7246 144 95.8385 144 95.9781V96.344C144 96.4836 144.113 96.5975 144.253 96.5975C144.392 96.5975 144.506 96.4836 144.506 96.344V95.9781C144.507 95.8385 144.394 95.7246 144.253 95.7246Z" fill="white"/>
<path d="M142.956 96.832C142.817 96.832 142.703 96.946 142.703 97.0856V97.4514C142.703 97.591 142.817 97.7049 142.956 97.7049C143.096 97.7049 143.209 97.591 143.209 97.4514V97.0856C143.211 96.946 143.097 96.832 142.956 96.832Z" fill="white"/>
<path d="M98.4536 87.0114C98.4536 87.1558 98.5706 87.273 98.7147 87.273C98.8589 87.273 98.9758 87.1558 98.9758 87.0114V85.3201C98.9758 85.1757 98.8589 85.0586 98.7147 85.0586C98.5706 85.0586 98.4536 85.1757 98.4536 85.3201V87.0114Z" fill="white"/>
<path d="M98.9773 90.3358C98.9773 90.1914 98.8604 90.0742 98.7162 90.0742C98.572 90.0742 98.4551 90.1914 98.4551 90.3358V91.443C98.4551 91.5874 98.572 91.7045 98.7162 91.7045C98.8604 91.7045 98.9773 91.5874 98.9773 91.443V90.3358Z" fill="white"/>
<path d="M97.6669 93.248C97.5227 93.248 97.4058 93.3652 97.4058 93.5096V93.8594C97.4058 94.0038 97.5227 94.121 97.6669 94.121C97.811 94.121 97.928 94.0038 97.928 93.8594V93.5096C97.9296 93.3652 97.811 93.248 97.6669 93.248Z" fill="white"/>
<path d="M85.7073 89.5716V88.5799C85.7073 88.4355 85.5903 88.3184 85.4462 88.3184C85.302 88.3184 85.1851 88.4355 85.1851 88.5799V89.5716C85.1851 89.716 85.302 89.8331 85.4462 89.8331C85.5903 89.8331 85.7073 89.716 85.7073 89.5716Z" fill="white"/>
<path d="M85.4462 91.4375C85.302 91.4375 85.1851 91.5546 85.1851 91.6991V92.7485C85.1851 92.8929 85.302 93.01 85.4462 93.01C85.5903 93.01 85.7073 92.8929 85.7073 92.7485V91.6991C85.7073 91.5546 85.5903 91.4375 85.4462 91.4375Z" fill="white"/>
<path d="M85.4462 94.7598C85.302 94.7598 85.1851 94.8769 85.1851 95.0213V95.3711C85.1851 95.5155 85.302 95.6327 85.4462 95.6327C85.5903 95.6327 85.7073 95.5155 85.7073 95.3711V95.0213C85.7073 94.8769 85.5903 94.7598 85.4462 94.7598Z" fill="white"/>
</svg>
