<svg width="220" height="134" viewBox="0 0 220 134" fill="none" xmlns="http://www.w3.org/2000/svg">
<g clip-path="url(#clip0_108767_4824)">
<path d="M42.1379 68.8119C42.0233 69.9377 41.5491 70.7968 40.7333 71.4252C39.9175 72.0356 38.8926 72.2843 37.6408 72.1509C36.389 72.0175 34.7394 71.007 34 69.7863L34.3596 69.3861C35.3844 70.8555 36.162 71.4275 37.5262 71.6558C38.4364 71.7892 39.1758 71.5789 39.7467 71.1019C40.2973 70.643 40.6187 70.0711 40.6748 69.4223C40.7513 68.7735 40.5984 68.2016 40.2006 67.7042C39.8028 67.2272 39.0432 66.6734 37.924 66.0449C36.9374 65.473 36.198 64.996 35.6856 64.5959C35.1934 64.1957 34.8315 63.7187 34.5866 63.1468C34.3596 62.5749 34.2652 61.9826 34.3394 61.3722C34.4338 60.4363 34.8315 59.6926 35.553 59.141C36.2542 58.5871 37.1082 58.3769 38.0948 58.4741C38.6454 58.5306 39.1376 58.6843 39.6118 58.9126C40.086 59.141 40.54 59.5795 40.9962 60.1899L40.5782 60.5335C40.4636 60.3617 40.331 60.1899 40.1984 60.0384C39.6478 59.3896 38.9646 59.0279 38.1487 58.9511C37.3711 58.8561 36.7823 59.0076 36.3845 59.3896C35.9665 59.7717 35.7395 60.2102 35.6833 60.7257C35.6271 61.3179 35.7979 61.8515 36.2137 62.3284C36.6115 62.8054 37.3711 63.3593 38.4904 64.0262C39.5534 64.6366 40.3108 65.1339 40.785 65.4956C41.2772 65.8573 41.639 66.3162 41.884 66.8881C42.1379 67.4759 42.2143 68.1066 42.1379 68.8119Z" fill="#58595B"/>
<path d="M49.6309 60.2655C50.9973 59.0244 52.2289 58.4141 54.2786 58.4141C56.326 58.4141 57.598 59.0244 58.9645 60.2452C60.3489 61.4659 61.0321 63.1456 61.0321 65.2638C61.0321 67.3232 60.3691 68.9848 59.0588 70.2439C57.7306 71.5212 56.4608 72.1519 54.2988 72.1519C52.2132 72.1519 50.9412 71.5212 49.5949 70.2439C48.2667 68.9848 47.5835 67.287 47.5835 65.1869C47.5813 63.1456 48.2645 61.5066 49.6309 60.2655ZM51.0715 70.054C51.9255 71.1233 52.7413 71.6568 54.4292 71.6568C55.9282 71.6568 56.8766 71.1233 57.7284 70.054C58.5824 68.9848 58.7914 67.4023 58.7914 65.2841C58.7914 63.2247 58.6026 61.64 57.7486 60.5526C56.8946 59.4449 55.89 58.9114 54.2786 58.9114C52.7054 58.9114 51.9255 59.4449 51.0738 60.5142C50.24 61.5835 49.8219 63.1659 49.8219 65.2638C49.8197 67.4023 50.2377 68.9848 51.0715 70.054Z" fill="#58595B"/>
<path d="M66.4912 72.1519V68.6796V67.7075V66.8869V61.8502V58.4141H74.4583V58.873H70.2669H68.4644V61.8683V62.2684V64.6918H69.8309H72.4109V65.1688H69.8893H68.4667V66.8869V67.2102V67.7052V68.6592V72.1496H66.4912V72.1519Z" fill="#58595B"/>
<path d="M90.4642 58.873H87.0122H84.7737V68.5281V72.1542H82.8005V68.5281V58.873H80.8093H77.1685L77.1864 58.4141H90.4642V58.873Z" fill="#58595B"/>
<path d="M125.578 58.4141V61.8299V68.5846V72.1519H123.605V68.5846V61.8299V58.4141H125.578Z" fill="#58595B"/>
<path d="M142.895 71.693V72.1519H133.393V68.6231V61.8683V58.4141H135.366V71.693H142.895Z" fill="#58595B"/>
<path d="M158.042 58.4141L156.26 62.6686L152.295 72.1519H151.668L147.079 61.5247L146.926 61.2376C146.85 61.0658 146.776 60.8375 146.661 60.5707C146.585 60.3424 146.49 60.1502 146.396 59.9784L145.733 58.4141H147.724L148.9 61.0273L152.731 69.9568L155.804 62.5352C155.992 62.0966 156.145 61.6965 156.26 61.3529L157.417 58.4141H158.042Z" fill="#58595B"/>
<path d="M167.068 71.6749H171.259V72.1519H163.331V68.6231V67.6691V66.8485V61.8118V58.4141H171.298V58.873H167.106H165.286V61.8299V62.23V64.6918H166.67H169.23V65.1688H166.726H165.286V66.8485V67.1536V67.6691V68.6231V71.6749H167.068Z" fill="#58595B"/>
<path d="M179.038 58.4141C180.328 58.4141 181.371 58.4909 182.169 58.7396C182.964 58.9679 183.629 59.3115 184.122 59.8473C184.614 60.4012 184.861 61.05 184.861 61.8118C184.861 62.6889 184.54 63.4711 183.895 64.0815C183.232 64.7099 182.283 65.2072 181.031 65.3791C181.582 65.6458 182.492 66.0098 183.744 67.7075C183.744 67.7075 184.749 69.082 186 72.1519H184.445C184.295 71.5212 182.283 65.6277 178.584 65.6277H177.995V68.5078V72.1519H176.06V68.5078V61.8683V58.4141H179.038ZM179.586 65.1688C180.117 65.1688 180.573 64.9789 180.953 64.8636C181.35 64.7483 181.674 64.4816 181.901 64.2533C182.148 64.0249 182.337 63.7198 182.47 63.3558C182.623 62.9738 182.679 62.5352 182.679 62.0017C182.679 61.0477 182.452 60.322 181.978 59.7501C181.503 59.1782 180.422 58.986 178.849 58.986H177.995V65.1666H179.586V65.1688Z" fill="#58595B"/>
<path d="M128.118 64.8639C127.562 64.5429 126.263 64.1405 124.657 64.1179C121.458 64.0726 117.346 64.7508 114.844 65.3567C113.606 62.9062 110.92 60.2409 109.466 58.7963C105.688 55.0414 105.063 52.4169 105.758 50.319C107.091 46.2996 113.087 45.2574 117.049 49.4215C117.858 50.2738 118.784 51.2707 119.128 52.6497C119.458 53.9744 119.494 55.4212 119.155 56.6239C118.815 57.8265 118.335 58.7918 118.33 59.1693C118.326 59.5921 118.923 59.9199 119.269 59.2168C120.888 55.914 120.719 51.906 117.265 48.8338C112.039 44.1882 105.403 45.6124 104.497 50.5089C104.102 52.6407 105.297 55.2381 108.12 58.2221C110.758 61.0118 113.125 63.7652 113.799 65.6099C111.446 66.2361 109.08 67.0318 106.893 67.9248C106.884 65.6958 105.884 64.0659 104.052 63.0373C102.007 61.8889 99.1842 61.4639 95.3007 61.8052C92.2397 62.0743 88.5764 63.2543 85.5468 65.0583C79.7462 68.5125 75.3368 74.3359 77.4134 80.8171C81.1734 92.543 103.106 88.8695 110.86 81.6626C115.321 77.5166 116.42 72.8914 116.004 69.1523C115.883 68.0604 115.321 66.3943 115.085 65.8698C122.054 64.3597 125.385 64.7961 127.174 65.2979C127.628 65.4245 127.735 65.4833 127.684 65.7659C127.652 65.9354 127.335 66.001 127.488 66.1637C127.619 66.3016 128.295 65.9671 128.421 65.6099C128.547 65.2482 128.464 65.0651 128.118 64.8639ZM112.837 76.6417C107.781 84.251 98.456 87.1469 89.8507 87.2396C83.6747 87.3051 78.0202 84.3324 78.0719 77.7879C78.0045 73.6532 80.3598 69.41 84.0748 66.6905C90.1451 62.2438 96.3794 62.1285 98.6943 62.2438C103.517 62.4857 106.688 64.9 106.333 68.1599C100.47 70.6285 96.067 73.7527 97.0649 75.9997C98.5841 79.4246 106.198 72.4618 106.848 68.4944C109.399 67.4184 112.024 66.6181 114.006 66.1276C114.981 68.716 115.359 72.8461 112.837 76.6417ZM106.228 68.7567C105.744 70.8229 103.895 73.1536 100.258 75.4007C98.7415 76.3388 97.9886 75.6787 98.5999 74.4625C99.8405 72.1476 102.919 70.2193 106.228 68.7567Z" fill="#58595B"/>
</g>
<defs>
<clipPath id="clip0_108767_4824">
<rect width="220" height="134" fill="white"/>
</clipPath>
</defs>
</svg>
