<svg width="220" height="134" viewBox="0 0 220 134" fill="none" xmlns="http://www.w3.org/2000/svg">
<path d="M59.9109 60.0355C61.8178 60.1211 63.4923 61.7816 63.5721 63.6612L63.6692 65.938L63.7801 68.5401L66.415 68.6531L68.7171 68.7523H68.724C70.6274 68.8379 72.302 70.4985 72.3817 72.3781C72.4233 73.371 71.9137 74.4905 71.0157 75.3704C70.1212 76.2504 68.9875 76.7502 67.9856 76.7091L55.3033 76.8255L55.5182 64.3631C55.4766 63.3736 55.9863 62.2541 56.8808 61.3742C57.7753 60.4908 58.9124 59.991 59.9109 60.0355ZM60.0392 57.2006H60.0357C56.2151 57.0363 52.4846 60.71 52.6406 64.4829L52.5366 79.5474H67.8503C71.671 79.7152 75.4015 76.0381 75.2455 72.2651C75.1033 68.9133 72.2396 66.075 68.8454 65.9209C68.8419 65.9209 68.8419 65.9209 68.8384 65.9209L66.5329 65.8216L66.4427 63.5448C66.3006 60.193 63.4369 57.3547 60.0392 57.2006Z" fill="#0099A8"/>
<path d="M51.5347 57.2486H51.5381C52.6822 57.2007 53.9789 57.7724 55.0017 58.779C56.0244 59.7856 56.6069 61.0627 56.5583 62.1959L56.801 76.4421L42.309 76.3086C41.1614 76.36 39.8682 75.7882 38.8454 74.7816C37.8227 73.775 37.2402 72.4946 37.2853 71.3613C37.3754 69.2146 39.2892 67.3144 41.4665 67.2186H41.4734L44.1049 67.1056L47.1142 66.9755L47.239 64.0037L47.35 61.4016C47.4401 59.2412 49.3574 57.3445 51.5347 57.2486ZM51.3856 54.0097C47.506 54.1844 44.2297 57.4266 44.0702 61.2578L43.9593 63.8599L41.3243 63.9728C41.3209 63.9728 41.3209 63.9728 41.3174 63.9728C37.4378 64.1475 34.165 67.3897 34.0055 71.2209C33.8252 75.5314 38.0931 79.7324 42.4546 79.5406L59.956 79.544L59.8381 62.326C60.0184 58.0155 55.754 53.8146 51.389 54.0063C51.389 54.0097 51.389 54.0097 51.3856 54.0097Z" fill="#0099A8"/>
<path d="M86.0694 76.3471C83.8574 76.3471 81.9748 75.5597 80.4216 73.9813C78.8684 72.403 78.0918 70.5199 78.0918 68.3356C78.0918 66.2128 78.8684 64.3606 80.4216 62.7822C81.9748 61.2347 83.8574 60.4609 86.0694 60.4609C88.2986 60.4609 90.1812 61.2347 91.7171 62.7822C93.2703 64.3606 94.0469 66.2128 94.0469 68.3356C94.0469 70.5199 93.2703 72.403 91.7171 73.9813C90.1639 75.5597 88.2813 76.3471 86.0694 76.3471ZM86.0694 62.6658C84.4849 62.6658 83.1328 63.2205 82.013 64.3263C80.8897 65.4356 80.3315 66.7709 80.3315 68.3321C80.3315 69.9721 80.8931 71.345 82.013 72.4509C83.1501 73.5739 84.5023 74.1354 86.0694 74.1354C87.6364 74.1354 88.9886 73.5739 90.1257 72.4509C91.2629 71.2834 91.8315 69.9105 91.8315 68.3321C91.8315 66.7846 91.2629 65.4493 90.1257 64.3263C89.0024 63.2205 87.6503 62.6658 86.0694 62.6658Z" fill="#0099A8"/>
<path d="M97.677 76.3472C97.3545 76.3472 97.0841 76.241 96.8692 76.0288C96.6403 75.8028 96.5225 75.5289 96.5225 75.2105V61.5052C96.5363 61.2313 96.6542 60.9882 96.8692 60.776C97.0841 60.55 97.3545 60.4336 97.677 60.4336H105.7C106.008 60.4336 106.275 60.5466 106.507 60.776C106.736 60.9745 106.854 61.2382 106.854 61.5737C106.854 61.8921 106.74 62.166 106.507 62.392C106.247 62.6042 105.977 62.7104 105.7 62.7104H98.8315V67.216C101.442 67.216 102.756 67.2229 102.773 67.24C104.049 67.377 105.103 67.8768 105.932 68.743C106.76 69.6092 107.177 70.6329 107.177 71.8175C107.177 73.0159 106.74 74.0635 105.863 74.9605C105.017 75.8405 103.956 76.3027 102.68 76.3506H97.677V76.3472ZM98.8315 69.4963V74.0704H102.496C103.186 74.0704 103.748 73.8581 104.178 73.4336C104.625 72.9919 104.861 72.4544 104.892 71.8175C104.861 71.1636 104.621 70.6192 104.178 70.1776C103.716 69.7222 103.155 69.4963 102.496 69.4963H98.8315Z" fill="#0099A8"/>
<path d="M124.272 75.2319C124.272 75.5503 124.158 75.8174 123.926 76.0297C123.693 76.2556 123.427 76.372 123.118 76.372C122.796 76.372 122.525 76.259 122.31 76.0297C122.078 75.8174 121.963 75.5503 121.963 75.2319V62.7592H114.842V71.8184C114.811 73.0921 114.35 74.1706 113.459 75.0505C112.505 75.9475 111.393 76.3926 110.117 76.3926C109.472 76.3926 109.149 76.0125 109.149 75.2559C109.149 74.5129 109.472 74.1397 110.117 74.1397C110.793 74.1397 111.361 73.9035 111.822 73.4345C112.297 72.9791 112.537 72.4244 112.537 71.7739V61.5986C112.537 61.3247 112.644 61.061 112.859 60.8008C113.091 60.6194 113.306 60.5201 113.504 60.5064C113.518 60.4927 113.58 60.4824 113.688 60.4824H123.114C123.423 60.4824 123.69 60.5954 123.922 60.8248C124.151 61.0542 124.269 61.3178 124.269 61.6225V75.2319H124.272Z" fill="#0099A8"/>
<path d="M135.852 73.209H130.228L129.261 75.5303C129.154 76.0781 128.786 76.3486 128.155 76.3486H127.902C127.562 76.2116 127.326 75.9925 127.188 75.6878C127.035 75.52 126.994 75.2393 127.073 74.8456L132.007 61.2773C132.177 60.7295 132.551 60.459 133.137 60.459C133.706 60.459 134.066 60.7329 134.219 61.2773L138.899 74.8456C139.007 75.1195 139.007 75.4002 138.899 75.6878C138.792 75.9617 138.56 76.1808 138.209 76.3486C138.008 76.4102 137.724 76.3726 137.356 76.2356C137.048 76.0678 136.826 75.835 136.687 75.5303L135.852 73.209ZM135.158 70.9083L133.13 65.081L131.057 70.9083H135.158Z" fill="#0099A8"/>
<path d="M139.624 61.6181C139.624 61.3305 139.732 61.0566 139.947 60.7999C140.207 60.5876 140.484 60.4815 140.775 60.4815C141.066 60.4815 141.344 60.5876 141.604 60.7999C141.819 61.0566 141.926 61.3305 141.926 61.6181V64.1209C141.926 65.0761 142.273 65.8876 142.963 66.5552C143.639 67.2365 144.461 67.5789 145.428 67.5789C146.381 67.5789 147.203 67.2365 147.893 66.5552C148.462 65.9937 148.791 65.3261 148.885 64.5523V61.6147C148.885 61.4333 148.916 61.2895 148.978 61.1833C149.072 61.0019 149.155 60.8718 149.231 60.7964C149.308 60.7211 149.394 60.6595 149.484 60.615L149.623 60.5465C149.654 60.5465 149.675 60.5397 149.692 60.5225L149.876 60.4986L150.039 60.4746C150.33 60.4746 150.608 60.5807 150.868 60.793C151.083 61.0498 151.19 61.3237 151.19 61.6113V75.2241C151.19 75.5425 151.076 75.8096 150.843 76.0218C150.615 76.2478 150.344 76.3642 150.036 76.3642C149.713 76.3642 149.443 76.2512 149.228 76.0218C148.999 75.8096 148.881 75.5425 148.881 75.2241V68.6984C147.883 69.4585 146.728 69.8351 145.424 69.8351C143.826 69.8351 142.467 69.2805 141.344 68.1746C140.193 67.0516 139.614 65.7027 139.614 64.1209V61.6181H139.624Z" fill="#0099A8"/>
<path d="M158.865 69.4518L157.437 70.9309V75.303C157.437 75.6214 157.33 75.8885 157.115 76.1007C156.886 76.3267 156.608 76.4431 156.286 76.4431C155.977 76.4431 155.71 76.3301 155.478 76.1007C155.263 75.8885 155.156 75.6214 155.156 75.303V61.5293C155.156 61.2417 155.263 60.9678 155.478 60.711C155.738 60.4987 156.009 60.3926 156.286 60.3926C156.577 60.3926 156.855 60.4987 157.115 60.711C157.33 60.9678 157.437 61.2417 157.437 61.5293V67.6989L163.823 60.9609C164.007 60.7178 164.253 60.574 164.562 60.5295C164.884 60.485 165.168 60.5603 165.415 60.7555C165.661 60.937 165.806 61.18 165.851 61.4848C165.897 61.8032 165.82 62.0839 165.623 62.327L160.46 67.8118L165.692 74.5943C165.907 74.8374 166.001 75.1113 165.969 75.4126C165.924 75.731 165.779 75.9912 165.532 76.1863C165.318 76.3541 165.078 76.4363 164.818 76.4363C164.465 76.4363 164.173 76.2993 163.941 76.0254L158.865 69.4518Z" fill="#0099A8"/>
<path d="M170.754 63.1314C171.742 62.2378 173.41 62.2412 174.398 63.1382L175.591 64.2236L176.953 65.463L178.319 64.227L179.512 63.1485L179.515 63.1451C180.503 62.2549 182.171 62.2549 183.156 63.1519C183.676 63.6244 183.984 64.429 183.984 65.3089C183.984 66.1854 183.672 66.99 183.152 67.459L176.912 73.7382L170.747 67.4419C170.227 66.9694 169.919 66.1648 169.919 65.2884C169.922 64.4084 170.234 63.6039 170.754 63.1314ZM169.392 61.6592C167.409 63.4532 167.405 67.1098 169.378 68.9038L176.905 76.4395L184.511 68.9278C186.491 67.1372 186.498 63.4806 184.522 61.6831C182.767 60.0877 179.914 60.0808 178.153 61.6729L178.149 61.6763L176.953 62.7582L175.761 61.6729C174.006 60.074 171.156 60.0706 169.392 61.6592Z" fill="#0099A8"/>
</svg>
