<svg width="220" height="134" viewBox="0 0 220 134" fill="none" xmlns="http://www.w3.org/2000/svg">
<g clip-path="url(#clip0_108767_4826)">
<path d="M135.462 47H84.8412C82.2358 46.9996 79.6558 47.5128 77.2486 48.5104C74.8413 49.5081 72.654 50.9705 70.8115 52.8142C68.9691 54.658 67.5075 56.8469 66.5104 59.2561C65.5132 61.6652 65 64.2473 65 66.855C65.0009 72.1212 67.0917 77.1714 70.8125 80.8948C74.5334 84.6182 79.5796 86.71 84.8412 86.71H135.462C140.723 86.7091 145.768 84.617 149.489 80.8937C153.209 77.1703 155.299 72.1206 155.3 66.855C155.3 61.5891 153.21 56.5389 149.49 52.8154C145.769 49.0919 140.723 47 135.462 47ZM78.6624 73.3493H71.1592V60.3738H73.7103V70.8906H78.6494L78.6624 73.3493ZM90.2044 71.6579C89.0974 72.7835 87.6342 73.4894 86.0649 73.6551C84.4956 73.8209 82.9174 73.4361 81.6001 72.5666C80.2827 71.6971 79.3078 70.3968 78.842 68.8877C78.3762 67.3787 78.4483 65.7547 79.046 64.2929C79.6438 62.8312 80.73 61.6226 82.1193 60.8735C83.5085 60.1243 85.1145 59.8812 86.663 60.1856C88.2114 60.49 89.6062 61.3231 90.6092 62.5425C91.6121 63.7619 92.1609 65.2919 92.1618 66.8713C92.1761 67.7578 92.01 68.6379 91.6735 69.458C91.337 70.2782 90.8371 71.0211 90.2044 71.6416V71.6579ZM99.7498 73.3493H96.5854L92.2401 60.3901H95.0163L98.1774 70.3519L101.322 60.3901H104.115L99.7498 73.3493ZM113.363 73.3493H105.354V60.3738H113.272V62.8194H107.909V65.5784H112.802V67.9847H107.909V70.8906H113.363V73.3493ZM135.149 85.4072C131.485 85.4072 127.904 84.3199 124.858 82.2826C121.811 80.2453 119.437 77.3497 118.035 73.9619C116.633 70.5742 116.267 66.8464 116.982 63.25C117.697 59.6537 119.461 56.3504 122.052 53.7577C124.643 51.1651 127.944 49.3997 131.537 48.6847C135.131 47.9697 138.855 48.3374 142.24 49.741C145.624 51.1447 148.517 53.5214 150.552 56.5706C152.587 59.6198 153.673 63.2045 153.672 66.8713C153.668 71.7851 151.714 76.4961 148.241 79.9688C144.767 83.4415 140.058 85.3918 135.149 85.3909V85.4072Z" fill="#CE0E2D"/>
<path d="M85.4182 62.5979C84.8662 62.5849 84.3173 62.6847 83.8051 62.8913C83.293 63.0979 82.8284 63.4069 82.4397 63.7995C81.6685 64.628 81.2397 65.7183 81.2397 66.8507C81.2397 67.983 81.6685 69.0734 82.4397 69.9019C83.0285 70.5004 83.7837 70.9077 84.6069 71.0709C85.4301 71.2341 86.2833 71.1457 87.0556 70.8172C87.828 70.4886 88.4837 69.9351 88.9375 69.2285C89.3914 68.522 89.6223 67.6952 89.6004 66.8556C89.6187 66.2909 89.5214 65.7285 89.3143 65.2029C89.1073 64.6773 88.795 64.1997 88.3966 63.7995C88.0083 63.4064 87.5437 63.0971 87.0315 62.8905C86.5193 62.6838 85.9703 62.5843 85.4182 62.5979Z" fill="#CE0E2D"/>
<path d="M136.278 60.3741V73.3495H133.743V64.9289L130.112 70.9464H129.818L126.174 64.9485V73.3495H123.62V60.3741H126.246L129.952 66.4928L133.652 60.3643L136.278 60.3741Z" fill="#CE0E2D"/>
<path d="M141.236 70.8909H146.691V73.3495H138.682V60.374H146.599V62.8196H141.236V65.5786H146.129V67.9849H141.236V70.8909Z" fill="#CE0E2D"/>
</g>
<defs>
<clipPath id="clip0_108767_4826">
<rect width="220" height="134" fill="white"/>
</clipPath>
</defs>
</svg>
