<svg width="221" height="134" viewBox="0 0 221 134" fill="none" xmlns="http://www.w3.org/2000/svg">
<path d="M61.9777 51.3593H61.2134V52.7439H60.6128V49.046H61.9686C62.7875 49.0418 63.2334 49.5145 63.2334 50.2048C63.2334 50.8699 62.8194 51.3593 61.9777 51.3593ZM61.9413 49.6024H61.2134V50.7988H61.9367C62.3826 50.7988 62.6283 50.5394 62.6283 50.1964C62.6329 49.8534 62.3326 49.6024 61.9413 49.6024ZM69.0206 51.2004L70.0898 52.7481H69.38L68.3381 51.2338H67.8968V52.7481H67.2963V49.046H68.7067C69.4938 49.046 69.9169 49.502 69.9169 50.1378C69.9214 50.6858 69.603 51.0916 69.0206 51.2004ZM68.693 49.6024H67.9059V50.6816H68.6885C69.0888 50.6816 69.3163 50.4516 69.3163 50.142C69.3163 49.8241 69.0388 49.6024 68.693 49.6024ZM76.5321 52.2169V52.7481H74.189V49.0544H76.4912V49.5856H74.7941V50.5896H76.4502V51.1209H74.7941V52.221H76.5321V52.2169ZM83.7752 52.7439V49.8157L82.424 51.3719L81.0727 49.8115V52.7439H80.4676V49.0502H81.1637L82.424 50.5436L83.6842 49.0502H84.3803V52.7439H83.7752ZM88.6024 52.7439V49.0502H89.2075V52.7439H88.6024ZM95.0448 52.7941C94.0802 52.7941 93.4251 52.1081 93.4251 51.3509V49.0544H94.0347V51.2798C94.0347 51.8195 94.4806 52.242 95.0402 52.242C95.6044 52.242 96.0502 51.8195 96.0502 51.2798V49.0544H96.6599V51.3509C96.669 52.1081 96.0138 52.7941 95.0448 52.7941ZM104.158 52.7439V49.8157L102.807 51.3719L101.455 49.8115V52.7439H100.85V49.0502H101.546L102.807 50.5436L104.067 49.0502H104.763V52.7439H104.158ZM117.861 52.3842L117.438 52.79L117.042 52.4177C116.706 52.6519 116.287 52.79 115.837 52.79C114.727 52.79 113.817 51.9533 113.817 50.895C113.817 49.8366 114.731 49 115.837 49C116.947 49 117.857 49.8366 117.857 50.895C117.857 51.3175 117.711 51.7023 117.47 52.0119L117.861 52.3842ZM115.832 49.5605C115.045 49.5605 114.417 50.1546 114.417 50.8992C114.417 51.6396 115.045 52.2378 115.832 52.2378C116.619 52.2378 117.247 51.6438 117.247 50.8992C117.247 50.1546 116.619 49.5605 115.832 49.5605ZM123.576 52.7941C122.611 52.7941 121.956 52.1081 121.956 51.3509V49.0544H122.566V51.2798C122.566 51.8195 123.012 52.242 123.571 52.242C124.135 52.242 124.581 51.8195 124.581 51.2798V49.0544H125.191V51.3509C125.195 52.1081 124.545 52.7941 123.576 52.7941ZM131.97 52.7439L131.556 51.7944H129.854L129.44 52.7439H128.803L130.378 49.0502H131.028L132.602 52.7439H131.97ZM130.705 49.7446L130.091 51.2213H131.315L130.705 49.7446ZM136.515 52.7439V49.0502H137.125V52.2085H138.731V52.7481H136.515V52.7439ZM142.616 52.7439V49.0502H143.221V52.7439H142.616ZM148.808 49.5815V52.7481H148.203V49.5856H147.134V49.0502H149.877V49.5815H148.808ZM155.487 51.2464V52.7439H154.882V51.2506L153.485 49.0502H154.145L155.187 50.6984L156.229 49.0502H156.889L155.487 51.2464Z" fill="url(#paint0_linear_108767_4831)"/>
<path d="M46.0702 79.6086L39 63.5201H42.3395L46.8755 74.2164L51.184 63.5201H52.8265L46.0702 79.6086ZM71.9215 78.0482V79.2237H61.3844V63.5201H71.9215V64.6955H64.5464V70.439H71.4028V71.6271H64.5464V78.0524H71.9215V78.0482ZM92.9273 70.7779C92.1584 71.4263 91.0665 71.786 89.647 71.8571L94.1557 79.2195H90.6116L86.0391 71.2589C87.8317 71.1502 89.0965 70.8406 89.8336 70.3386C90.5706 69.8325 90.9437 69.0544 90.9437 67.9961C90.9437 66.8289 90.5797 65.9588 89.8472 65.3899C89.1147 64.8168 88.0137 64.5324 86.535 64.5324H85.2338V79.2237H82.0718V63.5201H87.6543C89.7699 63.5201 91.3668 63.9091 92.4496 64.683C93.5324 65.4569 94.0739 66.5989 94.0739 68.1132C94.0784 69.2385 93.6962 70.1295 92.9273 70.7779ZM119.338 74.6348C118.901 75.6345 118.264 76.513 117.432 77.2702C116.59 78.0357 115.648 78.6171 114.602 79.0145C113.556 79.4078 112.45 79.6086 111.276 79.6086C110.089 79.6086 108.97 79.4119 107.923 79.0145C106.877 78.6171 105.939 78.0357 105.107 77.2702C104.283 76.513 103.655 75.6303 103.228 74.6264C102.8 73.6266 102.586 72.5473 102.586 71.397C102.586 70.2299 102.805 69.1464 103.237 68.1425C103.669 67.1385 104.302 66.2642 105.134 65.5112C105.967 64.7583 106.908 64.181 107.964 63.7794C109.015 63.3778 110.121 63.1729 111.276 63.1729C112.2 63.1729 113.101 63.3067 113.979 63.5703C114.852 63.838 115.671 64.2228 116.436 64.7332C117.582 65.4987 118.46 66.4566 119.074 67.6028C119.684 68.749 119.993 70.0123 119.993 71.3886C119.993 72.5599 119.775 73.635 119.338 74.6348ZM115.116 66.1847C114.124 64.8545 112.846 64.1894 111.281 64.1894C109.725 64.1894 108.451 64.8545 107.45 66.1847C106.454 67.515 105.953 69.2552 105.953 71.397C105.953 73.5346 106.454 75.2664 107.45 76.6008C108.446 77.9311 109.725 78.5962 111.281 78.5962C112.837 78.5962 114.111 77.9311 115.112 76.605C116.108 75.279 116.608 73.5429 116.608 71.397C116.604 69.2552 116.108 67.5192 115.116 66.1847ZM136.736 64.9716C136.177 64.5784 135.508 64.3776 134.734 64.3776C133.911 64.3776 133.233 64.6244 132.71 65.1097C132.182 65.5991 131.918 66.2391 131.918 67.0297C131.918 67.6572 132.136 68.1885 132.569 68.6277C133.001 69.0669 133.811 69.5187 135.003 69.9914C136.882 70.736 138.119 71.4472 138.715 72.129C139.316 72.8109 139.612 73.6852 139.612 74.7477C139.612 76.1574 139.084 77.3204 138.024 78.2365C136.968 79.1526 135.626 79.6086 134.006 79.6086C132.833 79.6086 131.823 79.3994 130.972 78.9853C130.121 78.5711 129.384 77.9269 128.756 77.061L130.016 76.2369C130.389 76.8937 130.867 77.4082 131.449 77.7763C132.032 78.1444 132.66 78.3285 133.328 78.3285C134.238 78.3285 134.975 78.065 135.544 77.5379C136.113 77.0108 136.4 76.3289 136.4 75.5007C136.4 74.1788 135.13 73.0368 132.591 72.0705L132.555 72.0579C131.186 71.5392 130.216 70.9577 129.643 70.3093C129.07 69.661 128.783 68.8369 128.783 67.8413C128.783 66.4776 129.275 65.3607 130.262 64.4905C131.249 63.6163 132.523 63.1812 134.084 63.1812C135.258 63.1812 136.281 63.4238 137.159 63.9091C138.037 64.3943 138.688 65.0846 139.116 65.9756L137.996 66.67C137.719 65.9296 137.296 65.3648 136.736 64.9716ZM156.432 64.9716C155.872 64.5784 155.203 64.3776 154.43 64.3776C153.606 64.3776 152.928 64.6244 152.405 65.1097C151.878 65.5991 151.614 66.2391 151.614 67.0297C151.614 67.6572 151.832 68.1885 152.264 68.6277C152.696 69.0669 153.506 69.5187 154.698 69.9914C156.577 70.736 157.815 71.4472 158.411 72.129C159.011 72.8109 159.307 73.6852 159.307 74.7477C159.307 76.1574 158.779 77.3204 157.719 78.2365C156.664 79.1526 155.322 79.6086 153.702 79.6086C152.528 79.6086 151.518 79.3994 150.667 78.9853C149.817 78.5711 149.079 77.9269 148.452 77.061L149.712 76.2369C150.085 76.8937 150.563 77.4082 151.145 77.7763C151.727 78.1444 152.355 78.3285 153.024 78.3285C153.934 78.3285 154.671 78.065 155.24 77.5379C155.808 77.0108 156.095 76.3289 156.095 75.5007C156.095 74.1788 154.826 73.0368 152.287 72.0705L152.251 72.0579C150.881 71.5392 149.912 70.9577 149.339 70.3093C148.766 69.661 148.479 68.8369 148.479 67.8413C148.479 66.4776 148.97 65.3607 149.958 64.4905C150.945 63.6163 152.219 63.1812 153.779 63.1812C154.953 63.1812 155.977 63.4238 156.855 63.9091C157.733 64.3943 158.384 65.0846 158.811 65.9756L157.692 66.67C157.414 65.9296 156.996 65.3648 156.432 64.9716ZM177.633 79.2195L175.863 75.0405H169.99L168.234 79.2195H166.732L173.725 63.2021L181 79.2195H177.633ZM172.906 68.3223L170.436 74.0533H175.39L172.906 68.3223Z" fill="url(#paint1_linear_108767_4831)"/>
<defs>
<linearGradient id="paint0_linear_108767_4831" x1="60.6141" y1="50.8979" x2="156.887" y2="50.8979" gradientUnits="userSpaceOnUse">
<stop stop-color="#F3CEBB"/>
<stop offset="0.5108" stop-color="#D89F67"/>
<stop offset="1" stop-color="#9D572B"/>
</linearGradient>
<linearGradient id="paint1_linear_108767_4831" x1="38.9991" y1="71.3941" x2="180.998" y2="71.3941" gradientUnits="userSpaceOnUse">
<stop stop-color="#F3CEBB"/>
<stop offset="0.5108" stop-color="#D69E68"/>
<stop offset="1" stop-color="#9D572B"/>
</linearGradient>
</defs>
</svg>
