<svg width="328" height="95" viewBox="0 0 328 95" fill="none" xmlns="http://www.w3.org/2000/svg">
<path d="M239 47.964C239 30.2581 225.04 15.8182 207.526 15.0376V15H121.964C103.758 15 89 29.7583 89 47.964C89 66.1698 103.758 80.9281 121.964 80.9281H207.526V80.8905C225.04 80.1099 239 65.67 239 47.964Z" fill="#CE0E2D"/>
<path d="M205.651 78.8923C222.661 78.8923 236.45 65.103 236.45 48.0931C236.45 31.0832 222.661 17.2939 205.651 17.2939C188.641 17.2939 174.852 31.0832 174.852 48.0931C174.852 65.103 188.641 78.8923 205.651 78.8923Z" fill="white"/>
<path d="M103.504 54.8026H111.716V58.8626H99.2578V37.3311H103.504V54.8026V54.8026Z" fill="white"/>
<path d="M130.914 56.0462C128.74 58.2089 126.095 59.2924 122.977 59.2924C119.859 59.2924 117.219 58.2111 115.056 56.0462C112.894 53.8835 111.812 51.2322 111.812 48.0943C111.812 44.9565 112.894 42.3073 115.056 40.1424C117.219 37.9798 119.859 36.8984 122.977 36.8984C126.093 36.8984 128.74 37.9798 130.914 40.1424C133.088 42.3073 134.173 44.9565 134.173 48.0943C134.173 51.2322 133.085 53.8835 130.914 56.0462ZM118.024 53.156C119.357 54.4784 121.007 55.1396 122.977 55.1396C124.945 55.1396 126.597 54.4784 127.929 53.156C129.262 51.8336 129.928 50.1464 129.928 48.0965C129.928 46.0466 129.26 44.355 127.929 43.0216C126.595 41.6881 124.945 41.0225 122.977 41.0225C121.009 41.0225 119.357 41.6904 118.024 43.0216C116.691 44.355 116.025 46.0466 116.025 48.0965C116.025 50.1464 116.691 51.8314 118.024 53.156Z" fill="white"/>
<path d="M141.522 58.8626L134.293 37.3311H138.908L144.169 53.8805L149.398 37.3311H154.042L146.782 58.8626H141.522V58.8626Z" fill="white"/>
<path d="M160.347 54.8026H169.423V58.8626H156.102V37.3311H169.268V41.391H160.347V45.9751H168.498V49.9731H160.347V54.8026Z" fill="white"/>
<path d="M207.521 37.3281V58.8597H203.306V44.8952L197.247 54.8926H196.754L190.695 44.9262V58.8597H186.449V37.3281H190.817L196.999 47.509L203.151 37.3281H207.521Z" fill="#CE0E2D"/>
<path d="M215.765 54.7997H224.838V58.8597H211.52V37.3281H224.686V41.3881H215.765V45.9722H223.916V49.9702H215.765V54.7997V54.7997Z" fill="#CE0E2D"/>
</svg>
