<svg width="72" height="72" viewBox="0 0 72 72" fill="none" xmlns="http://www.w3.org/2000/svg">
<g opacity="0.8">
<path d="M36 71C55.33 71 71 55.33 71 36C71 16.67 55.33 1 36 1C16.67 1 1 16.67 1 36C1 55.33 16.67 71 36 71Z" fill="white" fill-opacity="0.2" stroke="#095540" stroke-miterlimit="10"/>
<path fill-rule="evenodd" clip-rule="evenodd" d="M28.6674 22.3133H30.6145V29.1279H28.6674V22.3133ZM30.2548 42.659H41.6046V43.4697H30.2548V42.659ZM40.3672 21.2998H44.341V30.1583C44.341 32.2289 45.1572 35.9091 46.0845 37.761C46.3875 38.3654 46.6938 38.9883 47.1002 39.5321C47.1823 39.6412 47.2545 39.7647 47.3392 39.8693C47.7227 40.3431 48.0117 40.6536 48.44 41.0845C48.7505 41.3961 49.2984 41.778 49.6789 42.0016C50.3623 42.4031 50.6969 42.7426 50.6969 43.6164V50.6998H21.2969V43.6164C21.2969 42.332 22.1237 42.1973 22.9509 41.5842C25.1573 39.9476 26.5084 36.9516 27.0796 34.3285C27.3555 33.0614 27.6535 31.4518 27.6535 30.1587V21.3002H29.5047H30.6315H31.6449V23.5732V28.5194V29.1283H40.3492V28.5194V28.4065V28.294V28.1811V28.0682C40.3507 25.809 40.3665 23.5507 40.3665 21.3009L40.3672 21.2998ZM28.6678 40.9245H43.3279V49.6863H28.6678V40.9245ZM28.953 39.893C28.3833 39.8888 27.6942 40.083 27.6942 40.7525V49.6863H22.3111V43.6164C22.3111 42.9579 22.7006 43.032 23.5553 42.3979C25.9698 40.6073 27.4451 37.4156 28.0705 34.5441C28.3366 33.3233 28.6674 31.4477 28.6674 30.1587H43.3275C43.3275 32.3305 44.1803 36.2215 45.1787 38.2149C45.5178 38.8927 45.844 39.5449 46.2892 40.1395C46.3909 40.2753 46.4462 40.3766 46.5519 40.5072C47.1589 41.2568 47.0573 41.1315 47.7219 41.7995C48.0648 42.1446 48.7369 42.6237 49.1656 42.8754C49.4764 43.0583 49.6842 43.1069 49.6842 43.6168V49.6867H44.3011V40.7529C44.3011 40.3284 43.8483 39.8941 43.3275 39.8941C38.6655 39.8941 32.5305 39.9182 28.9526 39.8934L28.953 39.893ZM41.3807 22.3129H43.3279V29.1276H41.3807V22.3129Z" fill="#095540"/>
<path d="M36.1209 34.372H38.0545L35.6373 38.4617V36.008H33.9453L36.1209 31.918V34.372Z" fill="#095540"/>
</g>
</svg>
