<svg width="72" height="72" viewBox="0 0 72 72" fill="none" xmlns="http://www.w3.org/2000/svg">
<g opacity="0.8">
<path d="M36 71C55.33 71 71 55.33 71 36C71 16.67 55.33 1 36 1C16.67 1 1 16.67 1 36C1 55.33 16.67 71 36 71Z" fill="white" fill-opacity="0.2" stroke="#095540" stroke-miterlimit="10"/>
<path fill-rule="evenodd" clip-rule="evenodd" d="M22.258 44.5359C22.258 43.7749 22.8966 43.113 23.798 43.113H46.1866C47.2969 43.113 48.1245 43.4792 48.6901 44.0456C49.7324 45.0887 50.0139 46.4267 49.4117 47.8221C48.9077 48.989 47.6749 49.7518 46.187 49.7518H23.7984C21.7702 49.7518 21.7702 46.9064 23.7984 46.9064H47.3718V45.9577H23.7984C22.897 45.9577 22.2584 45.2962 22.2584 44.5359H22.258ZM45.7726 39.3192H26.5224V40.2676H45.7726C47.2539 40.2676 47.2539 42.1646 45.7726 42.1646H27.5886C26.6318 42.1646 25.7421 41.6758 25.3373 40.802C25.0397 40.1603 25.0345 39.4849 25.3186 38.8259C25.5506 38.2886 26.0512 37.8126 26.5881 37.6073C26.8898 37.4923 27.2396 37.4225 27.6477 37.4225H45.7719C47.2532 37.4225 47.2532 39.3192 45.7719 39.3192H45.7726ZM26.2266 34.5775H41.9821C43.463 34.5775 43.463 36.4738 41.9821 36.4738H26.2266C24.7651 36.4738 24.7167 34.5775 26.2266 34.5775ZM26.2266 31.7324H41.9821C43.463 31.7324 43.463 33.6291 41.9821 33.6291H26.2266C24.7651 33.6291 24.7167 31.7324 26.2266 31.7324ZM22.5542 26.3978C22.5982 26.2333 22.7065 26.1312 22.8676 25.9406L23.638 25.1108C25.1766 23.8275 26.1128 23.123 28.323 22.5677C29.2167 22.3433 30.1669 22.2482 31.261 22.2482H40.7375C42.8945 22.2482 44.5292 22.6768 45.9705 23.4132C46.6388 23.7544 47.338 24.2334 47.8867 24.6962C48.384 25.1156 48.8824 25.6328 49.2872 26.1396C49.4109 26.2943 49.3885 26.1881 49.4443 26.3978C49.2461 26.6682 47.1637 27.8865 46.7207 28.1171C44.7439 29.1467 42.3373 30.0293 40.1114 30.394C39.4937 30.4954 38.7629 30.6375 38.1309 30.6647C37.4655 30.6933 36.6819 30.7841 35.9989 30.7841C34.0162 30.7841 31.1476 30.3896 29.2692 29.7538C27.5145 29.1592 27.0407 29.0126 25.3171 28.137C24.8672 27.9078 22.7439 26.6557 22.5542 26.3975V26.3978ZM21.3107 26.5161C21.3107 26.9036 21.7658 27.0961 22.033 27.2749L23.8784 28.4517C25.9297 29.5698 25.8845 29.5301 28.0456 30.3863L29.1518 30.7617C29.1591 30.7661 29.1767 30.7756 29.1888 30.7837C28.145 30.7837 26.8234 30.7113 25.8137 30.7852C24.9824 30.8461 24.1544 31.6626 24.1544 32.5618C24.1544 33.513 24.3721 33.5443 24.7464 34.1033C24.302 34.7666 24.1544 34.7247 24.1544 35.6445C24.1544 36.3449 24.7343 37.1177 25.2793 37.2447C25.0125 37.644 24.1544 38.2794 24.1544 39.616C24.1544 41.1847 24.5401 41.3254 25.1021 42.1646C23.9841 42.1646 23.2002 42.039 22.4595 42.4838C21.3199 43.1699 20.9896 44.6479 21.6084 45.7193C21.8029 46.0554 22.0161 46.1582 22.1993 46.4319C21.7816 47.0566 21.3111 47.0346 21.3111 48.5071C21.3111 49.6001 22.41 50.6998 23.5022 50.6998H46.7207C47.6287 50.6998 48.5062 50.2484 49.168 49.7107C50.0136 49.0242 50.6893 47.8441 50.6893 46.7283C50.6893 45.4332 50.5215 44.6384 49.6689 43.6592C48.8336 42.6994 48.4313 42.706 47.5498 42.2825C47.8819 41.6545 47.981 41.0091 47.6492 40.3451C47.5193 40.0836 47.3875 39.9928 47.2532 39.7934C47.378 39.6068 47.5009 39.5205 47.6294 39.2807C48.1506 38.3048 47.7421 37.01 46.6197 36.5744C46.074 36.3625 44.5629 36.4734 43.8175 36.4734C44.1122 35.9166 44.1574 35.2096 43.8594 34.6542C43.7173 34.3912 43.5984 34.306 43.4626 34.1033C43.5874 33.9167 43.7104 33.8304 43.8381 33.5898C44.3325 32.665 44.0282 31.4514 42.9092 30.9222C42.8526 30.8957 42.8409 30.8928 42.7873 30.8667L42.6335 30.7837C43.5423 30.708 46.1701 29.4846 47.0558 29.0446C47.7435 28.7037 48.359 28.3078 49.0054 27.9133C49.336 27.712 49.6124 27.5104 49.9306 27.2981C50.9843 26.5951 50.912 26.5785 49.9864 25.4399C49.0208 24.2536 47.3949 22.9152 45.9844 22.3323C44.5967 21.7586 43.3599 21.2998 41.6855 21.2998H30.313C27.2234 21.2998 23.9522 23.0573 22.0128 25.4399C21.7901 25.7143 21.3104 26.237 21.3104 26.5157L21.3107 26.5161Z" fill="#095540"/>
</g>
</svg>
