<svg width="72" height="72" viewBox="0 0 72 72" fill="none" xmlns="http://www.w3.org/2000/svg">
<g opacity="0.8">
<path d="M36 71C55.33 71 71 55.33 71 36C71 16.67 55.33 1 36 1C16.67 1 1 16.67 1 36C1 55.33 16.67 71 36 71Z" fill="white" fill-opacity="0.2" stroke="#095540" stroke-miterlimit="10"/>
<path d="M34.4257 24.669H50.7008V48.1551H37.774L38.0166 47.4833L38.0442 47.3827L38.0504 47.2869C38.0511 41.2547 38.6864 33.1622 38.0511 27.6591C38.0374 27.33 37.7215 26.9863 37.179 26.6597C36.502 26.2515 35.5155 25.9071 34.3254 25.6633L33.9228 25.5808V24.6694H34.4257V24.669ZM49.6942 25.6746H37.4795L37.6976 25.799C38.5441 26.3088 39.0361 26.9359 39.0532 27.6424C39.391 34.5622 39.0542 40.1223 39.0546 47.1495H49.6942V25.6746ZM38.1446 27.668L38.2654 27.6666L38.1446 27.668ZM22.3097 27.6577L22.3083 47.2869C22.31 47.8533 23.1187 48.418 24.4241 48.8715C25.8862 49.3799 27.9212 49.6943 30.18 49.6943C32.4385 49.6943 34.4731 49.3799 35.9356 48.8715C37.2417 48.418 38.0497 47.853 38.0497 47.2869L38.0507 27.7021H39.0529L39.0539 47.2869C39.0559 48.3276 37.989 49.2189 36.2655 49.818C34.6983 50.3626 32.545 50.6998 30.18 50.6998C27.8148 50.6998 25.6614 50.3626 24.0939 49.818C22.3704 49.2189 21.3034 48.3276 21.3034 47.2869C21.3038 39.486 21.2966 35.3669 21.3045 27.5663L22.2049 27.3764L21.8361 27.6577H22.3093H22.3097ZM39.0542 27.6577L39.0539 27.6652L38.0518 27.6966L38.0487 27.6591L39.0529 27.6427L39.0539 27.6581L39.0542 27.6577ZM30.1797 24.2677C30.9177 24.2677 31.635 24.3004 32.3201 24.3625C31.724 24.5054 31.0064 24.5886 30.222 24.5886C29.4382 24.5886 28.7016 24.503 28.1017 24.3567C28.7681 24.2984 29.4642 24.2674 30.18 24.2674L30.1797 24.2677ZM33.9235 24.5684C34.7946 24.7161 35.5851 24.9132 36.2655 25.1498C37.989 25.7489 39.0559 26.6396 39.0559 27.6806C39.0559 28.7212 37.9893 29.6122 36.2652 30.212C34.6983 30.7566 32.5446 31.0941 30.18 31.0941C27.8148 31.0941 25.6614 30.7566 24.0945 30.212C22.3704 29.6122 21.3038 28.7212 21.3038 27.6806C21.3038 26.6399 22.3707 25.7489 24.0942 25.1498C24.7968 24.9057 25.617 24.7035 26.5216 24.5541V25.5709C25.7398 25.7066 25.0329 25.8846 24.4241 26.0957C23.1183 26.5495 22.31 27.1145 22.31 27.6802C22.31 28.2466 23.119 28.8113 24.4245 29.2654C25.8862 29.7735 27.9212 30.0882 30.18 30.0882C32.4385 30.0882 34.4735 29.7735 35.9352 29.2654C37.241 28.8113 38.0497 28.2463 38.0497 27.6802C38.0497 27.1142 37.2414 26.5495 35.9356 26.0957C35.3494 25.8921 34.6714 25.7196 33.9238 25.5859L33.9235 24.5684ZM26.5236 22.5761L26.524 23.0889H27.0266C27.0266 23.2072 27.3122 23.3655 27.7721 23.5257C28.3887 23.7402 29.2553 23.8728 30.2247 23.8728C31.1931 23.8728 32.0608 23.7399 32.677 23.5257C33.1376 23.3655 33.4229 23.2072 33.4229 23.0889L33.4246 23.0736L33.8856 23.0804L34.4267 23.0613L34.4271 23.0712L34.0784 23.0838L34.4288 23.0889L34.4271 27.0037C34.4288 27.596 33.8859 28.0812 33.0066 28.3867C32.285 28.6374 31.2999 28.7928 30.2247 28.7928C29.1492 28.7928 28.1645 28.6374 27.4422 28.3864C26.5642 28.0816 26.02 27.596 26.02 27.0037V23.0889H26.5229V22.5761H26.5236ZM33.4239 27.0037L33.4246 24.3008C33.296 24.3628 33.1564 24.4198 33.0073 24.4719C32.2856 24.7226 31.3002 24.8781 30.2251 24.8781C29.1513 24.8781 28.1665 24.7222 27.4442 24.4719C27.2944 24.4201 27.1549 24.3635 27.0269 24.3018V27.0037C27.0269 27.122 27.3129 27.2806 27.7728 27.4398C28.3897 27.6543 29.2564 27.7873 30.2254 27.7873C31.1938 27.7873 32.0611 27.6543 32.6773 27.4402C33.138 27.2803 33.4232 27.1217 33.4243 27.0034L33.4239 27.0037ZM30.2251 21.2998C31.3002 21.2998 32.2856 21.456 33.0073 21.7063C33.8862 22.0118 34.4295 22.497 34.4295 23.0889C34.4295 23.6809 33.8862 24.1664 33.0073 24.4719C32.2856 24.7226 31.3002 24.8781 30.2251 24.8781C29.1513 24.8781 28.1665 24.7222 27.4442 24.4719C26.5642 24.1664 26.0207 23.6812 26.0207 23.0889C26.0207 22.4966 26.5642 22.0118 27.4425 21.7063C28.1665 21.4556 29.1513 21.2998 30.2251 21.2998ZM32.6773 22.6525C32.0611 22.4387 31.1934 22.3054 30.2251 22.3054C29.2557 22.3054 28.389 22.4383 27.7721 22.6518C27.3125 22.8127 27.0269 22.9713 27.0269 23.0893C27.0269 23.2076 27.3125 23.3658 27.7724 23.5261C28.389 23.7405 29.2557 23.8732 30.2251 23.8732C31.1934 23.8732 32.0611 23.7402 32.6773 23.5261C33.138 23.3658 33.4232 23.2076 33.4232 23.0893C33.4232 22.9713 33.1376 22.8127 32.6773 22.6525ZM23.5882 42.9759C23.5882 42.6987 23.8134 42.4733 24.0911 42.4733C24.3685 42.4733 24.5941 42.6987 24.5941 42.9759V46.2981C24.8288 46.545 25.2014 46.7714 25.6767 46.95C26.235 47.1608 26.9222 47.2985 27.6865 47.3255C27.9629 47.3347 28.1792 47.5679 28.1696 47.8441C28.1601 48.1203 27.927 48.3365 27.6503 48.3269C26.7727 48.2962 25.9763 48.1356 25.3226 47.8888C24.6152 47.6225 24.0574 47.2467 23.7196 46.8174C23.6377 46.7277 23.5875 46.6087 23.5875 46.4781V42.9763L23.5882 42.9759Z" fill="#095540"/>
</g>
</svg>
