<svg width="72" height="72" viewBox="0 0 72 72" fill="none" xmlns="http://www.w3.org/2000/svg">
<g opacity="0.8">
<path d="M36 71C55.33 71 71 55.33 71 36C71 16.67 55.33 1 36 1C16.67 1 1 16.67 1 36C1 55.33 16.67 71 36 71Z" fill="white" fill-opacity="0.2" stroke="#095540" stroke-miterlimit="10"/>
<path fill-rule="evenodd" clip-rule="evenodd" d="M22 22H50.0003V50.001L49.6619 50.0014H22.338L22 50.001V22ZM49.3236 22.6266H22.6774V49.3744H49.3236V22.6266Z" fill="#095540"/>
<path fill-rule="evenodd" clip-rule="evenodd" d="M29.6708 43.7991C26.1262 42.9076 23.4766 39.757 23.4766 36.1283C23.4766 32.4679 26.1262 29.3482 29.6708 28.4571C31.0817 28.1067 32.5615 27.916 34.1101 27.916C37.2759 27.916 40.27 28.9346 42.8511 30.5262L42.8514 33.6455C40.8888 32.7224 39.1683 32.4995 37.1038 32.4679C34.6949 32.4679 32.5615 33.9004 32.5615 36.1283C32.5615 38.3564 34.6949 39.8845 37.1038 39.8845C39.2031 39.8845 41.1987 39.6296 42.8511 38.6114L42.8514 41.6991C40.3388 43.2907 37.2759 44.3089 34.1101 44.3089C32.5615 44.3089 31.0817 44.1183 29.6708 43.7994V43.7991ZM27.8815 41.5141C27.8815 40.6695 28.4459 40.1071 29.3673 40.1071C30.2708 40.1071 30.8179 40.6972 30.8179 41.5141C30.8179 42.3467 30.2715 42.8888 29.3673 42.8888C28.4435 42.8888 27.8815 42.3729 27.8815 41.5141ZM28.66 41.5141C28.66 41.9142 28.8592 42.3978 29.3673 42.3978C29.8508 42.3978 30.039 41.8805 30.039 41.5141C30.039 41.1232 29.8821 40.6304 29.3673 40.6304C28.8255 40.6304 28.66 41.0874 28.66 41.5141ZM32.8519 40.7437C32.717 40.6819 32.6218 40.6798 32.4734 40.6798C32.2665 40.6798 32.1067 40.7827 31.991 40.9347C31.8649 41.1016 31.7847 41.3163 31.7847 41.5393C31.7847 41.8258 31.8539 42.0168 31.991 42.1759C32.1287 42.3353 32.2668 42.3985 32.4386 42.3985C32.6172 42.3985 32.7749 42.3587 32.886 42.3037L32.9208 42.8121C32.7557 42.8863 32.5505 42.9236 32.3353 42.9076C31.9923 42.8827 31.7162 42.7805 31.544 42.5572C31.3001 42.2416 31.1999 41.884 31.1999 41.5066C31.1999 41.1534 31.3075 40.8459 31.544 40.552C31.7382 40.3116 32.0261 40.1813 32.4045 40.1703C32.6538 40.1632 32.8079 40.2154 32.886 40.2342L32.8519 40.7433V40.7437ZM34.8671 40.7437C34.7329 40.6819 34.6373 40.6798 34.4889 40.6798C34.2823 40.6798 34.1222 40.7827 34.0068 40.9347C33.8811 41.1016 33.8005 41.3163 33.8005 41.5393C33.8005 41.8258 33.8694 42.0168 34.0068 42.1759C34.1442 42.3353 34.2827 42.3985 34.4542 42.3985C34.6324 42.3985 34.7907 42.3587 34.9015 42.3037L34.9363 42.8121C34.7712 42.8863 34.566 42.9236 34.3512 42.9076C34.0082 42.8827 33.7313 42.7805 33.5591 42.5572C33.3152 42.2416 33.2154 41.884 33.2154 41.5066C33.2154 41.1534 33.323 40.8459 33.5591 40.552C33.7533 40.3116 34.0413 40.1813 34.4197 40.1703C34.6693 40.1632 34.823 40.2154 34.9011 40.2342L34.8667 40.7433L34.8671 40.7437ZM37.5859 42.8046H36.829V41.0948L36.1406 42.451C36.0667 42.5973 35.9155 42.8639 35.6932 42.8639C35.3637 42.8639 35.2803 42.6349 35.2803 42.3921V40.2108H36.0379V41.9497L36.6568 40.6528C36.7363 40.4877 36.9213 40.1515 37.173 40.1515C37.4847 40.1515 37.5862 40.4323 37.5862 40.6528V42.8046H37.5859ZM40.3573 42.8046H39.6004V41.0948L38.9119 42.451C38.8377 42.5973 38.6865 42.8639 38.4646 42.8639C38.1351 42.8639 38.0513 42.6349 38.0513 42.3921V40.2108H38.8083V41.9497L39.4278 40.6528C39.5066 40.4877 39.6919 40.1515 39.944 40.1515C40.2557 40.1515 40.3573 40.4323 40.3573 40.6528V42.8046ZM27.3997 33.741C27.3997 33.0409 28.0192 32.4995 28.8106 32.4995C29.5682 32.4995 30.187 33.0409 30.187 33.741C30.187 34.4412 29.5679 35.0142 28.8106 35.0142C28.5354 35.0142 28.2258 34.9183 28.0192 34.8228V36.4776C28.2606 36.5415 28.5695 36.5731 28.8106 36.5731C30.5314 36.5731 31.942 35.3319 31.942 33.7403C31.942 32.1807 30.5314 30.9072 28.8106 30.9072C27.056 30.9072 25.6448 32.1803 25.6448 33.7403L25.633 40.5516C25.9313 41.0934 26.6299 41.7811 27.4341 42.3346L27.3997 33.7403V33.741Z" fill="#095540"/>
<path fill-rule="evenodd" clip-rule="evenodd" d="M28.8696 44.2257C27.447 43.7003 27.1576 45.1321 27.1576 46.0723C27.1576 46.9517 27.5616 48.7464 28.8784 48.7464C30.0039 48.746 30.1725 47.3905 30.2144 46.6155C30.2627 45.7353 29.831 44.5811 28.8696 44.2261V44.2257ZM28.844 47.8865C28.146 47.8002 27.9713 46.7688 27.9493 46.2629C27.9341 45.915 28.0544 44.7359 28.7588 45.0377C29.2857 45.2642 29.5097 45.9221 29.5079 46.5533C29.5069 46.9552 29.5424 47.9727 28.844 47.8861V47.8865ZM24.508 43.1305C24.2669 42.9402 24.0262 42.6849 23.7852 42.4303C23.7852 41.9528 23.7852 41.4437 23.7852 40.9346C23.7852 40.9658 23.8196 40.9981 23.8196 40.9981C24.5765 41.9216 25.3338 42.6533 26.0567 43.2579C26.0567 43.6076 26.0567 43.958 26.0567 44.3085C25.85 44.181 25.6093 44.0219 25.3686 43.8629L25.3519 48.6292L24.5261 48.6207L24.508 43.1305ZM31.1844 45.0721C31.5994 45.0991 32.0894 45.1346 32.5264 45.1676C33.0827 45.1676 33.5244 45.5191 33.5244 46.0584C33.5244 46.3208 33.3039 46.6911 33.0078 46.7589C33.0078 46.7589 33.005 46.7795 33.005 46.8118C33.4893 46.9229 33.6625 47.2034 33.6615 47.6504C33.6604 48.2227 33.2081 48.6232 32.629 48.6232L31.1663 48.6235L31.184 45.0721H31.1844ZM35.2105 48.6235H34.3506L35.9678 45.0721H36.1055L37.723 48.6235H36.8628L36.6558 48.1591H35.4175L35.2108 48.6235H35.2105ZM36.3806 47.459L36.037 46.7908L35.6926 47.459H36.381H36.3806ZM39.3057 48.6193H38.4455V44.786L39.6157 44.404C40.0804 44.252 40.3726 44.2126 40.5789 44.4356C40.8051 44.7274 40.8881 45.0991 40.8881 45.4538C40.8881 45.9313 40.7852 46.3769 40.5789 46.7589C40.3385 47.1409 40.0286 47.3319 39.5809 47.3955L39.3061 47.4274V48.6189L39.3057 48.6193ZM39.6498 46.5359C39.932 46.4497 40.0283 45.9938 40.0283 45.7723C40.0283 45.5674 39.9569 45.1261 39.6153 45.2312L39.3395 45.2947C39.3395 45.7296 39.3395 46.1649 39.3395 46.5998L39.6494 46.5359H39.6498ZM43.4348 42.3661C44.8744 41.3762 45.2838 44.1441 45.2241 44.9766C45.2241 45.9341 44.8798 48.7009 43.4004 48.7009C43.3659 48.7009 43.3659 48.7009 43.3311 48.7009C42.1251 48.7009 41.9085 46.7489 41.8957 45.9444C41.8698 44.3649 42.0729 43.303 43.4348 42.3661ZM43.4011 47.5226C44.2578 47.3472 44.3262 45.8912 44.3639 45.2631C44.3639 44.8343 44.344 43.2171 43.471 43.576C42.7339 43.8789 42.6299 45.1318 42.6235 45.7644C42.6193 46.1972 42.6282 47.6124 43.4011 47.5226ZM45.9271 40.9186L47.3575 40.1382C47.6675 39.9476 47.8741 40.0111 48.0463 40.2977C48.3016 40.8288 48.3214 41.3322 48.3214 41.8893C48.3214 42.5734 48.1858 43.287 47.7708 43.8629L47.77 43.9694C48.4606 44.2247 48.4244 45.3778 48.4244 45.9317C48.4244 46.4642 48.2934 48.6239 47.3923 48.6239L45.9122 48.6072L45.9271 40.9186ZM47.0827 46.8863C47.4995 46.8377 47.5503 46.1117 47.5645 45.8681C47.5794 45.6089 47.502 44.8989 47.0827 45.0086L46.8097 45.0792L46.8069 46.9183L47.0827 46.8863ZM47.0139 43.4166C47.3238 43.3122 47.4349 42.9813 47.4349 42.4619C47.4349 41.9848 47.3199 41.765 47.0139 41.9212L46.8119 42.0242L46.8257 43.4805L47.0139 43.4166ZM32.0787 47.1455V47.9443H32.3496C32.6397 47.9443 32.77 47.7842 32.7717 47.5261C32.7739 47.252 32.6159 47.1455 32.3457 47.1455H32.0787ZM32.0787 45.8362V46.472H32.2939C32.5257 46.472 32.6287 46.3442 32.6304 46.139C32.6322 45.9207 32.5062 45.8362 32.2917 45.8362H32.0787Z" fill="#095540"/>
<path fill-rule="evenodd" clip-rule="evenodd" d="M25.4932 24.6258L25.4712 28.6156C25.468 29.1883 25.4233 29.6403 25.299 29.9846C25.0441 30.6929 24.6905 31.3135 23.957 31.7034V30.0162C24.3114 29.8813 24.5393 29.593 24.5421 28.9657L24.5638 23.4102H27.2262V28.6788L26.2971 29.4109V24.6279L25.4932 24.6258ZM31.1883 23.4102L30.2549 26.26C30.1825 26.4805 29.9453 26.9339 29.8072 27.1195C29.4852 27.5523 28.8288 27.8143 28.293 27.9787V27.024C28.7766 27.024 29.1366 26.8611 29.3599 26.4514L28.0402 23.4102H29.0177L29.7728 25.0824L30.2343 23.4102H31.1883ZM34.8317 23.4102V26.9289L33.9022 26.8973V25.5283H33.8333C33.5741 25.6082 33.3121 25.6238 33.0423 25.6238C32.2829 25.5354 32.0098 25.1754 32.0098 24.4774V23.4102H32.9045V24.4461C32.9045 24.7156 33.0853 24.9237 33.3863 24.9237C33.507 24.9343 33.8227 24.8761 33.9022 24.7958V23.4102H34.8317ZM36.5862 23.4102V26.26C36.9299 26.292 37.2746 26.3239 37.5842 26.3875V23.4102H38.513V26.5785C38.8573 26.642 39.2018 26.7375 39.5458 26.8327L39.5117 23.4102H40.4404L40.4746 28.0426C38.9103 27.4316 37.3463 27.0961 35.6575 26.9601V23.4102H36.5862ZM41.4729 28.5837L41.3004 28.5198L41.2662 23.4102H42.1954V26.1649C43.0023 25.2609 43.5019 24.4284 44.0611 23.4102H44.3707L44.3973 30.0482L43.4678 29.5164L43.4682 26.3555C42.9143 27.171 42.2277 27.8992 41.4725 28.5837H41.4729ZM46.0496 30.9706L45.189 30.4622L46.3251 27.1838L45.2352 23.4105H46.1487L46.7728 25.6877L47.3632 23.4105H48.2906L47.2542 27.4703L48.4241 32.3403L47.4953 31.8308L46.7732 28.9661L46.0499 30.9709L46.0496 30.9706Z" fill="#095540"/>
<path fill-rule="evenodd" clip-rule="evenodd" d="M46.7459 33.7676C48.0531 33.7676 49.12 34.8181 49.12 36.1229C49.12 37.396 48.0531 38.4778 46.7459 38.4778C45.4383 38.4778 44.3711 37.396 44.3711 36.1229C44.3714 34.8178 45.4383 33.7676 46.7459 33.7676ZM46.7459 35.5498C46.4359 35.5498 46.1608 35.8044 46.1608 36.1229C46.1608 36.409 46.4356 36.6636 46.7459 36.6636C47.0554 36.6636 47.2962 36.409 47.2962 36.1229C47.2962 35.8044 47.0558 35.5498 46.7459 35.5498Z" fill="#095540"/>
<path fill-rule="evenodd" clip-rule="evenodd" d="M39.2656 33.8604H45.1645V35.5805L43.4905 35.5744L43.503 38.3792H40.8654V35.6121L39.2656 35.6178V33.8604Z" fill="#095540"/>
<path fill-rule="evenodd" clip-rule="evenodd" d="M38.8051 38.4778H36.7885C35.4809 38.4778 34.4141 37.396 34.4141 36.1229C34.4141 34.8178 35.4809 33.7676 36.7885 33.7676H38.8104L38.8072 35.5498H36.7882C36.4789 35.5498 36.2031 35.8044 36.2031 36.1229C36.2031 36.409 36.4789 36.6636 36.7882 36.6636H38.8044L38.8047 38.4778H38.8051Z" fill="#095540"/>
</g>
</svg>
