<svg width="72" height="72" viewBox="0 0 72 72" fill="none" xmlns="http://www.w3.org/2000/svg">
<g opacity="0.8">
<path d="M36 71C55.33 71 71 55.33 71 36C71 16.67 55.33 1 36 1C16.67 1 1 16.67 1 36C1 55.33 16.67 71 36 71Z" fill="white" fill-opacity="0.2" stroke="#095540" stroke-miterlimit="10"/>
<path fill-rule="evenodd" clip-rule="evenodd" d="M31.974 40.9469H31.9486C29.2476 40.9469 26.3954 40.0064 23.7167 40.3994C23.1942 40.4763 22.6682 40.6409 22.1379 40.6519L21.3008 40.6688L21.3201 39.8453C21.3432 38.8378 21.689 38.6768 22.1967 38.1041C22.0932 37.6141 21.7057 36.6234 21.5982 36.155C21.2736 34.7413 21.2918 33.3517 21.7653 31.9691C22.3459 30.2736 22.3697 28.8763 22.3697 27.1036V26.3153H22.8547C22.8078 26.2729 22.768 26.2363 22.739 26.2077C21.9428 25.4341 21.3194 24.0797 21.3194 22.973V21.7203L22.468 22.2623C23.2474 22.6301 24.3469 22.6268 25.1973 22.6268C26.2667 22.6268 28.0201 22.05 29.0957 21.7847C30.107 21.5348 31.2028 21.2998 32.2486 21.2998C32.9268 21.2998 33.5763 21.4392 34.2403 21.552C36.648 21.9615 38.6601 23.0067 41.174 22.5038C41.7926 22.3805 42.5392 22.1254 43.2002 21.9735C43.1697 23.3203 43.0402 24.6502 42.1272 25.7609V27.1029C42.1272 28.2879 42.0926 29.534 42.3401 30.6988C42.6025 31.9351 43.102 32.7468 43.102 34.11V34.6205C43.3722 34.7178 43.623 34.8258 43.8426 34.9469C44.3663 35.2353 44.8379 35.6115 45.3035 35.9815C46.4503 36.8928 47.7969 38.2874 49.343 38.4137L50.7008 38.5249L49.9426 39.6382C49.5693 40.1861 49.0851 40.5656 48.5074 40.8452H48.5826L47.9599 42.0023C47.5698 42.7269 47.2587 43.464 47.0845 44.2673C46.9687 44.799 46.9259 45.3582 46.764 45.8764C46.7127 46.0415 46.6494 46.2025 46.5723 46.3573C46.2705 46.9644 46.0769 47.3037 45.6162 47.8548L44.743 48.8173C44.8063 49.0954 44.9015 49.2865 44.9015 49.6733V50.6998L43.8929 50.4348C43.476 50.3258 42.7674 49.7227 42.3055 49.487C41.5242 49.0874 40.7683 48.8572 39.9383 48.5871C39.632 48.4876 39.3308 48.3726 39.029 48.2614C37.0772 47.5445 35.9334 46.8671 34.2176 45.7414C33.2439 45.1024 32.3979 44.6585 31.2404 44.3935L30.1118 44.1348L30.7558 43.1873C31.0464 42.7606 31.2739 42.6329 31.6941 42.5136C31.7432 42.2651 31.764 41.8834 31.8001 41.6847C31.8422 41.4527 31.8999 41.202 31.9721 40.9465L31.974 40.9469ZM27.898 48.7148C27.0505 48.7148 26.9828 47.8127 27.3736 47.4614C28.0908 46.8177 29.0768 47.7875 28.4228 48.4923C28.3059 48.6186 28.1429 48.7145 27.898 48.7145V48.7148ZM26.0981 47.8296V48.1981C26.0981 48.9476 26.9109 49.7476 27.6732 49.7476H28.048C28.9104 49.7476 29.6983 48.949 29.6983 47.9035C29.6983 47.0684 28.9011 46.2072 27.8232 46.2072C26.9467 46.2072 26.0984 46.9754 26.0984 47.8299L26.0981 47.8296ZM23.9974 44.7317C24.3178 44.7317 24.5974 44.5048 24.5974 44.2157C24.5974 43.9657 24.326 43.6989 24.0718 43.6989C23.2697 43.6989 23.3814 44.7317 23.9974 44.7317ZM48.002 29.1691C49.3326 29.1691 49.0132 28.0632 48.3023 28.0632C47.9599 28.0632 47.0707 27.968 47.1221 28.6443C47.1496 29.0092 47.5583 29.1695 48.002 29.1695V29.1691ZM44.2509 28.5049C44.2509 28.8866 44.3086 29.1691 45.0761 29.1691C45.5257 29.1691 45.8804 29.0952 45.9966 28.7391C46.2846 27.8538 44.2513 27.8575 44.2513 28.5049H44.2509ZM46.0513 26.7351C46.0513 27.0828 45.9136 28.0628 46.5013 28.0628C47.2453 28.0628 47.1012 27.3777 47.1012 26.8826C47.1012 26.0394 46.0509 26.2432 46.0509 26.7347L46.0513 26.7351ZM46.0513 29.6847V30.349C46.0513 31.0977 47.1016 31.0977 47.1016 30.349C47.1016 29.7155 47.2207 29.1687 46.5761 29.1687C46.2262 29.1687 46.0513 29.3407 46.0513 29.6847ZM39.8999 27.104C39.8999 27.4297 40.1422 27.6204 40.4999 27.6204C40.6704 27.6204 41.1796 27.2002 41.3255 27.104C41.3255 28.5148 41.3065 29.6899 41.5551 30.861C41.7877 31.9555 42.3002 32.8192 42.3002 34.1107C41.6426 33.9599 39.2769 33.4688 38.8481 33.3012C36.737 32.473 37.0843 31.5296 36.3745 31.5296C36.1448 31.5296 35.9885 31.6932 35.8992 31.8732C35.818 32.0364 35.7347 32.2739 35.6695 32.4587C34.9337 34.5349 36.0845 33.4282 34.6255 36.3003C34.3162 36.9085 33.7356 37.7729 33.2815 38.2241C32.2155 39.2832 32.546 39.0483 31.9486 40.1586C29.3607 40.1586 26.3593 39.2148 23.5987 39.6199C23.1119 39.6913 22.5309 39.8556 22.1215 39.864C22.1464 38.795 23.0218 38.6684 23.0218 38.2417C23.0218 37.5098 21.523 35.15 22.5253 32.2212C23.1313 30.4522 23.1718 29.1281 23.1718 27.1043C23.1726 27.1043 24.3175 28.1975 24.5616 27.2086C24.6666 26.786 23.8332 26.1631 23.3028 25.6474C22.6887 25.0509 22.1215 23.904 22.1215 22.9734C23.0226 23.3986 24.1567 23.4154 25.1977 23.4154C26.8804 23.4154 29.9693 22.0888 32.249 22.0888C32.8669 22.0888 33.5208 22.2308 34.1037 22.3296C36.5985 22.7541 38.5786 23.8286 41.334 23.2771C41.7442 23.1955 41.9962 23.0605 42.3758 22.9734C42.3605 23.6442 41.8026 24.9576 41.4587 25.3177C40.9708 25.829 39.9003 26.6535 39.9003 27.104H39.8999ZM36.4497 34.2586L36.5241 33.1522C36.9808 33.2716 37.4832 34.1876 39.7425 34.634C40.8624 34.8554 42.5894 35.1603 43.4503 35.6357C43.923 35.8955 44.3842 36.2659 44.7992 36.5956C46.1119 37.6393 47.4652 39.0523 49.276 39.2005C48.2871 40.6523 46.4253 40.32 46.4253 41.1185C46.4253 41.6949 47.0737 41.6345 47.2512 41.6345C45.953 44.0466 46.3423 45.0263 45.8521 46.0122C45.5388 46.6424 45.4569 46.8052 45.018 47.3311L43.9539 48.5044C43.811 48.8195 44.1006 49.1009 44.1006 49.6744C43.9279 49.629 43.2412 49.0771 42.6762 48.7884C41.7881 48.3346 41.1025 48.1362 40.1906 47.8398C39.9051 47.7468 39.6081 47.6349 39.3104 47.5243C37.1933 46.7474 36.5412 46.3185 34.6631 45.0867C33.6675 44.4334 32.7563 43.9321 31.4227 43.6268C31.7946 43.0797 32.0599 43.3963 32.3428 43.0559C32.5036 42.8627 32.5282 42.1666 32.5903 41.8237C32.7254 41.0742 33.0418 40.1754 33.3857 39.655L34.4428 38.4825C34.8071 38.0843 35.7384 36.6421 35.8489 36.1766C36.7254 37.1687 36.9737 36.1766 36.9737 36.1766C36.9737 35.5691 36.4489 34.8657 36.4489 34.2589L36.4497 34.2586ZM23.3218 34.4057C23.3218 35.3546 23.5489 36.5085 23.9966 37.2829C24.4622 38.0862 25.2666 37.5544 25.0235 36.944C24.8877 36.6047 24.7786 36.462 24.6424 36.0576C24.2255 34.8214 24.4459 33.1259 24.8125 31.9625C24.8877 31.7239 25.0894 31.2705 25.0793 31.0955C25.0619 30.7713 24.3714 30.0247 23.9118 31.2979C23.8031 31.5991 23.7067 31.92 23.6214 32.2663C23.483 32.8251 23.3218 33.7308 23.3218 34.406V34.4057ZM41.9254 47.2396C41.9254 47.6583 42.3572 47.9785 43.1522 47.487C44.1776 46.8532 44.8695 45.5079 45.3229 44.4579C45.3943 44.2933 45.5689 43.8102 45.5704 43.696C45.5752 43.188 44.8252 42.9066 44.536 43.5368C44.453 43.7176 44.3764 43.9445 44.2833 44.1732C43.9375 45.0329 43.2534 46.2998 42.365 46.7123C42.1458 46.814 41.9254 46.952 41.9254 47.2393V47.2396Z" fill="#095540"/>
</g>
</svg>
