<svg width="72" height="72" viewBox="0 0 72 72" fill="none" xmlns="http://www.w3.org/2000/svg">
<g opacity="0.8">
<path d="M36 71C55.33 71 71 55.33 71 36C71 16.67 55.33 1 36 1C16.67 1 1 16.67 1 36C1 55.33 16.67 71 36 71Z" fill="white" fill-opacity="0.2" stroke="#095540" stroke-miterlimit="10"/>
<path fill-rule="evenodd" clip-rule="evenodd" d="M38.6587 21.0745C37.9252 20.3408 36.9632 19.9737 36.0011 19.9737C35.0395 19.9737 34.0771 20.3408 33.3436 21.0745C32.61 21.8075 32.2431 22.7702 32.2431 23.7328C32.2431 24.6951 32.61 25.6581 33.3429 26.3918C34.0764 27.1248 35.0391 27.4918 36.0011 27.4918C36.9635 27.4918 37.9259 27.1248 38.6594 26.3918C39.3922 25.6573 39.7592 24.6947 39.7592 23.7328C39.7592 22.7705 39.3922 21.8082 38.6587 21.0745ZM38.5848 22.913L36.8939 22.655L36.1335 21.0365L35.373 22.655L33.6822 22.913L34.9057 24.1659L34.6159 25.9404L36.1335 25.1023L37.6511 25.9404L37.3613 24.1659L38.5848 22.913ZM36.1321 24.3894L35.3684 24.8178L35.514 23.9535L34.8565 23.2822L35.7454 23.1659L36.1321 22.3432L36.5144 23.1659L37.4011 23.2918L36.7497 23.9563L36.886 24.8206L36.1321 24.389V24.3894ZM21.3011 48.6002H50.7008V33.4205L44.5208 29.0056V22.3389H40.313C40.0996 21.6766 39.7305 21.0537 39.2046 20.5277C38.3201 19.6429 37.1601 19.2002 36.0008 19.2002C34.8418 19.2002 33.6818 19.6426 32.7969 20.5292C32.2718 21.0548 31.902 21.6773 31.6886 22.3389H27.4807V29.0056L21.3008 33.4205V48.6002H21.3011ZM40.5074 23.2631H43.5972V37.4371L39.5536 40.0818L36.5263 38.511L33.2442 40.0965L28.4047 37.1573V23.2631H28.791H31.4945C31.4784 23.4192 31.4701 23.5756 31.4701 23.7328C31.4701 24.7295 31.7976 25.7262 32.4533 26.5504L30.5199 29.6205L33.0702 29.5524L34.1288 31.8895L36.0004 28.9177L37.8725 31.8895L38.9317 29.5524L41.4813 29.6205L39.549 26.5518C40.2039 25.7291 40.5314 24.7302 40.5314 23.7328C40.5314 23.576 40.5232 23.4196 40.507 23.2631H40.5074ZM39.002 27.128C38.2745 27.7713 37.3911 28.142 36.4843 28.2385L37.7616 30.2664L38.4403 28.7684L40.0623 28.8115L39.002 27.1277V27.128ZM35.5173 28.2385C34.6101 28.1416 33.727 27.7713 33.0003 27.127L31.9396 28.8115L33.5616 28.7684L34.2403 30.2656L35.5173 28.2381V28.2385ZM30.7412 35.7706H41.261V36.5434H30.7412V35.7706ZM30.7412 33.8385H41.261V34.6113H30.7412V33.8385ZM27.4581 36.5883L22.5982 33.6311L27.4581 30.1042V36.5883ZM32.1036 40.6476L22.2244 45.4166V34.5274L32.1036 40.648V40.6476ZM44.5381 30.0931L49.403 33.6307L44.5011 36.684L44.5381 30.0931ZM49.7768 34.5482V45.3836L40.4615 40.6128L49.7768 34.5482ZM36.6755 39.6545L49.7768 46.4492V47.6756H22.2244V46.4622L36.5051 39.5659L36.6755 39.6541V39.6545Z" fill="#095540"/>
</g>
</svg>
