<svg width="328" height="95" viewBox="0 0 328 95" fill="none" xmlns="http://www.w3.org/2000/svg">
<path d="M75.754 42.3364C75.6223 42.6526 75.4034 42.9248 75.1228 43.121C74.7249 43.4073 74.2915 43.6407 73.8335 43.8155C73.2869 44.0431 72.7232 44.2271 72.1475 44.3656C71.4997 44.5128 70.8372 44.5854 70.173 44.582C69.7 44.5764 69.2311 44.4941 68.7845 44.3385C68.2926 44.176 67.8208 43.9581 67.378 43.6892C66.9426 43.4267 66.5321 43.1248 66.1518 42.7874C65.7963 42.459 65.4924 42.079 65.2502 41.66C64.3728 40.021 63.9436 38.1793 64.0059 36.3211V17.9414C63.9423 15.799 64.5099 13.6852 65.6379 11.8629C66.1888 10.957 66.9714 10.2145 67.9049 9.71197C68.8384 9.20943 69.889 8.96506 70.9484 9.00403C72.5192 9.05696 74.0588 9.45735 75.4564 10.1764C75.3392 10.6634 75.204 11.2677 75.0417 11.9801C74.8794 12.6926 74.6991 13.5223 74.5007 14.4783C74.3294 15.5785 74.1491 17.6167 73.9778 20.6018H73.8876C73.3737 19.4745 72.986 18.7079 72.7606 18.3021C72.556 17.936 72.2616 17.628 71.9051 17.4071C71.5486 17.1862 71.1418 17.0597 70.723 17.0395C70.376 17.0593 70.0406 17.1707 69.7507 17.3624C69.4609 17.5541 69.227 17.8192 69.073 18.1308C68.6393 18.9242 68.4451 19.8264 68.514 20.7281V34.1747C68.5144 34.7921 68.6306 35.4039 68.8566 35.9784C68.951 36.2632 69.1361 36.5092 69.3837 36.6786C69.6312 36.848 69.9275 36.9315 70.2271 36.9163H70.5246C71.3902 36.8562 72.5923 35.5665 74.1311 33.0474C74.3247 32.6735 74.5415 32.312 74.7802 31.9652H74.8253C74.8543 31.9763 74.8864 31.9763 74.9155 31.9652C74.9313 32.0089 74.9313 32.0567 74.9155 32.1004C74.9155 32.3259 74.9155 32.6415 74.9155 33.0023C74.9155 33.363 74.8343 33.841 74.7802 34.328C74.7261 34.815 74.681 35.2298 74.654 35.6537C74.6269 36.0776 74.654 36.3662 74.654 36.6277C74.6849 38.5802 75.0572 40.5123 75.754 42.3364V42.3364Z" fill="#623C21"/>
<path d="M85.4284 29.6652L86.7267 28.3575C87.1054 27.9878 87.421 27.6812 87.6824 27.4557V25.7151C87.699 25.0506 87.4602 24.4051 87.0153 23.9114C86.7845 23.6676 86.5041 23.4762 86.193 23.3502C85.8819 23.2242 85.5474 23.1665 85.212 23.1809C84.523 23.258 83.8838 23.5776 83.4088 24.0828C82.5872 24.8679 81.8989 25.7817 81.3712 26.7883C81.308 26.9056 81.2269 27.0499 81.1277 27.2032L80.7581 27.7894C80.7318 27.7983 80.7032 27.7983 80.6769 27.7894V27.8345C80.6448 27.797 80.6287 27.7484 80.6318 27.6992C80.6318 27.4737 80.6318 27.1761 80.6769 26.7973C80.722 26.4186 80.749 26.0488 80.8031 25.5798C80.8572 25.1109 80.9023 24.678 80.9384 24.3443C80.9744 24.0106 80.9384 23.686 80.9384 23.4425C80.8513 21.6433 80.4611 19.8719 79.7843 18.2027C79.9321 17.9107 80.1565 17.6644 80.4335 17.4902C80.8477 17.2144 81.2925 16.9875 81.7589 16.8139C82.3452 16.599 82.9483 16.4331 83.5621 16.3178C84.2629 16.1806 84.9758 16.1141 85.6899 16.1194C86.7199 16.1268 87.7301 16.4035 88.6201 16.9221C89.4597 17.365 90.1591 18.0334 90.6397 18.852C91.4663 20.3515 91.8713 22.0469 91.8118 23.7581V42.5166C91.8118 42.9495 92.1725 43.4185 92.9028 44.0768V44.158H83.6883C83.1632 44.1495 82.6462 44.0264 82.1736 43.7972C81.6484 43.5447 81.1649 43.2132 80.74 42.8142C80.3112 42.4132 79.9517 41.9439 79.6761 41.4254C79.3986 40.9191 79.25 40.3523 79.2434 39.775C79.2288 38.9165 79.3505 38.0611 79.604 37.2408C79.8801 36.4496 80.2688 35.7024 80.7581 35.0222C81.3535 34.1911 81.9978 33.396 82.6875 32.6413C83.4749 31.7876 84.3886 30.7955 85.4284 29.6652ZM87.8988 32.7856V32.6594C87.7176 32.6468 87.5357 32.6707 87.3638 32.7295C87.1919 32.7884 87.0336 32.8811 86.898 33.0021C86.468 33.321 86.0667 33.6771 85.6989 34.0663C85.33 34.4542 84.9809 34.8605 84.653 35.2838C84.4462 35.5125 84.2977 35.7879 84.2203 36.0864C84.1801 36.436 84.2742 36.7878 84.4834 37.0707C84.6926 37.3536 85.0013 37.5466 85.3473 37.6105C85.5509 37.6355 85.7568 37.6355 85.9604 37.6105H87.8988V32.7856Z" fill="#623C21"/>
<path d="M117.363 44.1598H110.15C109.97 44.1598 109.889 44.1598 109.889 44.0786C110.231 43.8441 110.583 43.5916 110.952 43.321C111.115 43.2126 111.249 43.0667 111.343 42.8956C111.437 42.7245 111.489 42.5333 111.493 42.338V24.6347L106.372 30.5328L101.341 24.6347V41.4272C101.314 41.9729 101.453 42.514 101.74 42.9792C102.026 43.4444 102.447 43.812 102.946 44.0335V44.1237C102.917 44.1333 102.885 44.1333 102.856 44.1237H95.2734L95.7783 43.799C95.9343 43.699 96.0848 43.5906 96.2291 43.4744C96.8152 43.0415 97.1308 42.6266 97.1308 42.2208V19.6745C97.1653 19.2276 97.1025 18.7785 96.9469 18.3581C96.7912 17.9378 96.5464 17.5561 96.2291 17.2395L95.7333 16.8968C95.571 16.7796 95.4267 16.6804 95.2734 16.5902V16.5H104.001L106.345 19.8008L108.771 16.5H117.453C117.308 16.6464 117.148 16.7764 116.975 16.8878C116.804 17.005 116.642 17.1223 116.497 17.2395C116.181 17.5038 115.954 17.8599 115.848 18.2586C115.726 18.7326 115.668 19.2211 115.677 19.7106V41.355C115.638 41.8845 115.712 42.4162 115.893 42.9152C116.313 43.303 116.779 43.6363 117.282 43.9072C117.323 43.9306 117.36 43.9612 117.39 43.9974C117.407 44.0302 117.428 44.0605 117.453 44.0876L117.363 44.1598Z" fill="#623C21"/>
<path d="M130.634 40.6041C130.189 41.7629 129.423 42.7705 128.425 43.5081C127.429 44.237 126.223 44.6202 124.989 44.5993C124.253 44.6165 123.519 44.4973 122.826 44.2476C122.185 44.0126 121.597 43.6524 121.097 43.1878C120.597 42.7233 120.195 42.1639 119.913 41.5421C119.361 40.2515 119.082 38.8605 119.093 37.4567V23.974C119.018 22.0561 119.548 20.1632 120.608 18.5629C121.151 17.7849 121.88 17.1548 122.729 16.7296C123.578 16.3044 124.519 16.0976 125.467 16.1279C126.577 16.1932 127.639 16.603 128.506 17.3003C129.398 17.9748 130.095 18.8742 130.525 19.9067C130.964 21.2037 131.162 22.5697 131.111 23.9379V37.5649C131.125 38.5977 130.963 39.6253 130.634 40.6041ZM127.207 27.1846C127.207 24.8458 126.57 23.6764 125.296 23.6764C124.974 23.6608 124.653 23.7213 124.358 23.8529C124.064 23.9845 123.804 24.1835 123.601 24.434C123.198 24.9479 122.985 25.5849 122.997 26.2377V34.3543C123.002 35.0415 123.149 35.7201 123.43 36.3474C123.533 36.6673 123.73 36.9486 123.995 37.1546C124.261 37.3606 124.582 37.4816 124.917 37.5018C126.45 37.5018 127.216 36.4917 127.216 34.4625L127.207 27.1846Z" fill="#623C21"/>
<path d="M149.827 16.6434C149.674 16.7606 149.53 16.8779 149.367 16.9861L148.907 17.3378C148.611 17.5779 148.412 17.9177 148.348 18.2938V42.2109C148.348 42.8121 148.826 43.4344 149.782 44.0777C149.737 44.1245 149.676 44.1533 149.611 44.1588H143.056V44.0777L144.012 43.4464C144.171 43.3129 144.295 43.1413 144.37 42.9473C144.446 42.7534 144.472 42.5435 144.444 42.3371V29.2332C144.059 29.6349 143.709 30.0695 143.399 30.5319C142.798 31.3195 142.004 32.4498 141.018 33.9228C140.551 34.4638 140.21 35.1013 140.018 35.7897V42.4273C140.018 42.8331 140.495 43.3291 141.451 43.9875C141.451 44.1047 141.451 44.1588 141.271 44.1588H134.68C134.617 44.1588 134.59 44.1588 134.59 44.1588C134.664 44.0897 134.746 44.0292 134.833 43.9785C135.023 43.8468 135.204 43.7022 135.374 43.5456C135.571 43.4321 135.739 43.2759 135.867 43.0886C135.995 42.9013 136.079 42.6876 136.114 42.4634V18.2487C136.114 17.9871 135.861 17.6715 135.374 17.2927C134.887 16.9139 134.635 16.7155 134.635 16.5983H134.725H141.451C141.384 16.6897 141.302 16.769 141.208 16.8328L140.667 17.2927C140.234 17.6985 140.018 17.9691 140.018 18.1134V25.1478C139.998 25.2971 140.026 25.4488 140.099 25.5807C140.595 24.8863 141.208 24.0115 141.902 22.9563C142.596 21.9012 143.471 20.6476 144.399 19.2046V18.1585C144.399 17.897 143.949 17.3829 143.056 16.5983H143.137H149.602L149.827 16.6434ZM146.572 12.2514C146.614 12.7919 146.502 13.3333 146.248 13.8123C145.994 14.2914 145.61 14.6883 145.139 14.9569C144.164 15.3651 143.11 15.5441 142.055 15.48H141.361L139.711 15.4078H139.621C139.597 14.9612 139.534 14.5176 139.432 14.0821C139.335 13.6745 139.212 13.2737 139.062 12.8827C139.02 12.7065 138.963 12.5344 138.891 12.3686V12.3235C140.005 12.8885 141.25 13.1439 142.497 13.063C144.58 13.063 145.878 12.6662 146.401 11.8906H146.491C146.537 12.0057 146.565 12.1275 146.572 12.2514V12.2514Z" fill="#623C21"/>
<path d="M165.364 16.5508V16.641C165.268 16.7347 165.166 16.8221 165.058 16.9025L164.751 17.1189C164.402 17.4298 164.121 17.8102 163.927 18.2357C163.733 18.6611 163.63 19.1224 163.624 19.59V20.8977C163.64 21.1159 163.67 21.3327 163.714 21.547C163.769 21.8897 163.841 22.3677 163.931 22.981L168.096 41.4238C168.439 42.957 168.998 43.7867 169.791 43.9039C169.936 43.958 170.008 44.0031 170.008 44.0302C170.008 44.0572 169.945 44.1564 169.827 44.1564H163.02C162.93 44.1564 162.885 44.1294 162.885 44.0753C163.196 43.9012 163.455 43.6491 163.639 43.3438C163.822 43.0386 163.923 42.6907 163.931 42.3347V42.1633L160.974 28.6356H160.847L157.854 42.1633V42.3347C157.874 42.6869 157.979 43.029 158.159 43.332C158.34 43.6351 158.591 43.89 158.891 44.0753C158.892 44.0863 158.891 44.0975 158.888 44.108C158.884 44.1185 158.878 44.1281 158.87 44.1359C158.862 44.1438 158.853 44.1497 158.842 44.1533C158.832 44.1568 158.821 44.1579 158.81 44.1564H151.948C151.931 44.1597 151.913 44.1586 151.896 44.1534C151.88 44.1482 151.864 44.139 151.852 44.1266C151.84 44.1141 151.83 44.0989 151.825 44.0821C151.82 44.0653 151.819 44.0475 151.822 44.0302C151.822 43.9761 151.894 43.931 152.039 43.9039C152.823 43.7867 153.382 43.0021 153.734 41.4238C153.734 41.3066 153.887 40.7655 154.103 39.8005L155.005 35.9135C155.365 34.2902 155.792 32.3813 156.285 30.1868C156.772 27.9862 157.313 25.5783 157.89 22.972C158.007 22.3587 158.088 21.8807 158.151 21.538C158.19 21.3231 158.217 21.1064 158.233 20.8887V19.59C158.229 19.122 158.127 18.66 157.933 18.2342C157.738 17.8084 157.457 17.4284 157.106 17.1189C156.991 17.0574 156.882 16.9849 156.781 16.9025C156.682 16.8123 156.574 16.7312 156.456 16.641V16.5508H165.364Z" fill="#623C21"/>
<path d="M182.93 40.6043C182.486 41.7631 181.719 42.7706 180.721 43.5083C179.726 44.2372 178.52 44.6204 177.286 44.5995C176.55 44.6167 175.816 44.4974 175.122 44.2478C174.482 44.0128 173.894 43.6525 173.394 43.188C172.894 42.7235 172.492 42.164 172.21 41.5422C171.658 40.2516 171.378 38.8607 171.39 37.4568V23.9742C171.315 22.0562 171.845 20.1633 172.904 18.5631C173.448 17.7844 174.177 17.1539 175.025 16.7286C175.874 16.3034 176.815 16.097 177.764 16.1281C178.874 16.1933 179.936 16.6031 180.803 17.3005C181.695 17.9749 182.392 18.8744 182.822 19.9068C183.261 21.2038 183.459 22.5699 183.408 23.9381V37.5651C183.422 38.5979 183.26 39.6255 182.93 40.6043ZM179.504 27.1847C179.504 24.849 178.864 23.6765 177.593 23.6765C177.271 23.661 176.949 23.7214 176.655 23.853C176.361 23.9846 176.101 24.1837 175.898 24.4341C175.495 24.948 175.282 25.585 175.294 26.2378V34.3545C175.299 35.0416 175.446 35.7203 175.727 36.3476C175.827 36.6607 176.017 36.9374 176.273 37.1427C176.53 37.3481 176.842 37.4731 177.169 37.5019C178.702 37.5019 179.468 36.4918 179.468 34.4627L179.504 27.1847Z" fill="#623C21"/>
<path d="M201.68 39.3067C201.727 40.4877 201.413 41.655 200.779 42.6525C200.459 43.1376 200.02 43.532 199.504 43.7974C198.987 44.0629 198.411 44.1904 197.831 44.1676H186.885C187.062 44.0415 187.246 43.9242 187.435 43.8159L188.192 43.383C188.424 43.2133 188.613 42.9905 188.741 42.7332C188.87 42.476 188.935 42.1916 188.932 41.904V19.5922C188.98 18.9604 188.829 18.3295 188.499 17.7885C188.349 17.6223 188.172 17.4821 187.976 17.3736L186.93 16.7604H186.84V16.6702C186.998 16.649 187.159 16.649 187.318 16.6702H196.262C197.281 16.6091 198.299 16.8208 199.21 17.2835C199.837 17.7071 200.356 18.2725 200.725 18.9338C201.127 19.556 201.352 20.2764 201.374 21.0171V22.1715C201.298 22.7315 201.153 23.2799 200.941 23.8038C200.731 24.3266 200.472 24.8279 200.166 25.3009C199.841 25.7879 199.471 26.2929 199.057 26.798C198.642 27.303 198.155 27.8622 197.686 28.4664V28.6378C197.948 29.3322 198.308 30.1619 198.75 31.1178C199.192 32.0738 199.652 33.0478 200.076 34.0489C200.499 35.0499 200.887 36.0149 201.203 36.9528C201.483 37.7078 201.645 38.5019 201.68 39.3067V39.3067ZM196.451 24.5434C196.451 23.7046 196.126 23.2808 195.495 23.2808H192.79V28.4844H193.007L193.908 27.5826L195.081 26.3651C195.434 26.007 195.768 25.6307 196.081 25.2378C196.258 25.0393 196.385 24.8011 196.451 24.5434ZM197.055 36.087C197.024 35.4416 196.815 34.8172 196.451 34.2833L195.09 32.0918C195.026 32.0918 194.99 32.0918 194.981 32.0918C194.972 32.0918 194.927 32.0918 194.873 32.0918L194.567 32.173C194.395 32.3173 194.224 32.4706 194.062 32.633C193.895 32.799 193.714 32.9499 193.521 33.0839C193.007 33.5168 192.745 33.8144 192.745 33.9857V37.5931H195.306C196.46 37.533 197.037 37.031 197.037 36.087H197.055Z" fill="#623C21"/>
<path d="M215.96 42.5176C215.826 42.7993 215.624 43.044 215.374 43.23C215.02 43.5036 214.632 43.7309 214.22 43.9064C213.15 44.361 212.001 44.5971 210.839 44.6008C209.915 44.5736 209.018 44.286 208.251 43.7711C207.452 43.2977 206.776 42.6428 206.277 41.8592C205.483 40.3488 205.095 38.6585 205.15 36.9532V24.3272C205.088 22.3502 205.619 20.3999 206.673 18.7267C207.183 17.8896 207.905 17.203 208.767 16.7371C209.629 16.2712 210.599 16.0428 211.578 16.0753C213.013 16.1449 214.417 16.5168 215.698 17.1665C215.608 17.5994 215.491 18.1496 215.329 18.8079C215.167 19.4663 215.004 20.2419 214.833 21.1076C214.77 21.6037 214.698 22.3161 214.617 23.2631C214.535 24.21 214.436 25.3644 214.355 26.7532H214.265C213.956 26.0264 213.61 25.316 213.228 24.6249C213.037 24.2949 212.766 24.0186 212.44 23.8216C212.113 23.6245 211.743 23.513 211.362 23.4975C211.042 23.5139 210.732 23.6153 210.464 23.7913C210.196 23.9672 209.98 24.2114 209.838 24.4986C209.434 25.2271 209.252 26.0579 209.315 26.8885V35.0052C209.319 35.5735 209.438 36.1351 209.667 36.6555C209.955 37.2598 210.343 37.5574 210.839 37.5574H211.136C211.924 37.5033 213.009 36.3008 214.391 33.95C214.571 33.6046 214.776 33.2731 215.004 32.958V32.958C215.031 32.9669 215.059 32.9669 215.085 32.958C215.116 32.9927 215.132 33.0379 215.13 33.0842C215.13 33.3187 215.13 33.6073 215.085 33.9861C215.04 34.3648 215.013 34.7346 214.959 35.2036C214.905 35.6725 214.86 36.1054 214.824 36.412C214.788 36.7187 214.824 37.0524 214.824 37.3139C214.891 39.1022 215.275 40.8643 215.96 42.5176V42.5176Z" fill="#623C21"/>
<path d="M236.405 44.1572H228.507C228.447 44.1699 228.386 44.1699 228.326 44.1572L229.417 42.9127C229.674 42.402 229.792 41.8329 229.76 41.2623C229.744 40.428 229.629 39.5985 229.417 38.7912C229.189 37.8347 228.887 36.8971 228.516 35.9865C228.125 35.0542 227.67 34.1501 227.154 33.2809C226.664 32.4618 226.097 31.6917 225.459 30.9812C225.171 30.9812 225.027 31.0534 225.027 31.1977V41.9026C224.99 42.3715 225.128 42.8373 225.414 43.2103C225.764 43.4911 226.142 43.7359 226.541 43.9408V44.0761V44.1572H219.473V44.0761C219.473 44.0761 219.545 44.0039 219.689 43.9408C220.144 43.7673 220.527 43.4467 220.779 43.03C221.031 42.6133 221.136 42.1244 221.078 41.6411V18.4184C221.078 17.8683 220.573 17.3092 219.554 16.732V16.5967H219.635H226.496C226.496 16.5967 226.568 16.5967 226.622 16.6869L225.973 17.255C225.789 17.3729 225.634 17.532 225.521 17.7198C225.409 17.9076 225.341 18.1189 225.324 18.3373V27.1033H225.414C226.18 27.0403 226.918 26.7861 227.56 26.3637C228.093 25.8309 228.413 25.1225 228.462 24.3706C228.516 23.7844 228.588 23.2073 228.66 22.6301C228.732 22.0529 228.795 21.4757 228.849 20.8985C229.061 19.6013 229.658 18.3977 230.562 17.4444C231.011 17.0364 231.536 16.7211 232.107 16.5168C232.678 16.3125 233.284 16.2232 233.889 16.254C235.161 16.254 235.792 16.4344 235.792 16.8131C235.763 16.8983 235.742 16.9858 235.729 17.0747C235.684 17.2821 235.639 17.5977 235.575 18.0306C235.494 18.6078 235.422 19.1489 235.359 19.6359C235.309 20.0671 235.282 20.5006 235.278 20.9346C235.278 21.4306 235.278 21.8996 235.341 22.3505C235.404 22.8014 235.431 23.2523 235.494 23.7123C235.56 23.9276 235.608 24.1478 235.639 24.3706C235.639 24.6322 235.738 24.9478 235.792 25.3266C235.658 25.215 235.534 25.0912 235.422 24.9568C235.271 24.7751 235.105 24.6062 234.926 24.4518C234.581 24.1782 234.22 23.9252 233.844 23.6943C233.557 23.5166 233.227 23.42 232.889 23.4147C232.312 23.4147 231.861 23.9197 231.545 24.9298C231.401 25.507 231.266 26.012 231.149 26.4269C231.044 26.8266 230.877 27.2072 230.653 27.5542C230.427 27.9035 230.14 28.2091 229.805 28.456C229.376 28.7612 228.909 29.0098 228.417 29.1955V29.3218C229.544 30.8549 230.463 32.1356 231.176 33.1456C231.804 34.0289 232.376 34.9506 232.889 35.9053C233.313 36.706 233.674 37.5381 233.971 38.3944C234.259 39.2331 234.566 40.2522 234.872 41.4337C235.028 42.0236 235.239 42.5974 235.503 43.1472C235.588 43.3375 235.712 43.5076 235.867 43.646C236.023 43.7844 236.206 43.888 236.405 43.9498C236.459 43.9498 236.486 43.9498 236.486 44.04L236.405 44.1572Z" fill="#623C21"/>
<path d="M246.642 44.076C246.582 44.1287 246.505 44.1576 246.426 44.1571H239.348L239.258 44.076C239.313 44.0197 239.374 43.9684 239.438 43.9227L239.609 43.7693C239.853 43.5819 240.084 43.3801 240.304 43.1651C240.451 43.0214 240.581 42.861 240.691 42.6871C240.909 42.2253 241.014 41.7184 240.998 41.2081V19.5637C241.028 18.9564 240.877 18.3538 240.565 17.8321L239.258 16.6597C239.258 16.5966 239.303 16.5695 239.393 16.5695H246.507C246.507 16.5695 246.579 16.5695 246.642 16.6597C246.489 16.777 246.344 16.8942 246.182 17.0024C246.022 17.1224 245.871 17.2551 245.731 17.3992C245.534 17.5722 245.378 17.7861 245.272 18.026C245.166 18.2659 245.113 18.5259 245.118 18.7881V42.0107C245.112 42.2797 245.164 42.5468 245.27 42.7941C245.375 43.0414 245.533 43.2633 245.731 43.4447C245.876 43.5258 246.02 43.6341 246.182 43.7423L246.642 44.076ZM245.903 11.4741C245.909 11.7917 245.828 12.105 245.669 12.38C245.511 12.655 245.279 12.8813 245.001 13.0343C244.416 13.4055 243.737 13.6025 243.045 13.6024C242.367 13.5965 241.704 13.3996 241.133 13.0343C240.86 12.8757 240.633 12.6481 240.475 12.3743C240.318 12.1005 240.235 11.7901 240.235 11.4741C240.235 11.1581 240.318 10.8476 240.475 10.5738C240.633 10.3 240.86 10.0724 241.133 9.91387C241.704 9.54856 242.367 9.35164 243.045 9.3457C243.737 9.34559 244.416 9.54265 245.001 9.91387C245.275 10.072 245.502 10.2994 245.661 10.5733C245.819 10.8471 245.902 11.1578 245.903 11.4741V11.4741Z" fill="#623C21"/>
<path d="M264 16.6434C263.856 16.7606 263.702 16.8779 263.54 16.9861L263.089 17.3378C262.788 17.5747 262.585 17.9155 262.521 18.2938V42.2109C262.521 42.8121 262.999 43.4344 263.955 44.0777C263.91 44.126 263.849 44.1551 263.783 44.1588H257.229V44.0777L258.184 43.4464C258.344 43.3129 258.468 43.1413 258.543 42.9473C258.619 42.7534 258.644 42.5435 258.617 42.3371V29.2332C258.236 29.6363 257.889 30.0707 257.58 30.5319C256.979 31.3195 256.183 32.4498 255.191 33.9228C254.711 34.4604 254.357 35.0981 254.154 35.7897V42.4273C254.154 42.8331 254.632 43.3291 255.588 43.9875C255.588 44.1047 255.588 44.1588 255.417 44.1588H248.817C248.763 44.1588 248.727 44.1588 248.727 44.1588C248.804 44.0944 248.886 44.0342 248.97 43.9785C249.16 43.8468 249.341 43.7022 249.511 43.5456C249.709 43.4336 249.878 43.2779 250.006 43.0903C250.134 42.9027 250.218 42.6882 250.25 42.4634V18.2487C250.25 17.9871 250.007 17.6715 249.511 17.2927C249.015 16.9139 248.772 16.7155 248.772 16.5983H248.862H255.543C255.478 16.692 255.395 16.7717 255.299 16.8328L254.758 17.2927C254.326 17.6985 254.109 17.9691 254.109 18.1134V25.1478C254.109 25.3823 254.109 25.5266 254.199 25.5807L256.003 22.9563C256.742 21.8982 257.574 20.6476 258.5 19.2046V18.1585C258.5 17.897 258.049 17.3829 257.157 16.5983H257.238H263.711L264 16.6434ZM260.745 12.2514C260.787 12.7919 260.675 13.3333 260.421 13.8123C260.167 14.2914 259.782 14.6883 259.312 14.9569C258.337 15.3651 257.282 15.5441 256.228 15.48H255.534L253.884 15.4078H253.803C253.776 14.9609 253.71 14.5173 253.604 14.0821C253.508 13.6745 253.385 13.2737 253.235 12.8827C253.198 12.7052 253.14 12.5326 253.063 12.3686L253.108 12.3235C254.222 12.8914 255.468 13.147 256.715 13.063C258.798 13.063 260.105 12.6662 260.619 11.8906H260.709C260.74 12.0082 260.752 12.13 260.745 12.2514Z" fill="#623C21"/>
<path d="M111.9 68.4818C110.773 66.9126 110.097 66.0197 109.862 65.7762C109.503 65.3661 109.063 65.0349 108.57 64.8036C108.076 64.5723 107.54 64.4459 106.995 64.4325H106.824V83.4074C106.824 84.165 107.347 84.7692 108.384 85.2111C108.384 85.3013 108.384 85.3464 108.257 85.3464H101.099C101.07 85.3575 101.037 85.3575 101.008 85.3464C100.997 85.3174 100.997 85.2853 101.008 85.2562C101.465 85.1775 101.887 84.9603 102.217 84.6339C102.384 84.4827 102.517 84.2975 102.607 84.0906C102.698 83.8838 102.743 83.6601 102.74 83.4345V64.3964H102.523C102.233 64.4457 101.954 64.5498 101.703 64.703C100.903 65.1098 100.171 65.6359 99.5298 66.2632C98.8445 66.9301 98.2394 67.6747 97.7266 68.4818C97.8979 67.7513 98.0511 67.0208 98.1774 66.2632C98.3036 65.5057 98.4208 64.8203 98.5019 64.18C98.5831 63.5397 98.6552 62.9895 98.7003 62.5115C98.7454 62.0336 98.7634 61.6818 98.7634 61.4474C98.7634 61.0686 98.7634 60.7439 98.7634 60.4643C98.7472 60.1954 98.7171 59.9275 98.6733 59.6617C98.6299 59.3854 98.5727 59.1115 98.5019 58.841C98.4298 58.5524 98.3487 58.1917 98.2675 57.7588H111.161C111.161 58.1646 111.116 58.6606 111.097 59.301C111.079 59.9413 111.097 60.6537 111.097 61.4925C111.109 62.4781 111.172 63.4625 111.287 64.4415C111.422 65.5959 111.638 66.9486 111.963 68.4818H111.9Z" fill="#623C21"/>
<path d="M145.833 85.3642H137.934C137.878 85.3776 137.819 85.3776 137.763 85.3642L138.845 84.1467C139.108 83.6383 139.227 83.0674 139.188 82.4963C139.175 81.6617 139.06 80.8317 138.845 80.0253C138.616 79.0717 138.315 78.1371 137.943 77.2295C137.56 76.2938 137.105 75.3893 136.582 74.524C136.097 73.7018 135.529 72.9313 134.887 72.2242C134.598 72.2242 134.454 72.2964 134.454 72.4407V83.1637C134.417 83.6298 134.555 84.0929 134.842 84.4624C135.193 84.744 135.571 84.9916 135.969 85.2019L136.014 85.3281L135.969 85.4183H128.828V85.3011C128.828 85.3011 128.9 85.2289 129.045 85.1748C129.498 85 129.881 84.6791 130.132 84.2627C130.384 83.8464 130.49 83.3582 130.433 82.8751V59.6254C130.433 59.0753 129.928 58.5071 128.909 57.9299V57.7946H128.99H135.852C135.902 57.8071 135.946 57.8356 135.978 57.8758L135.329 58.444C135.145 58.5629 134.991 58.7222 134.879 58.9098C134.766 59.0974 134.698 59.3082 134.68 59.5262L134.725 68.2922L134.806 68.3373C135.572 68.2744 136.31 68.0201 136.952 67.5978C137.484 67.0649 137.805 66.3565 137.853 65.6047C137.907 65.0275 137.979 64.4503 138.052 63.8731C138.124 63.2959 138.187 62.7097 138.241 62.1325C138.458 60.8372 139.054 59.6352 139.954 58.6785C140.403 58.2712 140.928 57.9565 141.499 57.7522C142.07 57.548 142.675 57.4582 143.281 57.488C144.552 57.488 145.183 57.6774 145.183 58.0562C145.183 58.0562 145.183 58.1103 145.12 58.3087C145.057 58.5071 145.03 58.8318 144.967 59.2646C144.886 59.8509 144.814 60.3829 144.751 60.8699C144.7 61.3041 144.673 61.7406 144.669 62.1776C144.667 62.6474 144.688 63.1169 144.733 63.5845C144.733 64.0354 144.823 64.4864 144.886 64.9553C144.951 65.1681 145.003 65.385 145.039 65.6047C145.039 65.8662 145.129 66.1818 145.183 66.5606C145.049 66.449 144.925 66.3253 144.814 66.1909C144.667 66.0079 144.501 65.8416 144.318 65.6948C143.975 65.4157 143.613 65.1596 143.236 64.9283C142.947 64.7546 142.617 64.6583 142.28 64.6487C141.703 64.6487 141.252 65.1537 140.937 66.1728C140.793 66.75 140.657 67.246 140.54 67.6699C140.436 68.0698 140.269 68.4504 140.044 68.7972C139.822 69.149 139.534 69.4551 139.197 69.6991C138.77 70.0076 138.303 70.2564 137.808 70.4386V70.5739C138.938 72.107 139.858 73.3786 140.567 74.3887C141.193 75.2733 141.765 76.1949 142.28 77.1484C142.704 77.9521 143.066 78.7872 143.362 79.6465C143.651 80.4852 143.957 81.4953 144.264 82.6857C144.421 83.2751 144.632 83.8487 144.895 84.3992C144.982 84.5877 145.107 84.7562 145.262 84.8943C145.417 85.0323 145.599 85.137 145.796 85.2019C145.807 85.2004 145.819 85.2015 145.829 85.205C145.84 85.2086 145.849 85.2145 145.857 85.2224C145.865 85.2302 145.871 85.2398 145.874 85.2503C145.878 85.2608 145.879 85.272 145.878 85.283L145.833 85.3642Z" fill="#623C21"/>
<path d="M159.195 83.7146C159.069 84.0017 158.867 84.2483 158.609 84.427C158.262 84.7071 157.877 84.935 157.464 85.1034C156.958 85.3181 156.433 85.4842 155.895 85.5994C155.304 85.7342 154.699 85.8008 154.092 85.7978C153.173 85.7696 152.28 85.4854 151.513 84.9772C150.712 84.5062 150.036 83.8507 149.539 83.0652C148.742 81.556 148.354 79.8648 148.412 78.1592V65.5333C148.348 63.5571 148.875 61.6069 149.927 59.9328C150.437 59.0973 151.16 58.4125 152.022 57.9482C152.884 57.4839 153.853 57.2569 154.831 57.2903C156.265 57.3596 157.669 57.7282 158.952 58.3726C158.871 58.8054 158.744 59.3556 158.582 60.0229C158.42 60.6903 158.258 61.4569 158.086 62.3227C158.032 62.8097 157.96 63.5311 157.87 64.4691C157.78 65.407 157.699 66.5794 157.608 67.9682H157.527C157.22 67.239 156.871 66.5283 156.481 65.8399C156.292 65.5083 156.022 65.2306 155.695 65.0333C155.368 64.8359 154.996 64.7255 154.615 64.7126C154.298 64.7297 153.99 64.8304 153.724 65.0047C153.458 65.1789 153.243 65.4203 153.1 65.7046C152.693 66.4319 152.511 67.2637 152.577 68.0945V76.2112C152.582 76.7784 152.699 77.3392 152.92 77.8615C153.209 78.4748 153.605 78.7634 154.092 78.7634H154.399C155.186 78.7093 156.271 77.5249 157.653 75.2101C157.831 74.8628 158.033 74.5283 158.258 74.2091V74.164C158.287 74.1751 158.319 74.1751 158.348 74.164C158.363 74.2078 158.363 74.2554 158.348 74.2992C158.348 74.5337 158.348 74.8223 158.348 75.2011C158.348 75.5799 158.276 75.9586 158.212 76.4186C158.149 76.8785 158.113 77.3204 158.086 77.6361C158.059 77.9517 158.086 78.2674 158.086 78.5379C158.151 80.315 158.526 82.0671 159.195 83.7146Z" fill="#623C21"/>
<path d="M176.818 68.4818C175.682 66.9126 175.014 66.0197 174.771 65.7762C174.414 65.3655 173.976 65.0338 173.484 64.8024C172.992 64.571 172.456 64.445 171.913 64.4325H171.732V83.4074C171.732 84.165 172.255 84.7692 173.301 85.2111C173.301 85.3013 173.256 85.3464 173.166 85.3464H166.052C166.023 85.356 165.991 85.356 165.962 85.3464C165.968 85.3125 165.983 85.2811 166.007 85.2562C166.466 85.1754 166.89 84.9586 167.224 84.6339C167.39 84.4812 167.522 84.2958 167.612 84.0893C167.702 83.8828 167.748 83.6598 167.747 83.4345V64.3964H167.531C167.238 64.4453 166.956 64.5493 166.701 64.703C165.906 65.1122 165.177 65.6381 164.538 66.2632C163.85 66.9281 163.245 67.673 162.734 68.4818C162.915 67.7513 163.059 67.0208 163.194 66.2632C163.329 65.5057 163.429 64.8203 163.519 64.18C163.609 63.5397 163.672 62.9895 163.717 62.5115C163.762 62.0336 163.78 61.6818 163.78 61.4474C163.78 61.0686 163.78 60.7439 163.78 60.4643C163.772 60.1953 163.744 59.9271 163.699 59.6617C163.699 59.4092 163.591 59.1296 163.528 58.841C163.465 58.5524 163.375 58.1917 163.284 57.7588H176.177C176.177 58.1646 176.123 58.6606 176.105 59.301C176.087 59.9413 176.105 60.6537 176.105 61.4925C176.115 62.4784 176.182 63.4631 176.304 64.4415C176.43 65.5959 176.655 66.9486 176.971 68.4818H176.818Z" fill="#623C21"/>
<path d="M195.13 57.8378L194.679 58.1895L194.22 58.5322C193.923 58.7723 193.725 59.1121 193.661 59.4882V83.4052C193.661 84.0065 194.139 84.6288 195.094 85.2721C195.072 85.2987 195.044 85.3204 195.013 85.336C194.982 85.3515 194.949 85.3604 194.914 85.3623H188.341V85.2991C188.488 85.2422 188.624 85.1631 188.747 85.0646C188.882 84.9654 189.017 84.8662 189.162 84.7761C189.54 84.6047 189.73 84.1989 189.73 83.5676V70.4276C189.349 70.8338 189 71.2679 188.684 71.7263C188.083 72.5079 187.286 73.6382 186.294 75.1172C185.836 75.6626 185.498 76.2988 185.303 76.9841V83.6217C185.303 84.0275 185.781 84.5235 186.727 85.1909C186.727 85.2991 186.727 85.3623 186.556 85.3623H179.965C179.902 85.3623 179.875 85.3623 179.875 85.3623C179.948 85.2987 180.027 85.2414 180.109 85.1909C180.3 85.0563 180.484 84.9118 180.659 84.758C180.855 84.6426 181.022 84.4845 181.149 84.2956C181.275 84.1067 181.358 83.8918 181.39 83.6668V59.4431C181.39 59.1905 181.146 58.8659 180.659 58.5412C180.173 58.2166 179.92 57.955 179.92 57.8378H180.001H186.691C186.631 57.9348 186.551 58.0179 186.457 58.0813C186.331 58.1805 186.141 58.3338 185.916 58.5322C185.483 58.938 185.267 59.2176 185.267 59.3619V66.3603C185.248 66.5124 185.277 66.6665 185.348 66.8022C185.844 66.1077 186.457 65.2329 187.196 64.1688C187.935 63.1046 188.765 61.869 189.694 60.4171V59.3348C189.694 59.0763 189.243 58.5532 188.341 57.7656H188.431H194.896L195.13 57.8378Z" fill="#623C21"/>
<path d="M210.662 57.7599V57.8411C210.573 57.9395 210.474 58.0273 210.365 58.1026C210.266 58.1804 210.164 58.2527 210.058 58.3191C209.708 58.631 209.426 59.0128 209.232 59.4399C209.038 59.867 208.936 60.33 208.931 60.7992V62.0978C208.946 62.3161 208.976 62.5331 209.021 62.7472L209.238 64.1811L213.403 82.5969C213.746 84.13 214.305 84.9507 215.089 85.068C215.233 85.1221 215.314 85.1672 215.314 85.1942C215.314 85.2213 215.251 85.3295 215.134 85.3295H208.327C208.237 85.3295 208.192 85.3295 208.192 85.2393C208.502 85.0667 208.761 84.8162 208.945 84.5125C209.128 84.2088 209.229 83.8625 209.238 83.5078V83.3274L206.28 69.7996H206.154L203.161 83.3274V83.5078C203.182 83.8584 203.288 84.1987 203.468 84.5001C203.648 84.8014 203.899 85.0549 204.198 85.2393C204.198 85.3024 204.198 85.3295 204.116 85.3295H197.255C197.174 85.3295 197.129 85.3295 197.129 85.1942C197.129 85.059 197.201 85.095 197.345 85.068C198.121 84.9507 198.689 84.1661 199.04 82.5969L199.401 80.9646C199.617 79.9996 199.915 78.7009 200.303 77.0776C200.69 75.4542 201.087 73.5513 201.583 71.3508C202.079 69.1503 202.611 66.7514 203.188 64.136C203.305 63.5318 203.386 63.0538 203.449 62.7021C203.488 62.4873 203.515 62.2705 203.53 62.0527V60.7541C203.528 60.2846 203.426 59.8208 203.232 59.3934C203.038 58.9659 202.755 58.5845 202.403 58.274C202.285 58.219 202.175 58.146 202.079 58.0575L201.754 57.796V57.7148L210.662 57.7599Z" fill="#623C21"/>
<path d="M230.28 80.4567C230.28 83.7274 228.948 85.3628 226.285 85.3628H216.701L216.656 85.2726C216.958 85.1896 217.24 85.0471 217.487 84.8535C217.733 84.6599 217.938 84.4192 218.09 84.1453C218.264 83.5392 218.337 82.9084 218.306 82.2785V60.7062C218.305 60.1197 218.152 59.5434 217.863 59.0331C217.574 58.5229 217.159 58.0958 216.656 57.7932C216.697 57.778 216.742 57.778 216.782 57.7932H223.905C223.961 57.7747 224.021 57.7747 224.077 57.7932V57.8834C223.56 58.1459 223.129 58.5517 222.837 59.0522C222.544 59.5528 222.402 60.1269 222.427 60.7062V66.8298C223.385 67.7364 224.289 68.7001 225.131 69.7157C226.058 70.797 226.908 71.9421 227.674 73.1427C228.424 74.3059 229.055 75.5417 229.558 76.8313C230.024 77.9839 230.268 79.2137 230.28 80.4567V80.4567ZM225.772 77.4175C225.714 77.1277 225.594 76.8539 225.42 76.6148C225.186 76.227 224.915 75.8032 224.599 75.3523C224.284 74.9013 223.941 74.4504 223.599 74.0716C223.346 73.7503 223.068 73.4488 222.769 73.1698H222.472V78.5809H224.681C224.825 78.5642 224.964 78.517 225.088 78.4424C225.212 78.3677 225.319 78.2674 225.402 78.148C225.601 77.9511 225.731 77.6947 225.772 77.4175V77.4175Z" fill="#623C21"/>
<path d="M128.014 76.8033C127.507 75.5212 126.876 74.2918 126.129 73.1328C125.369 71.9383 124.526 70.7991 123.605 69.7238C122.758 68.7152 121.855 67.7547 120.9 66.8469V64.5562H124.723C124.762 64.0329 124.871 63.5172 125.047 63.023C125.236 62.5879 125.475 62.1762 125.76 61.7965C125.833 61.6886 125.915 61.5861 126.003 61.4899C126.102 61.3817 126.211 61.2464 126.328 61.1021H120.918V60.7774C120.891 60.2013 121.032 59.6299 121.324 59.1321C121.615 58.6344 122.044 58.2317 122.559 57.9727V57.8915C122.559 57.8915 122.478 57.8915 122.388 57.8915H115.301C115.281 57.8819 115.26 57.877 115.238 57.877C115.216 57.877 115.194 57.8819 115.175 57.8915C115.673 58.1908 116.086 58.6137 116.374 59.1192C116.661 59.6247 116.813 60.1958 116.816 60.7774V61.1021H112.461C112.659 61.3636 112.858 61.6071 113.065 61.8416C113.257 62.059 113.424 62.2981 113.561 62.5541C113.697 62.8221 113.806 63.1031 113.885 63.3928C113.976 63.7739 114.018 64.1646 114.012 64.5562H116.834V82.2415C116.865 82.8685 116.792 83.4963 116.617 84.0993C116.466 84.3705 116.261 84.609 116.017 84.801C115.772 84.9929 115.492 85.1345 115.193 85.2176L115.238 85.3078H124.777C127.419 85.3078 128.744 83.6754 128.744 80.4288C128.73 79.1852 128.482 77.9553 128.014 76.8033V76.8033ZM123.884 78.1651C123.805 78.2851 123.699 78.386 123.576 78.4608C123.453 78.5356 123.315 78.5825 123.172 78.598H120.972V73.1869H121.279C121.572 73.469 121.846 73.7703 122.099 74.0887C122.442 74.4946 122.775 74.9184 123.091 75.3604C123.407 75.8023 123.677 76.2622 123.911 76.6139C124.08 76.8549 124.196 77.1282 124.254 77.4166C124.221 77.7014 124.091 77.9661 123.884 78.1651V78.1651Z" fill="#623C21"/>
</svg>
