<svg width="328" height="95" viewBox="0 0 328 95" fill="none" xmlns="http://www.w3.org/2000/svg">
<path d="M79.4499 25.1537H78.1042V27.5915H77.0469V21.081H79.4339C80.8757 21.0736 81.6606 21.9059 81.6606 23.1211C81.6606 24.292 80.9317 25.1537 79.4499 25.1537ZM79.3858 22.0605H78.1042V24.1668H79.3778C80.1628 24.1668 80.5953 23.7102 80.5953 23.1063C80.6033 22.5024 80.0747 22.0605 79.3858 22.0605ZM91.8493 24.8739L93.7317 27.5988H92.4821L90.6478 24.9328H89.8709V27.5988H88.8136V21.081H91.2967C92.6824 21.081 93.4273 21.8838 93.4273 23.0032C93.4353 23.968 92.8746 24.6824 91.8493 24.8739ZM91.2726 22.0605H89.8869V23.9606H91.2646C91.9695 23.9606 92.37 23.5556 92.37 23.0106C92.37 22.4509 91.8814 22.0605 91.2726 22.0605ZM105.074 26.6635V27.5988H100.949V21.0957H105.002V22.0311H102.014V23.7986H104.93V24.7339H102.014V26.6709H105.074V26.6635ZM117.826 27.5915V22.4361L115.447 25.1758L113.068 22.4288V27.5915H112.003V21.0884H113.228L115.447 23.7176L117.666 21.0884H118.891V27.5915H117.826ZM126.324 27.5915V21.0884H127.39V27.5915H126.324ZM137.667 27.6798C135.968 27.6798 134.815 26.472 134.815 25.139V21.0957H135.888V25.0138C135.888 25.9638 136.673 26.7077 137.659 26.7077C138.652 26.7077 139.437 25.9638 139.437 25.0138V21.0957H140.51V25.139C140.526 26.472 139.373 27.6798 137.667 27.6798ZM153.711 27.5915V22.4361L151.332 25.1758L148.953 22.4288V27.5915H147.887V21.0884H149.113L151.332 23.7176L153.55 21.0884H154.776V27.5915H153.711ZM177.837 26.9581L177.092 27.6725L176.395 27.017C175.802 27.4294 175.065 27.6725 174.272 27.6725C172.318 27.6725 170.716 26.1995 170.716 24.3362C170.716 22.4729 172.326 21 174.272 21C176.227 21 177.829 22.4729 177.829 24.3362C177.829 25.0801 177.572 25.7576 177.148 26.3026L177.837 26.9581ZM174.264 21.9869C172.878 21.9869 171.773 23.0327 171.773 24.3436C171.773 25.6472 172.878 26.7003 174.264 26.7003C175.65 26.7003 176.755 25.6545 176.755 24.3436C176.755 23.0327 175.65 21.9869 174.264 21.9869ZM187.897 27.6798C186.199 27.6798 185.046 26.472 185.046 25.139V21.0957H186.119V25.0138C186.119 25.9638 186.904 26.7077 187.889 26.7077C188.882 26.7077 189.667 25.9638 189.667 25.0138V21.0957H190.741V25.139C190.749 26.472 189.603 27.6798 187.897 27.6798ZM202.676 27.5915L201.947 25.9197H198.951L198.222 27.5915H197.101L199.872 21.0884H201.018L203.789 27.5915H202.676ZM200.449 22.3109L199.368 24.9107H201.522L200.449 22.3109ZM210.678 27.5915V21.0884H211.751V26.6488H214.579V27.5988H210.678V27.5915ZM221.419 27.5915V21.0884H222.484V27.5915H221.419ZM232.321 22.0237V27.5988H231.255V22.0311H229.373V21.0884H234.203V22.0237H232.321V22.0237ZM244.079 24.9549V27.5915H243.014V24.9622L240.555 21.0884H241.716L243.551 23.9901L245.385 21.0884H246.546L244.079 24.9549Z" fill="url(#paint0_linear_110129_5324)"/>
<path d="M51.4475 74.8863L39 46.5615H44.8793L52.8653 65.3931L60.4508 46.5615H63.3424L51.4475 74.8863ZM96.9603 72.1392V74.2087H78.4092V46.5615H96.9603V48.631H83.9761V58.7428H96.0472V60.8343H83.9761V72.1466H96.9603V72.1392ZM133.942 59.3393C132.589 60.4808 130.666 61.1142 128.167 61.2394L136.105 74.2014H129.865L121.815 60.1862C124.971 59.9948 127.198 59.4498 128.496 58.566C129.793 57.6749 130.45 56.305 130.45 54.4417C130.45 52.387 129.809 50.8551 128.52 49.8535C127.23 48.8445 125.292 48.3437 122.688 48.3437H120.398V74.2087H114.831V46.5615H124.659C128.384 46.5615 131.195 47.2464 133.101 48.6089C135.008 49.9713 135.961 51.9819 135.961 54.648C135.969 56.6291 135.296 58.1978 133.942 59.3393ZM180.441 66.1296C179.672 67.8898 178.55 69.4364 177.084 70.7694C175.602 72.1171 173.944 73.1408 172.102 73.8405C170.26 74.5328 168.313 74.8863 166.247 74.8863C164.156 74.8863 162.186 74.5401 160.343 73.8405C158.501 73.1408 156.851 72.1171 155.385 70.7694C153.935 69.4364 152.83 67.8824 152.077 66.1149C151.324 64.3547 150.948 62.4546 150.948 60.4293C150.948 58.3745 151.332 56.4671 152.093 54.6995C152.854 52.932 153.967 51.3927 155.433 50.0671C156.899 48.7414 158.557 47.7251 160.416 47.0181C162.266 46.3111 164.212 45.9502 166.247 45.9502C167.873 45.9502 169.459 46.1859 171.005 46.6498C172.543 47.1212 173.984 47.7987 175.33 48.6972C177.349 50.045 178.895 51.7315 179.976 53.7495C181.049 55.7674 181.594 57.9916 181.594 60.4146C181.594 62.4767 181.209 64.3694 180.441 66.1296ZM173.007 51.2528C171.261 48.9108 169.01 47.7398 166.255 47.7398C163.515 47.7398 161.273 48.9108 159.51 51.2528C157.756 53.5948 156.875 56.6585 156.875 60.4293C156.875 64.1927 157.756 67.2417 159.51 69.591C161.265 71.933 163.515 73.104 166.255 73.104C168.994 73.104 171.237 71.933 172.999 69.5984C174.753 67.2638 175.635 64.2074 175.635 60.4293C175.627 56.6585 174.753 53.6022 173.007 51.2528ZM211.071 49.117C210.086 48.4247 208.908 48.0712 207.546 48.0712C206.097 48.0712 204.903 48.5058 203.982 49.3601C203.053 50.2217 202.588 51.3485 202.588 52.7405C202.588 53.8452 202.973 54.7805 203.734 55.5538C204.495 56.3271 205.92 57.1225 208.019 57.9547C211.327 59.2657 213.506 60.5177 214.555 61.7181C215.612 62.9186 216.133 64.4578 216.133 66.3284C216.133 68.8104 215.204 70.8578 213.338 72.4706C211.479 74.0835 209.116 74.8863 206.265 74.8863C204.198 74.8863 202.42 74.518 200.922 73.7889C199.424 73.0598 198.127 71.9257 197.021 70.4012L199.24 68.9503C199.897 70.1066 200.738 71.0124 201.763 71.6605C202.788 72.3086 203.894 72.6327 205.071 72.6327C206.673 72.6327 207.971 72.1687 208.972 71.2407C209.973 70.3128 210.478 69.1123 210.478 67.6541C210.478 65.3268 208.243 63.3163 203.774 61.615L203.71 61.5929C201.299 60.6797 199.592 59.656 198.583 58.5144C197.574 57.3729 197.069 55.9221 197.069 54.1692C197.069 51.7683 197.934 49.802 199.673 48.2701C201.411 46.7309 203.653 45.9649 206.401 45.9649C208.467 45.9649 210.27 46.3921 211.816 47.2464C213.362 48.1007 214.507 49.3159 215.26 50.8846L213.29 52.1071C212.801 50.8036 212.056 49.8093 211.071 49.117ZM245.746 49.117C244.761 48.4247 243.583 48.0712 242.222 48.0712C240.772 48.0712 239.578 48.5058 238.657 49.3601C237.728 50.2217 237.263 51.3485 237.263 52.7405C237.263 53.8452 237.648 54.7805 238.409 55.5538C239.17 56.3271 240.596 57.1225 242.694 57.9547C246.002 59.2657 248.181 60.5177 249.23 61.7181C250.288 62.9186 250.808 64.4578 250.808 66.3284C250.808 68.8104 249.879 70.8578 248.013 72.4706C246.155 74.0835 243.792 74.8863 240.94 74.8863C238.873 74.8863 237.095 74.518 235.597 73.7889C234.099 73.0598 232.802 71.9257 231.697 70.4012L233.915 68.9503C234.572 70.1066 235.413 71.0124 236.438 71.6605C237.464 72.3086 238.569 72.6327 239.747 72.6327C241.349 72.6327 242.646 72.1687 243.647 71.2407C244.649 70.3128 245.153 69.1123 245.153 67.6541C245.153 65.3268 242.919 63.3163 238.449 61.615L238.385 61.5929C235.974 60.6797 234.268 59.656 233.258 58.5144C232.249 57.3729 231.745 55.9221 231.745 54.1692C231.745 51.7683 232.61 49.802 234.348 48.2701C236.086 46.7309 238.329 45.9649 241.076 45.9649C243.143 45.9649 244.945 46.3921 246.491 47.2464C248.037 48.1007 249.182 49.3159 249.935 50.8846L247.965 52.1071C247.476 50.8036 246.739 49.8093 245.746 49.117ZM283.073 74.2014L279.957 66.844H269.616L266.524 74.2014H263.881L276.192 46.0017L289 74.2014H283.073ZM274.75 55.0162L270.401 65.1059H279.124L274.75 55.0162Z" fill="url(#paint1_linear_110129_5324)"/>
<defs>
<linearGradient id="paint0_linear_110129_5324" x1="77.0491" y1="24.3415" x2="246.544" y2="24.3415" gradientUnits="userSpaceOnUse">
<stop stop-color="#F3CEBB"/>
<stop offset="0.5108" stop-color="#D89F67"/>
<stop offset="1" stop-color="#9D572B"/>
</linearGradient>
<linearGradient id="paint1_linear_110129_5324" x1="38.9984" y1="60.4242" x2="288.996" y2="60.4242" gradientUnits="userSpaceOnUse">
<stop stop-color="#F3CEBB"/>
<stop offset="0.5108" stop-color="#D69E68"/>
<stop offset="1" stop-color="#9D572B"/>
</linearGradient>
</defs>
</svg>
