<svg width="328" height="95" viewBox="0 0 328 95" fill="none" xmlns="http://www.w3.org/2000/svg">
<path d="M52.3848 49.3046C52.1963 51.1454 51.4164 52.5501 50.0746 53.5777C48.7327 54.5757 47.0472 54.9823 44.9882 54.7642C42.9293 54.5461 40.2161 52.8938 39 50.8977L39.5914 50.2435C41.277 52.6462 42.556 53.5814 44.7997 53.9547C46.2968 54.1728 47.5129 53.829 48.4518 53.0491C49.3574 52.2987 49.886 51.3635 49.9784 50.3026C50.1041 49.2417 49.8528 48.3065 49.1985 47.4933C48.5442 46.7134 47.2948 45.8077 45.454 44.7801C43.8313 43.8449 42.6151 43.065 41.7723 42.4107C40.9628 41.7564 40.3677 40.9765 39.9648 40.0413C39.5914 39.1061 39.4362 38.1376 39.5582 37.1396C39.7134 35.6092 40.3677 34.3931 41.5542 33.4912C42.7075 32.5856 44.1122 32.2418 45.7349 32.4007C46.6406 32.4932 47.4501 32.7445 48.23 33.1178C49.01 33.4912 49.7567 34.2083 50.507 35.2063L49.8195 35.7682C49.631 35.4873 49.4129 35.2063 49.1948 34.9587C48.2892 33.8978 47.1655 33.3064 45.8236 33.1807C44.5447 33.0254 43.5762 33.2731 42.9219 33.8978C42.2344 34.5225 41.8611 35.2396 41.7686 36.0824C41.6762 37.0509 41.9572 37.9232 42.641 38.7032C43.2953 39.4831 44.5447 40.3888 46.3855 41.4792C48.1339 42.4773 49.3796 43.2905 50.1596 43.8819C50.9691 44.4733 51.5642 45.2237 51.9671 46.1589C52.3848 47.12 52.5105 48.1513 52.3848 49.3046Z" fill="#58595B"/>
<path d="M64.7034 35.3272C66.9508 33.2978 68.9765 32.2998 72.3477 32.2998C75.7151 32.2998 77.8073 33.2978 80.0547 35.2939C82.3318 37.29 83.4555 40.0365 83.4555 43.5C83.4555 46.8675 82.365 49.5844 80.21 51.6433C78.0254 53.7318 75.9369 54.7631 72.3809 54.7631C68.9506 54.7631 66.8584 53.7318 64.6443 51.6433C62.4597 49.5844 61.3359 46.8084 61.3359 43.3744C61.3323 40.0365 62.456 37.3565 64.7034 35.3272ZM67.0728 51.3328C68.4775 53.0812 69.8193 53.9536 72.5953 53.9536C75.0609 53.9536 76.6207 53.0812 78.0217 51.3328C79.4264 49.5844 79.7701 46.9969 79.7701 43.5333C79.7701 40.1658 79.4596 37.5746 78.055 35.7966C76.6503 33.9854 74.998 33.113 72.3477 33.113C69.7601 33.113 68.4775 33.9854 67.0765 35.7338C65.7051 37.4822 65.0176 40.0697 65.0176 43.5C65.0139 46.9969 65.7015 49.5844 67.0728 51.3328Z" fill="#58595B"/>
<path d="M92.4375 54.7631V49.0854V47.4959V46.1541V37.9184V32.2998H105.541V33.0502H98.6475H95.683V37.948V38.6023V42.5648H97.9304H102.174V43.3448H98.0265H95.6867V46.1541V46.6827V47.4922V49.0521V54.7594H92.4375V54.7631Z" fill="#58595B"/>
<path d="M131.872 33.0502H126.194H122.513V48.8377V54.7668H119.267V48.8377V33.0502H115.992H110.004L110.033 32.2998H131.872V33.0502Z" fill="#58595B"/>
<path d="M189.62 32.3018V37.8871V48.9321V54.7651H186.375V48.9321V37.8871V32.3018H189.62Z" fill="#58595B"/>
<path d="M218.097 54.0147V54.7651H202.469V48.9949V37.9499V32.3018H205.714V54.0147H218.097Z" fill="#58595B"/>
<path d="M243.019 32.3018L240.088 39.2585L233.567 54.7651H232.536L224.988 37.3881L224.736 36.9186C224.611 36.6377 224.489 36.2644 224.3 35.8282C224.174 35.4548 224.019 35.1406 223.864 34.8597L222.773 32.3018H226.048L227.982 36.5748L234.284 51.1758L239.337 39.0404C239.648 38.3233 239.899 37.669 240.088 37.1071L241.991 32.3018H243.019Z" fill="#58595B"/>
<path d="M257.858 53.9851H264.752V54.7651H251.711V48.9949V47.435V46.0932V37.8575V32.3018H264.815V33.0521H257.921H254.927V37.8871V38.5414V42.5668H257.204H261.414V43.3467H257.296H254.927V46.0932V46.5922V47.435V48.9949V53.9851H257.858V53.9851Z" fill="#58595B"/>
<path d="M277.546 32.3018C279.668 32.3018 281.383 32.4274 282.695 32.834C284.004 33.2074 285.098 33.7692 285.908 34.6453C286.717 35.5509 287.124 36.6118 287.124 37.8575C287.124 39.2917 286.595 40.5707 285.534 41.5688C284.444 42.5964 282.884 43.4096 280.825 43.6905C281.731 44.1267 283.228 44.7218 285.287 47.4979C285.287 47.4979 286.939 49.7453 288.998 54.7651H286.44C286.192 53.7338 282.884 44.0971 276.8 44.0971H275.831V48.8064V54.7651H272.648V48.8064V37.9499V32.3018H277.546ZM278.448 43.3467C279.321 43.3467 280.071 43.0362 280.696 42.8477C281.35 42.6592 281.882 42.223 282.255 41.8497C282.662 41.4763 282.973 40.9773 283.191 40.3822C283.442 39.7575 283.534 39.0404 283.534 38.168C283.534 36.6081 283.161 35.4216 282.381 34.4864C281.601 33.5512 279.823 33.237 277.236 33.237H275.831V43.343H278.448V43.3467Z" fill="#58595B"/>
<path d="M193.871 42.8451C192.958 42.3202 190.821 41.6622 188.178 41.6253C182.918 41.5513 176.154 42.6603 172.04 43.6509C170.003 39.644 165.586 35.2859 163.194 32.9238C156.98 26.784 155.953 22.4925 157.095 19.0622C159.287 12.4899 169.149 10.7858 175.666 17.5947C176.997 18.9882 178.52 20.6184 179.085 22.8732C179.629 25.0393 179.688 27.405 179.13 29.3715C178.571 31.3381 177.78 32.9164 177.773 33.5337C177.766 34.225 178.749 34.761 179.318 33.6114C181.979 28.2109 181.702 21.6571 176.021 16.6336C167.427 9.0374 156.511 11.3662 155.021 19.3727C154.371 22.8584 156.337 27.1056 160.98 31.9849C165.32 36.5463 169.212 41.0486 170.321 44.0649C166.451 45.0888 162.558 46.39 158.962 47.8501C158.947 44.2054 157.302 41.5402 154.289 39.8584C150.926 37.9806 146.283 37.2856 139.895 37.8438C134.861 38.2837 128.836 40.2132 123.853 43.163C114.312 48.8112 107.06 58.3332 110.475 68.9309C116.66 88.1044 152.733 82.0976 165.486 70.3134C172.823 63.5341 174.631 55.9712 173.947 49.8572C173.748 48.0719 172.823 45.3476 172.435 44.49C183.898 42.0208 189.376 42.7342 192.318 43.5548C193.065 43.7618 193.243 43.8579 193.158 44.32C193.106 44.5972 192.585 44.7044 192.836 44.9705C193.05 45.196 194.163 44.649 194.37 44.0649C194.577 43.4735 194.44 43.1741 193.871 42.8451ZM168.739 62.1036C160.422 74.5458 145.085 79.281 130.932 79.4325C120.774 79.5397 111.473 74.6789 111.558 63.9777C111.448 57.2169 115.321 50.2786 121.432 45.8318C131.416 38.5609 141.67 38.3724 145.477 38.5609C153.41 38.9564 158.625 42.9042 158.041 48.2345C148.397 52.271 141.156 57.3795 142.797 61.0538C145.296 66.6539 157.82 55.2688 158.888 48.7816C163.083 47.0221 167.401 45.7135 170.661 44.9114C172.265 49.1438 172.886 55.8972 168.739 62.1036ZM157.868 49.2104C157.073 52.5889 154.031 56.4 148.05 60.0742C145.555 61.6083 144.316 60.5289 145.322 58.5402C147.362 54.755 152.426 51.602 157.868 49.2104Z" fill="#58595B"/>
</svg>
