<svg width="328" height="95" viewBox="0 0 328 95" fill="none" xmlns="http://www.w3.org/2000/svg">
<path d="M84.9092 36.6476C87.92 36.7844 90.564 39.4394 90.6899 42.4447L90.8432 46.085L91.0184 50.2454L95.1787 50.426L98.8136 50.5848H98.8245C101.83 50.7216 104.474 53.3766 104.6 56.3819C104.665 57.9694 103.861 59.7595 102.443 61.1663C101.031 62.5732 99.2406 63.3724 97.6585 63.3068L77.634 63.4929L77.9734 43.5669C77.9077 41.9849 78.7124 40.1948 80.1248 38.788C81.5371 37.3756 83.3326 36.5764 84.9092 36.6476V36.6476ZM85.1117 32.1149H85.1063C79.0737 31.8522 73.1835 37.726 73.4299 43.7585L73.2656 67.8448H97.445C103.478 68.1131 109.368 62.2338 109.121 56.2013C108.897 50.8421 104.375 46.304 99.0161 46.0576C99.0106 46.0576 99.0106 46.0576 99.0052 46.0576L95.3648 45.8989L95.2225 42.2586C94.9981 36.8994 90.4764 32.3613 85.1117 32.1149Z" fill="#0099A8"/>
<path d="M71.6861 32.1941H71.6916C73.4981 32.1175 75.5454 33.0317 77.1603 34.6411C78.7752 36.2505 79.6948 38.2924 79.6182 40.1043L80.0014 62.8823L57.1193 62.6688C55.3074 62.751 53.2655 61.8368 51.6507 60.2274C50.0358 58.618 49.1161 56.5706 49.1873 54.7587C49.3296 51.3264 52.3513 48.2882 55.7891 48.1349H55.8001L59.955 47.9543L64.7065 47.7463L64.9036 42.9947L65.0788 38.8343C65.2211 35.3801 68.2483 32.3474 71.6861 32.1941ZM71.4507 27.0156C65.3251 27.2948 60.152 32.4788 59.9002 38.6044L59.7251 42.7648L55.5647 42.9454C55.5592 42.9454 55.5592 42.9454 55.5537 42.9454C49.4281 43.2246 44.2605 48.4086 44.0087 54.5342C43.7241 61.4262 50.4628 68.143 57.3493 67.8365L84.9829 67.8419L84.7967 40.3123C85.0814 33.4204 78.3482 26.7036 71.4562 27.0101C71.4562 27.0156 71.4562 27.0156 71.4507 27.0156Z" fill="#0099A8"/>
<path d="M126.213 62.7302C122.721 62.7302 119.748 61.4712 117.296 58.9476C114.843 56.424 113.617 53.4132 113.617 49.9207C113.617 46.5267 114.843 43.5652 117.296 41.0416C119.748 38.5672 122.721 37.3301 126.213 37.3301C129.733 37.3301 132.706 38.5672 135.131 41.0416C137.583 43.5652 138.809 46.5267 138.809 49.9207C138.809 53.4132 137.583 56.424 135.131 58.9476C132.678 61.4712 129.706 62.7302 126.213 62.7302ZM126.213 40.8554C123.712 40.8554 121.577 41.7423 119.808 43.5104C118.035 45.284 117.153 47.419 117.153 49.9152C117.153 52.5373 118.04 54.7325 119.808 56.5006C121.604 58.2962 123.739 59.1939 126.213 59.1939C128.688 59.1939 130.822 58.2962 132.618 56.5006C134.414 54.6339 135.311 52.4388 135.311 49.9152C135.311 47.4409 134.414 45.3059 132.618 43.5104C130.844 41.7423 128.709 40.8554 126.213 40.8554Z" fill="#0099A8"/>
<path d="M144.542 62.7301C144.033 62.7301 143.606 62.5604 143.266 62.221C142.905 61.8597 142.719 61.4217 142.719 60.9127V38.9995C142.741 38.5616 142.927 38.1729 143.266 37.8335C143.606 37.4723 144.033 37.2861 144.542 37.2861H157.209C157.696 37.2861 158.118 37.4668 158.484 37.8335C158.846 38.1511 159.032 38.5726 159.032 39.109C159.032 39.6181 158.851 40.0561 158.484 40.4174C158.074 40.7568 157.647 40.9265 157.209 40.9265H146.365V48.1305C150.487 48.1305 152.561 48.1414 152.589 48.1688C154.603 48.3877 156.267 49.187 157.576 50.5719C158.884 51.9569 159.541 53.5937 159.541 55.4877C159.541 57.4037 158.851 59.0788 157.466 60.513C156.13 61.9199 154.455 62.6589 152.441 62.7356H144.542V62.7301ZM146.365 51.7763V59.0898H152.151C153.24 59.0898 154.127 58.7504 154.806 58.0716C155.512 57.3654 155.884 56.5059 155.933 55.4877C155.884 54.4422 155.506 53.5718 154.806 52.8656C154.078 52.1376 153.191 51.7763 152.151 51.7763H146.365Z" fill="#0099A8"/>
<path d="M186.535 60.9489C186.535 61.458 186.354 61.885 185.987 62.2244C185.62 62.5857 185.199 62.7718 184.712 62.7718C184.203 62.7718 183.776 62.5912 183.436 62.2244C183.069 61.885 182.889 61.458 182.889 60.9489V41.0065H171.645V55.4912C171.596 57.5276 170.867 59.2519 169.461 60.6588C167.955 62.093 166.198 62.8047 164.184 62.8047C163.165 62.8047 162.656 62.197 162.656 60.9872C162.656 59.7994 163.165 59.2027 164.184 59.2027C165.251 59.2027 166.149 58.8249 166.877 58.075C167.627 57.3469 168.005 56.4601 168.005 55.42V39.1508C168.005 38.7129 168.174 38.2913 168.514 37.8753C168.88 37.5852 169.22 37.4264 169.532 37.4045C169.554 37.3826 169.652 37.3662 169.822 37.3662H184.706C185.193 37.3662 185.615 37.5469 185.982 37.9136C186.343 38.2804 186.529 38.7019 186.529 39.1891V60.9489H186.535Z" fill="#0099A8"/>
<path d="M204.814 57.713H195.935L194.407 61.4244C194.238 62.3003 193.658 62.7328 192.661 62.7328H192.262C191.725 62.5138 191.353 62.1635 191.134 61.6763C190.893 61.408 190.827 60.9591 190.953 60.3296L198.743 38.6355C199.011 37.7596 199.602 37.3271 200.528 37.3271C201.425 37.3271 201.995 37.7651 202.236 38.6355L209.626 60.3296C209.795 60.7675 209.795 61.2164 209.626 61.6763C209.456 62.1142 209.089 62.4645 208.536 62.7328C208.219 62.8313 207.77 62.7711 207.19 62.5521C206.702 62.2839 206.352 61.9116 206.133 61.4244L204.814 57.713ZM203.719 54.0343L200.517 44.7173L197.243 54.0343H203.719Z" fill="#0099A8"/>
<path d="M210.77 39.1819C210.77 38.7221 210.94 38.2841 211.279 37.8736C211.69 37.5342 212.128 37.3645 212.588 37.3645C213.048 37.3645 213.486 37.5342 213.896 37.8736C214.235 38.2841 214.405 38.7221 214.405 39.1819V43.1835C214.405 44.7108 214.953 46.0082 216.042 47.0756C217.109 48.165 218.407 48.7124 219.934 48.7124C221.439 48.7124 222.737 48.165 223.826 47.0756C224.724 46.1779 225.244 45.1104 225.392 43.8732V39.1764C225.392 38.8863 225.441 38.6564 225.54 38.4867C225.687 38.1965 225.819 37.9885 225.939 37.8681C226.06 37.7477 226.197 37.6491 226.339 37.578L226.558 37.4685C226.607 37.4685 226.64 37.4575 226.667 37.4302L226.957 37.3918L227.215 37.3535C227.675 37.3535 228.113 37.5232 228.523 37.8626C228.862 38.2732 229.032 38.7111 229.032 39.1709V60.9362C229.032 61.4453 228.852 61.8723 228.485 62.2117C228.123 62.573 227.696 62.7591 227.209 62.7591C226.7 62.7591 226.273 62.5785 225.934 62.2117C225.572 61.8723 225.386 61.4453 225.386 60.9362V50.5025C223.81 51.7177 221.987 52.3199 219.929 52.3199C217.405 52.3199 215.259 51.4331 213.486 49.6649C211.668 47.8694 210.754 45.7126 210.754 43.1835V39.1819H210.77Z" fill="#0099A8"/>
<path d="M241.154 51.7073L238.899 54.0721V61.0627C238.899 61.5718 238.729 61.9987 238.39 62.3381C238.028 62.6994 237.591 62.8856 237.081 62.8856C236.594 62.8856 236.173 62.7049 235.806 62.3381C235.467 61.9987 235.297 61.5718 235.297 61.0627V39.0401C235.297 38.5802 235.467 38.1423 235.806 37.7318C236.217 37.3924 236.644 37.2227 237.081 37.2227C237.541 37.2227 237.979 37.3924 238.39 37.7318C238.729 38.1423 238.899 38.5802 238.899 39.0401V48.9045L248.982 38.1314C249.272 37.7427 249.661 37.5128 250.148 37.4416C250.657 37.3705 251.106 37.4909 251.495 37.8029C251.884 38.093 252.114 38.4817 252.185 38.9689C252.256 39.478 252.135 39.9269 251.823 40.3156L243.672 49.0852L251.933 59.9295C252.272 60.3182 252.42 60.7561 252.371 61.2378C252.3 61.7469 252.07 62.163 251.681 62.475C251.342 62.7432 250.964 62.8746 250.553 62.8746C249.995 62.8746 249.535 62.6556 249.168 62.2177L241.154 51.7073Z" fill="#0099A8"/>
<path d="M259.926 41.5998C261.487 40.1711 264.12 40.1765 265.68 41.6108L267.563 43.3461L269.714 45.3277L271.871 43.3516L273.754 41.6272L273.76 41.6217C275.32 40.1984 277.953 40.1984 279.508 41.6327C280.329 42.3881 280.816 43.6745 280.816 45.0814C280.816 46.4828 280.323 47.7692 279.502 48.5192L269.649 58.5588L259.915 48.4918C259.094 47.7364 258.607 46.4499 258.607 45.0486C258.613 43.6417 259.105 42.3553 259.926 41.5998ZM257.775 39.2459C254.644 42.1144 254.638 47.9608 257.753 50.8293L269.638 62.8779L281.648 50.8676C284.774 48.0046 284.785 42.1582 281.664 39.2843C278.894 36.7333 274.389 36.7223 271.608 39.2678L271.603 39.2733L269.714 41.0031L267.831 39.2678C265.061 36.7114 260.561 36.7059 257.775 39.2459Z" fill="#0099A8"/>
</svg>
