<svg width="328" height="95" viewBox="0 0 328 95" fill="none" xmlns="http://www.w3.org/2000/svg">
<g clip-path="url(#clip0_110129_5324)">
<path d="M115.062 0.0966797H117.183C117.715 0.0966797 118.125 0.199891 118.419 0.404071C118.713 0.610495 118.859 0.915642 118.859 1.32176C118.859 1.8625 118.614 2.21477 118.125 2.3808C118.392 2.45933 118.614 2.5962 118.789 2.79365C118.964 2.9911 119.052 3.25362 119.052 3.58794C119.052 3.85045 118.994 4.07707 118.879 4.2633C118.765 4.44953 118.608 4.59089 118.412 4.68288C118.215 4.77487 118.015 4.84219 117.809 4.88482C117.602 4.92745 117.383 4.94764 117.147 4.94764H115.062V0.0966797V0.0966797ZM118.013 3.47799C118.013 3.0629 117.737 2.85423 117.19 2.85423H116.095V4.10175H117.133C117.405 4.10175 117.62 4.05688 117.777 3.96937C117.934 3.88187 118.013 3.71807 118.013 3.47799ZM117.827 1.5035C117.827 1.13328 117.582 0.949298 117.093 0.949298H116.101V2.05771H117.147C117.351 2.05771 117.515 2.01059 117.638 1.91635C117.764 1.81987 117.827 1.683 117.827 1.5035Z" fill="#002856"/>
<path d="M121.929 3.47106C121.822 3.1704 121.766 2.85404 121.766 2.52196C121.766 2.18989 121.819 1.87352 121.929 1.57286C122.037 1.2722 122.196 1.0052 122.407 0.769604C122.618 0.534012 122.89 0.347781 123.222 0.208669C123.554 0.0695577 123.929 0 124.344 0C124.759 0 125.133 0.0695577 125.466 0.208669C125.798 0.347781 126.069 0.534012 126.28 0.769604C126.491 1.0052 126.65 1.2722 126.758 1.57286C126.866 1.87352 126.922 2.18989 126.922 2.52196C126.922 2.85404 126.868 3.1704 126.758 3.47106C126.65 3.77173 126.491 4.03873 126.28 4.27432C126.069 4.50992 125.798 4.69615 125.466 4.83526C125.133 4.97437 124.759 5.04392 124.344 5.04392C123.929 5.04392 123.554 4.97437 123.222 4.83526C122.89 4.69615 122.618 4.50992 122.407 4.27432C122.199 4.03873 122.039 3.77173 121.929 3.47106ZM125.461 3.6371C125.724 3.34093 125.856 2.97071 125.856 2.52196C125.856 2.07322 125.724 1.703 125.461 1.40683C125.199 1.11065 124.826 0.962566 124.346 0.962566C123.861 0.962566 123.487 1.11065 123.224 1.40683C122.962 1.703 122.829 2.07546 122.829 2.52196C122.829 2.97071 122.962 3.34093 123.224 3.6371C123.487 3.93328 123.861 4.08136 124.346 4.08136C124.826 4.07912 125.196 3.93328 125.461 3.6371Z" fill="#002856"/>
<path d="M130.661 0.0966797H133.986V4.94764H132.947V1.03232H131.617C131.59 1.38234 131.563 1.67627 131.54 1.90962C131.518 2.14297 131.482 2.41222 131.437 2.71736C131.39 3.02251 131.341 3.27381 131.289 3.4735C131.235 3.6732 131.166 3.87738 131.08 4.08605C130.995 4.29696 130.899 4.46299 130.789 4.58416C130.681 4.70756 130.549 4.80853 130.398 4.88931C130.246 4.97008 130.075 5.01047 129.884 5.01047C129.692 5.01047 129.51 4.9813 129.344 4.92072V4.00527C129.44 4.0322 129.552 4.04566 129.676 4.03893C129.763 4.03444 129.844 4.00527 129.918 3.95142C129.992 3.89757 130.057 3.8168 130.116 3.7091C130.174 3.6014 130.223 3.48921 130.268 3.37702C130.313 3.26484 130.351 3.11451 130.383 2.92603C130.414 2.7398 130.443 2.57377 130.466 2.42792C130.488 2.28208 130.51 2.09136 130.531 1.85577C130.551 1.62018 130.567 1.42946 130.58 1.28137C130.591 1.13329 130.605 0.93135 130.623 0.671076C130.638 0.413046 130.65 0.220085 130.661 0.0966797Z" fill="#002856"/>
<path d="M143.488 4.9454H137.246V0.0966797H138.285V4.012H139.851V0.0966797H140.89V4.012H142.456V0.0966797H143.488V4.9454V4.9454Z" fill="#002856"/>
<path d="M146.742 0.0966797H150.157V1.01212H147.781V2.04424H149.951V2.95296H147.781V4.03444H150.2V4.94988H146.742V0.0966797Z" fill="#002856"/>
<path d="M154.272 1.8984H155.34C155.593 1.8984 155.826 1.92308 156.035 1.9702C156.246 2.01956 156.441 2.09809 156.621 2.20579C156.8 2.31349 156.942 2.4728 157.043 2.68146C157.144 2.89013 157.195 3.13694 157.195 3.4219C157.195 4.43831 156.576 4.9454 155.337 4.9454H153.23V0.0966797H156.798V1.03232H154.269V1.8984H154.272ZM154.272 4.0322H155.346C155.591 4.0322 155.784 3.98957 155.925 3.9043C156.067 3.81904 156.136 3.65749 156.136 3.4219C156.136 3.18631 156.067 3.027 155.925 2.9395C155.784 2.85423 155.591 2.8116 155.346 2.8116H154.272V4.0322Z" fill="#002856"/>
<path d="M163.34 0.0966797H164.379V4.94764H163.34V2.99334H161.164V4.94764H160.125V0.0966797H161.164V2.05097H163.34V0.0966797Z" fill="#002856"/>
<path d="M168.211 4.94569H167.137L169.118 0.0947266H170.24L172.214 4.94569H171.14L170.787 4.03698H168.57L168.211 4.94569ZM169.571 1.44097L168.898 3.17987H170.464L169.784 1.44097C169.737 1.31083 169.704 1.18518 169.681 1.05953C169.654 1.20313 169.616 1.33103 169.571 1.44097Z" fill="#002856"/>
<path d="M175.757 4.9454H174.559L175.909 3.16387C175.189 2.92379 174.828 2.44139 174.828 1.71666C174.828 1.17143 175.012 0.765312 175.382 0.498307C175.752 0.231302 176.217 0.0966797 176.775 0.0966797H178.75V4.94764H177.711V3.29849H176.984L175.757 4.9454ZM176.134 1.18714C175.974 1.30381 175.894 1.48107 175.894 1.71666C175.894 1.95225 175.974 2.1295 176.134 2.25067C176.293 2.37183 176.508 2.43017 176.782 2.43017H177.711V1.00988H176.782C176.511 1.01212 176.293 1.07046 176.134 1.18714Z" fill="#002856"/>
<path d="M188.977 0.0966797H190.016V4.94764H188.977V2.99334H186.801V4.94764H185.762V0.0966797H186.801V2.05097H188.977V0.0966797Z" fill="#002856"/>
<path d="M193.168 3.47106C193.06 3.1704 193.004 2.85404 193.004 2.52196C193.004 2.18989 193.058 1.87352 193.168 1.57286C193.275 1.2722 193.435 1.0052 193.646 0.769604C193.857 0.534012 194.128 0.347781 194.46 0.208669C194.792 0.0695577 195.167 0 195.582 0C195.997 0 196.372 0.0695577 196.704 0.208669C197.036 0.347781 197.307 0.534012 197.518 0.769604C197.729 1.0052 197.889 1.2722 197.996 1.57286C198.104 1.87352 198.16 2.18989 198.16 2.52196C198.16 2.85404 198.106 3.1704 197.996 3.47106C197.889 3.77173 197.729 4.03873 197.518 4.27432C197.307 4.50992 197.036 4.69615 196.704 4.83526C196.372 4.97437 195.997 5.04392 195.582 5.04392C195.167 5.04392 194.792 4.97437 194.46 4.83526C194.128 4.69615 193.857 4.50992 193.646 4.27432C193.435 4.03873 193.275 3.77173 193.168 3.47106ZM196.697 3.6371C196.96 3.34093 197.092 2.97071 197.092 2.52196C197.092 2.07322 196.96 1.703 196.697 1.40683C196.435 1.11065 196.062 0.962566 195.582 0.962566C195.097 0.962566 194.723 1.11065 194.46 1.40683C194.198 1.703 194.065 2.07546 194.065 2.52196C194.065 2.97071 194.198 3.34093 194.46 3.6371C194.723 3.93328 195.097 4.08136 195.582 4.08136C196.062 4.07912 196.435 3.93328 196.697 3.6371Z" fill="#002856"/>
<path d="M204.932 4.9454H203.893V3.2065C203.464 3.34561 203.054 3.41517 202.665 3.41517C202.111 3.41068 201.676 3.26708 201.362 2.98661C201.048 2.7039 200.891 2.29105 200.891 1.74583V0.0966797H201.929V1.71217C201.929 1.96571 202.019 2.15643 202.199 2.27984C202.378 2.40549 202.621 2.46607 202.926 2.46607C203.249 2.46607 203.57 2.401 203.888 2.27311V0.0966797H204.927V4.9454H204.932Z" fill="#002856"/>
<path d="M210.012 4.9454H208.184V0.0966797H209.222V1.68973H210.012C211.408 1.69871 212.106 2.24169 212.106 3.31869C212.106 4.40466 211.408 4.9454 210.012 4.9454ZM209.222 2.60518V4.0322H210.062C210.717 4.0322 211.047 3.79436 211.047 3.31869C211.047 2.84302 210.719 2.60518 210.062 2.60518H209.222Z" fill="#002856"/>
<path d="M152.728 39.486C157.505 37.1211 159.895 32.8221 159.895 26.5912C159.895 22.097 158.472 18.4487 155.627 15.6485C152.782 12.8506 148.865 11.4482 143.877 11.4482H115V64.2075C115 64.3982 115.139 64.571 115.33 64.5889C115.55 64.6091 115.734 64.4386 115.734 64.2232V48.3016C116.095 48.3039 116.571 48.3039 117.12 48.3039V73.0164C117.12 73.2071 117.259 73.3799 117.45 73.3979C117.67 73.418 117.854 73.2475 117.854 73.0321V48.3061C118.191 48.3061 118.547 48.3061 118.913 48.3039V66.5791C118.913 66.7699 119.052 66.9426 119.243 66.9606C119.463 66.9808 119.647 66.8102 119.647 66.5948V48.3016C119.997 48.3016 120.351 48.2994 120.706 48.2994V69.3502C120.706 69.5409 120.845 69.7136 121.036 69.7316C121.256 69.7518 121.44 69.5813 121.44 69.3659V48.2972C121.828 48.2972 122.209 48.2949 122.582 48.2949V68.6187C122.582 68.8094 122.721 68.9822 122.911 69.0001C123.131 69.0203 123.315 68.8498 123.315 68.6344V48.2927C123.661 48.2927 123.988 48.2904 124.294 48.2904V75.3028C124.294 75.4935 124.433 75.6663 124.623 75.6842C124.843 75.7044 125.027 75.5339 125.027 75.3185V48.2859C125.561 48.2837 125.961 48.2837 126.169 48.2815V72.6103C126.169 72.801 126.308 72.9738 126.499 72.9917C126.719 73.0119 126.903 72.8414 126.903 72.626V44.0991H142.192C145.414 44.0991 148.928 46.3608 149.318 48.2949V78.6437C149.318 78.8344 149.457 79.0072 149.648 79.0252C149.868 79.0453 150.052 78.8748 150.052 78.6594V48.2904C150.328 48.2882 150.657 48.2882 151.03 48.2859V73.5908C151.03 73.7815 151.169 73.9543 151.36 73.9723C151.58 73.9924 151.764 73.8219 151.764 73.6065V48.2837C152.098 48.2837 152.452 48.2815 152.823 48.2815V78.6415C152.823 78.8322 152.962 79.005 153.153 79.0229C153.372 79.0431 153.556 78.8726 153.556 78.6572V48.2815C153.877 48.2815 154.205 48.2815 154.535 48.2815V78.6437C154.535 78.8344 154.674 79.0072 154.864 79.0252C155.084 79.0453 155.268 78.8748 155.268 78.6594V48.2815C155.513 48.2815 155.758 48.2815 156.002 48.2815V73.51C156.002 73.7008 156.141 73.8735 156.332 73.8915C156.552 73.9117 156.736 73.7411 156.736 73.5258V48.2815C157.099 48.2815 157.454 48.2815 157.795 48.2815V78.6437C157.795 78.8344 157.934 79.0072 158.125 79.0252C158.345 79.0453 158.529 78.8748 158.529 78.6594V48.2815C158.879 48.2815 159.206 48.2815 159.507 48.2815V64.1335C159.507 64.3242 159.646 64.497 159.837 64.5149C160.057 64.5351 160.24 64.3646 160.24 64.1492V48.5507C160.24 48.369 160.227 48.1895 160.198 48.01C160.083 47.3122 159.747 45.4992 159.184 44.5883C157.703 42.1919 155.259 40.3566 152.728 39.486ZM141.348 35.1107H126.277V21.0335H141.348C143.386 21.0335 145.089 21.6056 146.459 22.7477C147.83 23.892 148.515 25.7251 148.515 28.2471C148.512 32.8243 146.125 35.1107 141.348 35.1107Z" fill="#002856"/>
<path d="M115.366 65.5762C115.164 65.5762 115 65.74 115 65.9419V68.3068C115 68.5087 115.164 68.6725 115.366 68.6725C115.568 68.6725 115.731 68.5087 115.731 68.3068V65.9419C115.734 65.74 115.57 65.5762 115.366 65.5762Z" fill="#002856"/>
<path d="M115.366 71.5264C115.164 71.5264 115 71.6902 115 71.8921V73.4403C115 73.6422 115.164 73.806 115.366 73.806C115.568 73.806 115.731 73.6422 115.731 73.4403V71.8921C115.734 71.6902 115.57 71.5264 115.366 71.5264Z" fill="#002856"/>
<path d="M115.366 74.7041C115.164 74.7041 115 74.8679 115 75.0698V76.3734C115 76.5754 115.164 76.7392 115.366 76.7392C115.568 76.7392 115.731 76.5754 115.731 76.3734V75.0698C115.734 74.8679 115.57 74.7041 115.366 74.7041Z" fill="#002856"/>
<path d="M115.366 78.21C115.164 78.21 115 78.3738 115 78.5757V79.0648C115 79.2668 115.164 79.4306 115.366 79.4306C115.568 79.4306 115.731 79.2668 115.731 79.0648V78.5757C115.734 78.3738 115.57 78.21 115.366 78.21Z" fill="#002856"/>
<path d="M115.366 81.0654C115.164 81.0654 115 81.2292 115 81.4312V81.9203C115 82.1222 115.164 82.286 115.366 82.286C115.568 82.286 115.731 82.1222 115.731 81.9203V81.4312C115.734 81.2292 115.57 81.0654 115.366 81.0654Z" fill="#002856"/>
<path d="M117.483 74.46C117.281 74.46 117.117 74.6237 117.117 74.8257V77.1906C117.117 77.3925 117.281 77.5563 117.483 77.5563C117.685 77.5563 117.849 77.3925 117.849 77.1906V74.8257C117.849 74.6237 117.685 74.46 117.483 74.46Z" fill="#002856"/>
<path d="M117.483 80.248C117.281 80.248 117.117 80.4118 117.117 80.6138V82.245C117.117 82.4469 117.281 82.6107 117.483 82.6107C117.685 82.6107 117.849 82.4469 117.849 82.245V80.6138C117.849 80.4141 117.685 80.248 117.483 80.248Z" fill="#002856"/>
<path d="M117.483 84.9746C117.281 84.9746 117.117 85.1384 117.117 85.3403V85.8295C117.117 86.0314 117.281 86.1952 117.483 86.1952C117.685 86.1952 117.849 86.0314 117.849 85.8295V85.3403C117.849 85.1406 117.685 84.9746 117.483 84.9746Z" fill="#002856"/>
<path d="M119.284 67.8564C119.082 67.8564 118.918 68.0202 118.918 68.2222V70.5871C118.918 70.789 119.082 70.9528 119.284 70.9528C119.486 70.9528 119.649 70.789 119.649 70.5871V68.2222C119.652 68.0225 119.488 67.8564 119.284 67.8564Z" fill="#002856"/>
<path d="M119.284 73.4014C119.082 73.4014 118.918 73.5652 118.918 73.7671V75.3983C118.918 75.6002 119.082 75.764 119.284 75.764C119.486 75.764 119.649 75.6002 119.649 75.3983V73.7671C119.652 73.5652 119.488 73.4014 119.284 73.4014Z" fill="#002856"/>
<path d="M119.284 80.248C119.082 80.248 118.918 80.4118 118.918 80.6138V81.1029C118.918 81.3048 119.082 81.4686 119.284 81.4686C119.486 81.4686 119.649 81.3048 119.649 81.1029V80.6138C119.652 80.4141 119.488 80.248 119.284 80.248Z" fill="#002856"/>
<path d="M117.483 87.0137C117.281 87.0137 117.117 87.1775 117.117 87.3794V87.8685C117.117 88.0705 117.281 88.2343 117.483 88.2343C117.685 88.2343 117.849 88.0705 117.849 87.8685V87.3794C117.849 87.1775 117.685 87.0137 117.483 87.0137Z" fill="#002856"/>
<path d="M123.112 82.2861C122.91 82.2861 122.746 82.4499 122.746 82.6519V83.141C122.746 83.3429 122.91 83.5067 123.112 83.5067C123.314 83.5067 123.478 83.3429 123.478 83.141V82.6519C123.478 82.4499 123.314 82.2861 123.112 82.2861Z" fill="#002856"/>
<path d="M121.233 83.1797C121.031 83.1797 120.867 83.3435 120.867 83.5454V84.0346C120.867 84.2365 121.031 84.4003 121.233 84.4003C121.435 84.4003 121.599 84.2365 121.599 84.0346V83.5454C121.601 83.3435 121.435 83.1797 121.233 83.1797Z" fill="#002856"/>
<path d="M121.233 76.7412C121.031 76.7412 120.867 76.905 120.867 77.1069V78.7381C120.867 78.9401 121.031 79.1039 121.233 79.1039C121.435 79.1039 121.599 78.9401 121.599 78.7381V77.1069C121.601 76.905 121.435 76.7412 121.233 76.7412Z" fill="#002856"/>
<path d="M121.442 73.4409V71.2398C121.442 71.0378 121.279 70.874 121.077 70.874C120.875 70.874 120.711 71.0378 120.711 71.2398V73.4409C120.711 73.6428 120.875 73.8066 121.077 73.8066C121.279 73.8066 121.442 73.6428 121.442 73.4409Z" fill="#002856"/>
<path d="M122.948 72.7509C123.15 72.7509 123.313 72.5871 123.313 72.3852V70.1841C123.313 69.9822 123.15 69.8184 122.948 69.8184C122.746 69.8184 122.582 69.9822 122.582 70.1841V72.3852C122.582 72.5871 122.746 72.7509 122.948 72.7509Z" fill="#002856"/>
<path d="M123.313 77.3549V75.9683C123.313 75.7663 123.15 75.6025 122.948 75.6025C122.746 75.6025 122.582 75.7663 122.582 75.9683V77.3549C122.582 77.5568 122.746 77.7206 122.948 77.7206C123.147 77.7206 123.313 77.5568 123.313 77.3549Z" fill="#002856"/>
<path d="M124.655 76.7412C124.453 76.7412 124.289 76.905 124.289 77.1069V78.9827C124.289 79.1846 124.453 79.3484 124.655 79.3484C124.857 79.3484 125.021 79.1846 125.021 78.9827V77.1069C125.021 76.905 124.857 76.7412 124.655 76.7412Z" fill="#002856"/>
<path d="M124.655 82.6133C124.453 82.6133 124.289 82.7771 124.289 82.979V84.3656C124.289 84.5676 124.453 84.7314 124.655 84.7314C124.857 84.7314 125.021 84.5676 125.021 84.3656V82.979C125.021 82.7771 124.857 82.6133 124.655 82.6133Z" fill="#002856"/>
<path d="M126.538 74.3809C126.336 74.3809 126.172 74.5447 126.172 74.7466V76.9477C126.172 77.1496 126.336 77.3134 126.538 77.3134C126.74 77.3134 126.903 77.1496 126.903 76.9477V74.7466C126.903 74.5447 126.74 74.3809 126.538 74.3809Z" fill="#002856"/>
<path d="M126.538 80.7344C126.336 80.7344 126.172 80.8982 126.172 81.1001V82.5675C126.172 82.7694 126.336 82.9332 126.538 82.9332C126.74 82.9332 126.903 82.7694 126.903 82.5675V81.1001C126.903 80.9004 126.74 80.7344 126.538 80.7344Z" fill="#002856"/>
<path d="M126.538 87.5049C126.336 87.5049 126.172 87.6687 126.172 87.8706V88.3597C126.172 88.5617 126.336 88.7255 126.538 88.7255C126.74 88.7255 126.903 88.5617 126.903 88.3597V87.8706C126.903 87.6687 126.74 87.5049 126.538 87.5049Z" fill="#002856"/>
<path d="M124.655 89.0527C124.453 89.0527 124.289 89.2165 124.289 89.4185V89.9076C124.289 90.1095 124.453 90.2733 124.655 90.2733C124.857 90.2733 125.021 90.1095 125.021 89.9076V89.4185C125.021 89.2165 124.857 89.0527 124.655 89.0527Z" fill="#002856"/>
<path d="M128.084 61.6611C127.883 61.6611 127.719 61.8249 127.719 62.0269V73.6831C127.719 73.885 127.883 74.0488 128.084 74.0488C128.286 74.0488 128.45 73.885 128.45 73.6831V62.0269C128.45 61.8272 128.286 61.6611 128.084 61.6611Z" fill="#002856"/>
<path d="M128.084 75.2764C127.883 75.2764 127.719 75.4402 127.719 75.6421V77.8432C127.719 78.0451 127.883 78.2089 128.084 78.2089C128.286 78.2089 128.45 78.0451 128.45 77.8432V75.6421C128.45 75.4402 128.286 75.2764 128.084 75.2764Z" fill="#002856"/>
<path d="M128.084 81.8789C127.883 81.8789 127.719 82.0427 127.719 82.2446V83.712C127.719 83.914 127.883 84.0778 128.084 84.0778C128.286 84.0778 128.45 83.914 128.45 83.712V82.2446C128.45 82.0427 128.286 81.8789 128.084 81.8789Z" fill="#002856"/>
<path d="M128.084 88.4824C127.883 88.4824 127.719 88.6462 127.719 88.8482V89.3373C127.719 89.5392 127.883 89.703 128.084 89.703C128.286 89.703 128.45 89.5392 128.45 89.3373V88.8482C128.45 88.6462 128.286 88.4824 128.084 88.4824Z" fill="#002856"/>
<path d="M129.635 61.6611C129.433 61.6611 129.27 61.7374 129.27 61.8294V69.4828C129.27 69.5748 129.433 69.6511 129.635 69.6511C129.837 69.6511 130.001 69.5748 130.001 69.4828V61.8294C130.001 61.7374 129.837 61.6611 129.635 61.6611Z" fill="#002856"/>
<path d="M129.713 71.6914C129.511 71.6914 129.348 71.8552 129.348 72.0571V74.2582C129.348 74.4602 129.511 74.624 129.713 74.624C129.915 74.624 130.079 74.4602 130.079 74.2582V72.0571C130.081 71.8552 129.918 71.6914 129.713 71.6914Z" fill="#002856"/>
<path d="M131.346 85.2197C131.144 85.2197 130.98 85.3835 130.98 85.5855V86.0746C130.98 86.2765 131.144 86.4403 131.346 86.4403C131.548 86.4403 131.712 86.2765 131.712 86.0746V85.5855C131.712 85.3858 131.548 85.2197 131.346 85.2197Z" fill="#002856"/>
<path d="M131.346 71.6901C131.548 71.6901 131.712 71.5263 131.712 71.3243V62.0308C131.712 61.8288 131.548 61.665 131.346 61.665C131.144 61.665 130.98 61.8288 130.98 62.0308V71.3243C130.978 71.5263 131.144 71.6901 131.346 71.6901Z" fill="#002856"/>
<path d="M131.712 80.2056C131.712 80.0036 131.548 79.8398 131.346 79.8398C131.144 79.8398 130.98 80.0036 130.98 80.2056V81.7537C130.98 81.9557 131.144 82.1195 131.346 82.1195C131.548 82.1195 131.712 81.9557 131.712 81.7537V80.2056Z" fill="#002856"/>
<path d="M133.057 61.6611C132.855 61.6611 132.691 61.8249 132.691 62.0269V73.6831C132.691 73.885 132.855 74.0488 133.057 74.0488C133.259 74.0488 133.423 73.885 133.423 73.6831V62.0269C133.423 61.8272 133.259 61.6611 133.057 61.6611Z" fill="#002856"/>
<path d="M133.057 75.2764C132.855 75.2764 132.691 75.4402 132.691 75.6421V77.8432C132.691 78.0451 132.855 78.2089 133.057 78.2089C133.259 78.2089 133.423 78.0451 133.423 77.8432V75.6421C133.423 75.4402 133.259 75.2764 133.057 75.2764Z" fill="#002856"/>
<path d="M133.057 81.8789C132.855 81.8789 132.691 82.0427 132.691 82.2446V83.712C132.691 83.914 132.855 84.0778 133.057 84.0778C133.259 84.0778 133.423 83.914 133.423 83.712V82.2446C133.423 82.0427 133.259 81.8789 133.057 81.8789Z" fill="#002856"/>
<path d="M133.057 87.8291C132.855 87.8291 132.691 87.9929 132.691 88.1948V88.684C132.691 88.8859 132.855 89.0497 133.057 89.0497C133.259 89.0497 133.423 88.8859 133.423 88.684V88.1948C133.423 87.9929 133.259 87.8291 133.057 87.8291Z" fill="#002856"/>
<path d="M134.85 61.6611C134.648 61.6611 134.484 61.8249 134.484 62.0269V74.9867C134.484 75.1886 134.648 75.3524 134.85 75.3524C135.052 75.3524 135.216 75.1886 135.216 74.9867V62.0269C135.218 61.8272 135.052 61.6611 134.85 61.6611Z" fill="#002856"/>
<path d="M134.85 83.1797C134.648 83.1797 134.484 83.3435 134.484 83.5454V84.7682C134.484 84.9702 134.648 85.134 134.85 85.134C135.052 85.134 135.216 84.9702 135.216 84.7682V83.5454C135.218 83.3435 135.052 83.1797 134.85 83.1797Z" fill="#002856"/>
<path d="M134.85 88.0732C134.648 88.0732 134.484 88.237 134.484 88.439V88.8473C134.484 89.0493 134.648 89.2131 134.85 89.2131C135.052 89.2131 135.216 89.0493 135.216 88.8473V88.439C135.218 88.237 135.052 88.0732 134.85 88.0732Z" fill="#002856"/>
<path d="M133.057 91.498C132.855 91.498 132.691 91.6618 132.691 91.8638V92.3529C132.691 92.5548 132.855 92.7186 133.057 92.7186C133.259 92.7186 133.423 92.5548 133.423 92.3529V91.8638C133.423 91.6618 133.259 91.498 133.057 91.498Z" fill="#002856"/>
<path d="M137.661 87.3003C137.661 87.0984 137.497 86.9346 137.295 86.9346C137.093 86.9346 136.93 87.0984 136.93 87.3003V87.7894C136.93 87.9914 137.093 88.1552 137.295 88.1552C137.497 88.1552 137.661 87.9914 137.661 87.7894V87.3003Z" fill="#002856"/>
<path d="M136.767 78.7399V62.0308C136.767 61.8288 136.603 61.665 136.401 61.665C136.199 61.665 136.035 61.8288 136.035 62.0308V78.7399C136.035 78.9418 136.199 79.1056 136.401 79.1056C136.603 79.1056 136.767 78.9441 136.767 78.7399Z" fill="#002856"/>
<path d="M136.931 80.8608C136.931 80.6589 136.767 80.4951 136.565 80.4951C136.363 80.4951 136.199 80.6589 136.199 80.8608V82.409C136.199 82.611 136.363 82.7748 136.565 82.7748C136.767 82.7748 136.931 82.611 136.931 82.409V80.8608Z" fill="#002856"/>
<path d="M138.026 61.6611C137.824 61.6611 137.66 61.8249 137.66 62.0269V73.6831C137.66 73.885 137.824 74.0488 138.026 74.0488C138.228 74.0488 138.392 73.885 138.392 73.6831V62.0269C138.392 61.8272 138.228 61.6611 138.026 61.6611Z" fill="#002856"/>
<path d="M138.026 75.2764C137.824 75.2764 137.66 75.4402 137.66 75.6421V77.8432C137.66 78.0451 137.824 78.2089 138.026 78.2089C138.228 78.2089 138.392 78.0451 138.392 77.8432V75.6421C138.392 75.4402 138.228 75.2764 138.026 75.2764Z" fill="#002856"/>
<path d="M138.026 81.8789C137.824 81.8789 137.66 82.0427 137.66 82.2446V83.712C137.66 83.914 137.824 84.0778 138.026 84.0778C138.228 84.0778 138.392 83.914 138.392 83.712V82.2446C138.392 82.0427 138.228 81.8789 138.026 81.8789Z" fill="#002856"/>
<path d="M138.026 88.4824C137.824 88.4824 137.66 88.6462 137.66 88.8482V89.3373C137.66 89.5392 137.824 89.703 138.026 89.703C138.228 89.703 138.392 89.5392 138.392 89.3373V88.8482C138.392 88.6462 138.228 88.4824 138.026 88.4824Z" fill="#002856"/>
<path d="M139.819 61.6611C139.617 61.6611 139.453 61.8249 139.453 62.0269V78.736C139.453 78.9379 139.617 79.1017 139.819 79.1017C140.021 79.1017 140.185 78.9379 140.185 78.736V62.0269C140.187 61.8272 140.021 61.6611 139.819 61.6611Z" fill="#002856"/>
<path d="M139.819 80.8184C139.617 80.8184 139.453 80.9822 139.453 81.1841V83.3852C139.453 83.5871 139.617 83.7509 139.819 83.7509C140.021 83.7509 140.185 83.5871 140.185 83.3852V81.1841C140.187 80.9822 140.021 80.8184 139.819 80.8184Z" fill="#002856"/>
<path d="M139.819 87.0137C139.617 87.0137 139.453 87.1775 139.453 87.3794V88.8468C139.453 89.0488 139.617 89.2125 139.819 89.2125C140.021 89.2125 140.185 89.0488 140.185 88.8468V87.3794C140.187 87.1775 140.021 87.0137 139.819 87.0137Z" fill="#002856"/>
<path d="M139.819 93.7793C139.617 93.7793 139.453 93.9431 139.453 94.145V94.6342C139.453 94.8361 139.617 94.9999 139.819 94.9999C140.021 94.9999 140.185 94.8361 140.185 94.6342V94.145C140.187 93.9431 140.021 93.7793 139.819 93.7793Z" fill="#002856"/>
<path d="M142.268 86.9316C142.066 86.9316 141.902 87.0954 141.902 87.2974V87.7865C141.902 87.9884 142.066 88.1522 142.268 88.1522C142.47 88.1522 142.634 87.9884 142.634 87.7865V87.2974C142.636 87.0977 142.47 86.9316 142.268 86.9316Z" fill="#002856"/>
<path d="M141.534 79.1095C141.736 79.1095 141.899 78.9457 141.899 78.7438V62.0347C141.899 61.8327 141.736 61.6689 141.534 61.6689C141.332 61.6689 141.168 61.8327 141.168 62.0347V78.7438C141.168 78.9457 141.332 79.1095 141.534 79.1095Z" fill="#002856"/>
<path d="M141.903 80.8589C141.903 80.657 141.74 80.4932 141.538 80.4932C141.336 80.4932 141.172 80.657 141.172 80.8589V82.4071C141.172 82.609 141.336 82.7728 141.538 82.7728C141.74 82.7728 141.903 82.609 141.903 82.4071V80.8589Z" fill="#002856"/>
<path d="M143.245 61.6611C143.043 61.6611 142.879 61.8249 142.879 62.0269V73.6831C142.879 73.885 143.043 74.0488 143.245 74.0488C143.447 74.0488 143.61 73.885 143.61 73.6831V62.0269C143.61 61.8272 143.447 61.6611 143.245 61.6611Z" fill="#002856"/>
<path d="M143.245 75.2764C143.043 75.2764 142.879 75.4402 142.879 75.6421V77.8432C142.879 78.0451 143.043 78.2089 143.245 78.2089C143.447 78.2089 143.61 78.0451 143.61 77.8432V75.6421C143.61 75.4402 143.447 75.2764 143.245 75.2764Z" fill="#002856"/>
<path d="M143.245 81.8789C143.043 81.8789 142.879 82.0427 142.879 82.2446V83.712C142.879 83.914 143.043 84.0778 143.245 84.0778C143.447 84.0778 143.61 83.914 143.61 83.712V82.2446C143.61 82.0427 143.447 81.8789 143.245 81.8789Z" fill="#002856"/>
<path d="M143.245 88.4824C143.043 88.4824 142.879 88.6462 142.879 88.8482V89.3373C142.879 89.5392 143.043 89.703 143.245 89.703C143.447 89.703 143.61 89.5392 143.61 89.3373V88.8482C143.61 88.6462 143.447 88.4824 143.245 88.4824Z" fill="#002856"/>
<path d="M145.042 61.6611C144.84 61.6611 144.676 61.8249 144.676 62.0269V78.736C144.676 78.9379 144.84 79.1017 145.042 79.1017C145.243 79.1017 145.407 78.9379 145.407 78.736V62.0269C145.409 61.8272 145.243 61.6611 145.042 61.6611Z" fill="#002856"/>
<path d="M145.042 80.8184C144.84 80.8184 144.676 80.9822 144.676 81.1841V83.3852C144.676 83.5871 144.84 83.7509 145.042 83.7509C145.243 83.7509 145.407 83.5871 145.407 83.3852V81.1841C145.409 80.9822 145.243 80.8184 145.042 80.8184Z" fill="#002856"/>
<path d="M145.042 87.0137C144.84 87.0137 144.676 87.1775 144.676 87.3794V88.8468C144.676 89.0488 144.84 89.2125 145.042 89.2125C145.243 89.2125 145.407 89.0488 145.407 88.8468V87.3794C145.409 87.1775 145.243 87.0137 145.042 87.0137Z" fill="#002856"/>
<path d="M145.042 93.7793C144.84 93.7793 144.676 93.9431 144.676 94.145V94.6342C144.676 94.8361 144.84 94.9999 145.042 94.9999C145.243 94.9999 145.407 94.8361 145.407 94.6342V94.145C145.409 93.9431 145.243 93.7793 145.042 93.7793Z" fill="#002856"/>
<path d="M148.213 85.7939C148.011 85.7939 147.848 85.9577 147.848 86.1597V86.6488C147.848 86.8507 148.011 87.0145 148.213 87.0145C148.415 87.0145 148.579 86.8507 148.579 86.6488V86.1597C148.581 85.9577 148.415 85.7939 148.213 85.7939Z" fill="#002856"/>
<path d="M146.752 79.1095C146.954 79.1095 147.118 78.9457 147.118 78.7438V62.0347C147.118 61.8327 146.954 61.6689 146.752 61.6689C146.551 61.6689 146.387 61.8327 146.387 62.0347V78.7438C146.387 78.9457 146.551 79.1095 146.752 79.1095Z" fill="#002856"/>
<path d="M147.118 80.8589C147.118 80.657 146.954 80.4932 146.752 80.4932C146.551 80.4932 146.387 80.657 146.387 80.8589V82.4071C146.387 82.609 146.551 82.7728 146.752 82.7728C146.954 82.7728 147.118 82.609 147.118 82.4071V80.8589Z" fill="#002856"/>
<path d="M150.006 85.7939C149.804 85.7939 149.641 85.9577 149.641 86.1597V86.6488C149.641 86.8507 149.804 87.0145 150.006 87.0145C150.208 87.0145 150.372 86.8507 150.372 86.6488V86.1597C150.374 85.9577 150.211 85.7939 150.006 85.7939Z" fill="#002856"/>
<path d="M150.048 80.7788C150.048 80.5769 149.884 80.4131 149.682 80.4131C149.48 80.4131 149.316 80.5769 149.316 80.7788V82.327C149.316 82.5289 149.48 82.6927 149.682 82.6927C149.884 82.6927 150.048 82.5289 150.048 82.327V80.7788Z" fill="#002856"/>
<path d="M151.393 75.1943C151.191 75.1943 151.027 75.3581 151.027 75.5601V77.7612C151.027 77.9631 151.191 78.1269 151.393 78.1269C151.595 78.1269 151.759 77.9631 151.759 77.7612V75.5601C151.759 75.3581 151.595 75.1943 151.393 75.1943Z" fill="#002856"/>
<path d="M151.393 81.7969C151.191 81.7969 151.027 81.9607 151.027 82.1626V83.63C151.027 83.832 151.191 83.9957 151.393 83.9957C151.595 83.9957 151.759 83.832 151.759 83.63V82.1626C151.759 81.9607 151.595 81.7969 151.393 81.7969Z" fill="#002856"/>
<path d="M151.639 87.4189C151.437 87.4189 151.273 87.5827 151.273 87.7847V88.2738C151.273 88.4757 151.437 88.6395 151.639 88.6395C151.841 88.6395 152.005 88.4757 152.005 88.2738V87.7847C152.005 87.585 151.841 87.4189 151.639 87.4189Z" fill="#002856"/>
<path d="M153.186 80.7344C152.984 80.7344 152.82 80.8982 152.82 81.1001V83.3012C152.82 83.5031 152.984 83.6669 153.186 83.6669C153.388 83.6669 153.552 83.5031 153.552 83.3012V81.1001C153.554 80.9004 153.388 80.7344 153.186 80.7344Z" fill="#002856"/>
<path d="M153.186 86.9316C152.984 86.9316 152.82 87.0954 152.82 87.2974V88.7648C152.82 88.9667 152.984 89.1305 153.186 89.1305C153.388 89.1305 153.552 88.9667 153.552 88.7648V87.2974C153.554 87.0977 153.388 86.9316 153.186 86.9316Z" fill="#002856"/>
<path d="M153.186 91.498C152.984 91.498 152.82 91.6618 152.82 91.8638V92.3529C152.82 92.5548 152.984 92.7186 153.186 92.7186C153.388 92.7186 153.552 92.5548 153.552 92.3529V91.8638C153.554 91.6618 153.388 91.498 153.186 91.498Z" fill="#002856"/>
<path d="M155.271 86.1597C155.271 85.9577 155.107 85.7939 154.905 85.7939C154.703 85.7939 154.539 85.9577 154.539 86.1597V86.6488C154.539 86.8507 154.703 87.0145 154.905 87.0145C155.107 87.0145 155.271 86.8507 155.271 86.6488V86.1597Z" fill="#002856"/>
<path d="M155.271 80.7788C155.271 80.5769 155.107 80.4131 154.905 80.4131C154.703 80.4131 154.539 80.5769 154.539 80.7788V82.327C154.539 82.5289 154.703 82.6927 154.905 82.6927C155.107 82.6927 155.271 82.5289 155.271 82.327V80.7788Z" fill="#002856"/>
<path d="M156.37 75.1943C156.168 75.1943 156.004 75.3581 156.004 75.5601V77.7612C156.004 77.9631 156.168 78.1269 156.37 78.1269C156.572 78.1269 156.735 77.9631 156.735 77.7612V75.5601C156.735 75.3581 156.572 75.1943 156.37 75.1943Z" fill="#002856"/>
<path d="M156.37 81.7969C156.168 81.7969 156.004 81.9607 156.004 82.1626V83.63C156.004 83.832 156.168 83.9957 156.37 83.9957C156.572 83.9957 156.735 83.832 156.735 83.63V82.1626C156.735 81.9607 156.572 81.7969 156.37 81.7969Z" fill="#002856"/>
<path d="M156.37 88.3984C156.168 88.3984 156.004 88.5622 156.004 88.7642V89.2533C156.004 89.4552 156.168 89.619 156.37 89.619C156.572 89.619 156.735 89.4552 156.735 89.2533V88.7642C156.735 88.5622 156.572 88.3984 156.37 88.3984Z" fill="#002856"/>
<path d="M158.163 80.7344C157.961 80.7344 157.797 80.8982 157.797 81.1001V83.3012C157.797 83.5031 157.961 83.6669 158.163 83.6669C158.365 83.6669 158.528 83.5031 158.528 83.3012V81.1001C158.531 80.9004 158.365 80.7344 158.163 80.7344Z" fill="#002856"/>
<path d="M158.163 86.9316C157.961 86.9316 157.797 87.0954 157.797 87.2974V88.7648C157.797 88.9667 157.961 89.1305 158.163 89.1305C158.365 89.1305 158.528 88.9667 158.528 88.7648V87.2974C158.531 87.0977 158.365 86.9316 158.163 86.9316Z" fill="#002856"/>
<path d="M158.163 91.498C157.961 91.498 157.797 91.6618 157.797 91.8638V92.3529C157.797 92.5548 157.961 92.7186 158.163 92.7186C158.365 92.7186 158.528 92.5548 158.528 92.3529V91.8638C158.531 91.6618 158.365 91.498 158.163 91.498Z" fill="#002856"/>
<path d="M148.213 61.6611C148.011 61.6611 147.848 61.7509 147.848 61.8631V71.0781C147.848 71.1903 148.011 71.28 148.213 71.28C148.415 71.28 148.579 71.1903 148.579 71.0781V61.8631C148.581 61.7531 148.415 61.6611 148.213 61.6611Z" fill="#002856"/>
<path d="M130.973 75.8859C130.973 76.0879 131.136 76.2516 131.338 76.2516C131.54 76.2516 131.704 76.0879 131.704 75.8859V73.521C131.704 73.3191 131.54 73.1553 131.338 73.1553C131.136 73.1553 130.973 73.3191 130.973 73.521V75.8859Z" fill="#002856"/>
<path d="M134.85 76.5801C134.648 76.5801 134.484 76.7439 134.484 76.9458V79.1469C134.484 79.3489 134.648 79.5126 134.85 79.5126C135.052 79.5126 135.216 79.3489 135.216 79.1469V76.9458C135.218 76.7439 135.052 76.5801 134.85 76.5801Z" fill="#002856"/>
<path d="M159.874 68.6745C160.075 68.6745 160.239 68.5107 160.239 68.3088V65.9439C160.239 65.7419 160.075 65.5781 159.874 65.5781C159.672 65.5781 159.508 65.7419 159.508 65.9439V68.3088C159.508 68.5084 159.672 68.6745 159.874 68.6745Z" fill="#002856"/>
<path d="M159.952 71.5264C159.75 71.5264 159.586 71.6902 159.586 71.8921V73.4403C159.586 73.6422 159.75 73.806 159.952 73.806C160.154 73.806 160.317 73.6422 160.317 73.4403V71.8921C160.32 71.6902 160.156 71.5264 159.952 71.5264Z" fill="#002856"/>
<path d="M159.952 74.7041C159.75 74.7041 159.586 74.8679 159.586 75.0698V76.3734C159.586 76.5754 159.75 76.7392 159.952 76.7392C160.154 76.7392 160.317 76.5754 160.317 76.3734V75.0698C160.32 74.8679 160.156 74.7041 159.952 74.7041Z" fill="#002856"/>
<path d="M159.952 78.21C159.75 78.21 159.586 78.3738 159.586 78.5757V79.0648C159.586 79.2668 159.75 79.4306 159.952 79.4306C160.154 79.4306 160.317 79.2668 160.317 79.0648V78.5757C160.32 78.3738 160.156 78.21 159.952 78.21Z" fill="#002856"/>
<path d="M164.627 65.7832C164.426 65.7832 164.262 65.947 164.262 66.1489V68.5138C164.262 68.7158 164.426 68.8796 164.627 68.8796C164.829 68.8796 164.993 68.7158 164.993 68.5138V66.1489C164.993 65.947 164.829 65.7832 164.627 65.7832Z" fill="#002856"/>
<path d="M164.627 71.7334C164.426 71.7334 164.262 71.8972 164.262 72.0991V73.6473C164.262 73.8493 164.426 74.013 164.627 74.013C164.829 74.013 164.993 73.8493 164.993 73.6473V72.0991C164.993 71.8972 164.829 71.7334 164.627 71.7334Z" fill="#002856"/>
<path d="M164.627 74.9102C164.426 74.9102 164.262 75.074 164.262 75.2759V76.5795C164.262 76.7814 164.426 76.9452 164.627 76.9452C164.829 76.9452 164.993 76.7814 164.993 76.5795V75.2759C164.993 75.074 164.829 74.9102 164.627 74.9102Z" fill="#002856"/>
<path d="M164.627 78.417C164.426 78.417 164.262 78.5808 164.262 78.7827V79.2719C164.262 79.4738 164.426 79.6376 164.627 79.6376C164.829 79.6376 164.993 79.4738 164.993 79.2719V78.7827C164.993 78.5808 164.829 78.417 164.627 78.417Z" fill="#002856"/>
<path d="M164.627 81.2686C164.426 81.2686 164.262 81.4323 164.262 81.6343V82.1234C164.262 82.3254 164.426 82.4891 164.627 82.4891C164.829 82.4891 164.993 82.3254 164.993 82.1234V81.6343C164.993 81.4323 164.829 81.2686 164.627 81.2686Z" fill="#002856"/>
<path d="M166.749 74.666C166.547 74.666 166.383 74.8298 166.383 75.0317V77.3966C166.383 77.5986 166.547 77.7624 166.749 77.7624C166.95 77.7624 167.114 77.5986 167.114 77.3966V75.0317C167.117 74.8298 166.953 74.666 166.749 74.666Z" fill="#002856"/>
<path d="M166.749 80.4531C166.547 80.4531 166.383 80.6169 166.383 80.8189V82.4501C166.383 82.652 166.547 82.8158 166.749 82.8158C166.95 82.8158 167.114 82.652 167.114 82.4501V80.8189C167.117 80.6169 166.953 80.4531 166.749 80.4531Z" fill="#002856"/>
<path d="M166.749 85.1816C166.547 85.1816 166.383 85.3454 166.383 85.5474V86.0365C166.383 86.2384 166.547 86.4022 166.749 86.4022C166.95 86.4022 167.114 86.2384 167.114 86.0365V85.5474C167.117 85.3454 166.953 85.1816 166.749 85.1816Z" fill="#002856"/>
<path d="M168.545 68.0635C168.343 68.0635 168.18 68.2273 168.18 68.4292V70.7941C168.18 70.996 168.343 71.1598 168.545 71.1598C168.747 71.1598 168.911 70.996 168.911 70.7941V68.4292C168.911 68.2273 168.747 68.0635 168.545 68.0635Z" fill="#002856"/>
<path d="M168.545 73.6064C168.343 73.6064 168.18 73.7702 168.18 73.9722V75.6034C168.18 75.8053 168.343 75.9691 168.545 75.9691C168.747 75.9691 168.911 75.8053 168.911 75.6034V73.9722C168.911 73.7702 168.747 73.6064 168.545 73.6064Z" fill="#002856"/>
<path d="M168.545 80.4531C168.343 80.4531 168.18 80.6169 168.18 80.8189V81.308C168.18 81.5099 168.343 81.6737 168.545 81.6737C168.747 81.6737 168.911 81.5099 168.911 81.308V80.8189C168.911 80.6169 168.747 80.4531 168.545 80.4531Z" fill="#002856"/>
<path d="M166.749 87.2178C166.547 87.2178 166.383 87.3816 166.383 87.5835V88.0726C166.383 88.2746 166.547 88.4384 166.749 88.4384C166.95 88.4384 167.114 88.2746 167.114 88.0726V87.5835C167.117 87.3816 166.953 87.2178 166.749 87.2178Z" fill="#002856"/>
<path d="M172.37 82.4912C172.168 82.4912 172.004 82.655 172.004 82.8569V83.3461C172.004 83.548 172.168 83.7118 172.37 83.7118C172.572 83.7118 172.735 83.548 172.735 83.3461V82.8569C172.738 82.655 172.572 82.4912 172.37 82.4912Z" fill="#002856"/>
<path d="M170.499 83.3887C170.297 83.3887 170.133 83.5525 170.133 83.7544V84.2435C170.133 84.4455 170.297 84.6093 170.499 84.6093C170.7 84.6093 170.864 84.4455 170.864 84.2435V83.7544C170.864 83.5525 170.7 83.3887 170.499 83.3887Z" fill="#002856"/>
<path d="M170.499 76.9482C170.297 76.9482 170.133 77.112 170.133 77.314V78.9452C170.133 79.1471 170.297 79.3109 170.499 79.3109C170.7 79.3109 170.864 79.1471 170.864 78.9452V77.314C170.864 77.112 170.7 76.9482 170.499 76.9482Z" fill="#002856"/>
<path d="M170.704 73.6459V71.4448C170.704 71.2429 170.54 71.0791 170.338 71.0791C170.136 71.0791 169.973 71.2429 169.973 71.4448V73.6459C169.973 73.8479 170.136 74.0117 170.338 74.0117C170.54 74.0117 170.704 73.8501 170.704 73.6459Z" fill="#002856"/>
<path d="M172.21 72.956C172.411 72.956 172.575 72.7922 172.575 72.5903V70.3892C172.575 70.1872 172.411 70.0234 172.21 70.0234C172.008 70.0234 171.844 70.1872 171.844 70.3892V72.5903C171.842 72.79 172.005 72.956 172.21 72.956Z" fill="#002856"/>
<path d="M172.575 77.56V76.1733C172.575 75.9714 172.411 75.8076 172.209 75.8076C172.008 75.8076 171.844 75.9714 171.844 76.1733V77.56C171.844 77.7619 172.008 77.9257 172.209 77.9257C172.411 77.9257 172.575 77.7642 172.575 77.56Z" fill="#002856"/>
<path d="M173.924 76.9482C173.722 76.9482 173.559 77.112 173.559 77.314V79.1897C173.559 79.3917 173.722 79.5555 173.924 79.5555C174.126 79.5555 174.29 79.3917 174.29 79.1897V77.314C174.292 77.112 174.129 76.9482 173.924 76.9482Z" fill="#002856"/>
<path d="M173.924 82.8164C173.722 82.8164 173.559 82.9802 173.559 83.1821V84.5688C173.559 84.7707 173.722 84.9345 173.924 84.9345C174.126 84.9345 174.29 84.7707 174.29 84.5688V83.1821C174.292 82.9824 174.129 82.8164 173.924 82.8164Z" fill="#002856"/>
<path d="M175.795 74.584C175.593 74.584 175.43 74.7478 175.43 74.9497V77.1508C175.43 77.3528 175.593 77.5166 175.795 77.5166C175.997 77.5166 176.161 77.3528 176.161 77.1508V74.9497C176.163 74.7478 175.997 74.584 175.795 74.584Z" fill="#002856"/>
<path d="M175.795 80.9434C175.593 80.9434 175.43 81.1072 175.43 81.3091V82.7765C175.43 82.9784 175.593 83.1422 175.795 83.1422C175.997 83.1422 176.161 82.9784 176.161 82.7765V81.3091C176.163 81.1072 175.997 80.9434 175.795 80.9434Z" fill="#002856"/>
<path d="M175.795 87.709C175.593 87.709 175.43 87.8728 175.43 88.0747V88.5638C175.43 88.7658 175.593 88.9296 175.795 88.9296C175.997 88.9296 176.161 88.7658 176.161 88.5638V88.0747C176.163 87.8728 175.997 87.709 175.795 87.709Z" fill="#002856"/>
<path d="M173.924 89.2549C173.722 89.2549 173.559 89.4187 173.559 89.6206V90.1098C173.559 90.3117 173.722 90.4755 173.924 90.4755C174.126 90.4755 174.29 90.3117 174.29 90.1098V89.6206C174.292 89.4209 174.129 89.2549 173.924 89.2549Z" fill="#002856"/>
<path d="M201.19 65.7832C200.995 65.7832 200.836 65.9425 200.836 66.1377V68.5251C200.836 68.7203 200.995 68.8796 201.19 68.8796C201.386 68.8796 201.545 68.7203 201.545 68.5251V66.1377C201.545 65.9425 201.386 65.7832 201.19 65.7832Z" fill="#002856"/>
<path d="M201.19 71.7334C200.995 71.7334 200.836 71.8927 200.836 72.0879V73.6608C200.836 73.856 200.995 74.0153 201.19 74.0153C201.386 74.0153 201.545 73.856 201.545 73.6608V72.0879C201.545 71.8927 201.386 71.7334 201.19 71.7334Z" fill="#002856"/>
<path d="M201.19 74.9102C200.995 74.9102 200.836 75.0695 200.836 75.2647V76.593C200.836 76.7882 200.995 76.9475 201.19 76.9475C201.386 76.9475 201.545 76.7882 201.545 76.593V75.2647C201.545 75.0672 201.386 74.9102 201.19 74.9102Z" fill="#002856"/>
<path d="M201.19 78.417C200.995 78.417 200.836 78.5763 200.836 78.7715V79.2831C200.836 79.4783 200.995 79.6376 201.19 79.6376C201.386 79.6376 201.545 79.4783 201.545 79.2831V78.7715C201.545 78.5763 201.386 78.417 201.19 78.417Z" fill="#002856"/>
<path d="M201.19 81.2686C200.995 81.2686 200.836 81.4279 200.836 81.6231V82.1346C200.836 82.3298 200.995 82.4891 201.19 82.4891C201.386 82.4891 201.545 82.3298 201.545 82.1346V81.6231C201.545 81.4279 201.386 81.2686 201.19 81.2686Z" fill="#002856"/>
<path d="M203.241 74.668C203.046 74.668 202.887 74.8273 202.887 75.0225V77.4098C202.887 77.605 203.046 77.7643 203.241 77.7643C203.436 77.7643 203.596 77.605 203.596 77.4098V75.0225C203.598 74.825 203.439 74.668 203.241 74.668Z" fill="#002856"/>
<path d="M203.241 80.4531C203.046 80.4531 202.887 80.6124 202.887 80.8076V82.4613C202.887 82.6565 203.046 82.8158 203.241 82.8158C203.436 82.8158 203.596 82.6565 203.596 82.4613V80.8076C203.598 80.6124 203.439 80.4531 203.241 80.4531Z" fill="#002856"/>
<path d="M203.241 85.1816C203.046 85.1816 202.887 85.3409 202.887 85.5362V86.0477C202.887 86.2429 203.046 86.4022 203.241 86.4022C203.436 86.4022 203.596 86.2429 203.596 86.0477V85.5362C203.598 85.3409 203.439 85.1816 203.241 85.1816Z" fill="#002856"/>
<path d="M212.161 11.4521H200.884V34.2822H175.593V11.4521H164.316L164.262 64.4313C164.262 64.6332 164.426 64.797 164.627 64.797C164.829 64.797 164.993 64.6332 164.993 64.4313V48.2966H166.38V73.2402C166.38 73.4422 166.544 73.6059 166.746 73.6059C166.947 73.6059 167.111 73.4422 167.111 73.2402V48.2943H168.17V66.7984C168.17 67.0004 168.334 67.1642 168.536 67.1642C168.738 67.1642 168.902 67.0004 168.902 66.7984V48.2943H169.961V69.5717C169.961 69.7736 170.125 69.9374 170.327 69.9374C170.528 69.9374 170.692 69.7736 170.692 69.5717V48.2943H171.834V68.838C171.834 69.0399 171.998 69.2037 172.2 69.2037C172.402 69.2037 172.566 69.0399 172.566 68.838V48.2943H173.544V75.5221C173.544 75.724 173.708 75.8878 173.91 75.8878C174.112 75.8878 174.276 75.724 174.276 75.5221V48.2943H175.418V72.8319C175.418 73.0338 175.581 73.1976 175.783 73.1976C175.985 73.1976 176.149 73.0338 176.149 72.8319V45.3618L200.873 45.4022L200.819 64.4448C200.819 64.64 200.978 64.7993 201.173 64.7993C201.369 64.7993 201.528 64.64 201.528 64.4448V48.2854H202.87V73.2537C202.87 73.4489 203.029 73.6082 203.224 73.6082C203.419 73.6082 203.579 73.4489 203.579 73.2537V48.2831H204.604V66.8119C204.604 67.0071 204.763 67.1664 204.959 67.1664C205.154 67.1664 205.313 67.0071 205.313 66.8119V48.2831H206.339V69.5852C206.339 69.7804 206.498 69.9397 206.693 69.9397C206.888 69.9397 207.048 69.7804 207.048 69.5852V48.2831H208.151V68.8515C208.151 69.0467 208.311 69.206 208.506 69.206C208.701 69.206 208.861 69.0467 208.861 68.8515V48.2831H209.807V75.5356C209.807 75.7308 209.967 75.8901 210.162 75.8901C210.357 75.8901 210.516 75.7308 210.516 75.5356V48.2831H211.62V72.8453C211.62 73.0405 211.78 73.1998 211.975 73.1998C212.17 73.1998 212.329 73.0405 212.329 72.8453L212.161 11.4521Z" fill="#002856"/>
<path d="M204.98 68.0635C204.784 68.0635 204.625 68.2228 204.625 68.418V70.8053C204.625 71.0005 204.784 71.1598 204.98 71.1598C205.175 71.1598 205.334 71.0005 205.334 70.8053V68.418C205.334 68.2228 205.175 68.0635 204.98 68.0635Z" fill="#002856"/>
<path d="M204.98 73.6064C204.784 73.6064 204.625 73.7658 204.625 73.961V75.6146C204.625 75.8098 204.784 75.9691 204.98 75.9691C205.175 75.9691 205.334 75.8098 205.334 75.6146V73.961C205.334 73.7658 205.175 73.6064 204.98 73.6064Z" fill="#002856"/>
<path d="M204.98 80.4531C204.784 80.4531 204.625 80.6124 204.625 80.8076V81.3192C204.625 81.5144 204.784 81.6737 204.98 81.6737C205.175 81.6737 205.334 81.5144 205.334 81.3192V80.8076C205.334 80.6124 205.175 80.4531 204.98 80.4531Z" fill="#002856"/>
<path d="M203.241 87.2178C203.046 87.2178 202.887 87.3771 202.887 87.5723V88.0839C202.887 88.2791 203.046 88.4384 203.241 88.4384C203.436 88.4384 203.596 88.2791 203.596 88.0839V87.5723C203.598 87.3771 203.439 87.2178 203.241 87.2178Z" fill="#002856"/>
<path d="M208.687 82.4912C208.491 82.4912 208.332 82.6505 208.332 82.8457V83.3573C208.332 83.5525 208.491 83.7118 208.687 83.7118C208.882 83.7118 209.041 83.5525 209.041 83.3573V82.8457C209.041 82.6505 208.884 82.4912 208.687 82.4912Z" fill="#002856"/>
<path d="M206.866 83.3887C206.671 83.3887 206.512 83.548 206.512 83.7432V84.2548C206.512 84.45 206.671 84.6093 206.866 84.6093C207.061 84.6093 207.221 84.45 207.221 84.2548V83.7432C207.221 83.548 207.064 83.3887 206.866 83.3887Z" fill="#002856"/>
<path d="M206.866 76.9482C206.671 76.9482 206.512 77.1076 206.512 77.3028V78.9564C206.512 79.1516 206.671 79.3109 206.866 79.3109C207.061 79.3109 207.221 79.1516 207.221 78.9564V77.3028C207.221 77.1076 207.064 76.9482 206.866 76.9482Z" fill="#002856"/>
<path d="M207.068 73.6601V71.4365C207.068 71.2413 206.909 71.082 206.714 71.082C206.519 71.082 206.359 71.2413 206.359 71.4365V73.6601C206.359 73.8553 206.519 74.0146 206.714 74.0146C206.909 74.0146 207.068 73.8553 207.068 73.6601Z" fill="#002856"/>
<path d="M208.534 72.956C208.729 72.956 208.889 72.7967 208.889 72.6015V70.378C208.889 70.1827 208.729 70.0234 208.534 70.0234C208.339 70.0234 208.18 70.1827 208.18 70.378V72.6015C208.177 72.7967 208.337 72.956 208.534 72.956Z" fill="#002856"/>
<path d="M208.534 77.9267C208.729 77.9267 208.889 77.7674 208.889 77.5722V76.1631C208.889 75.9679 208.729 75.8086 208.534 75.8086C208.339 75.8086 208.18 75.9679 208.18 76.1631V77.5722C208.177 77.7674 208.337 77.9267 208.534 77.9267Z" fill="#002856"/>
<path d="M210.183 76.9482C209.987 76.9482 209.828 77.1076 209.828 77.3028V79.201C209.828 79.3962 209.987 79.5555 210.183 79.5555C210.378 79.5555 210.537 79.3962 210.537 79.201V77.3028C210.539 77.1076 210.38 76.9482 210.183 76.9482Z" fill="#002856"/>
<path d="M210.183 82.8164C209.987 82.8164 209.828 82.9757 209.828 83.1709V84.58C209.828 84.7752 209.987 84.9345 210.183 84.9345C210.378 84.9345 210.537 84.7752 210.537 84.58V83.1709C210.539 82.9757 210.38 82.8164 210.183 82.8164Z" fill="#002856"/>
<path d="M212.003 74.584C211.808 74.584 211.648 74.7433 211.648 74.9385V77.162C211.648 77.3572 211.808 77.5166 212.003 77.5166C212.198 77.5166 212.357 77.3572 212.357 77.162V74.9385C212.36 74.7433 212.2 74.584 212.003 74.584Z" fill="#002856"/>
<path d="M212.003 80.9434C211.808 80.9434 211.648 81.1027 211.648 81.2979V82.7877C211.648 82.9829 211.808 83.1422 212.003 83.1422C212.198 83.1422 212.357 82.9829 212.357 82.7877V81.2979C212.36 81.1027 212.2 80.9434 212.003 80.9434Z" fill="#002856"/>
<path d="M212.003 87.709C211.808 87.709 211.648 87.8683 211.648 88.0635V88.5751C211.648 88.7703 211.808 88.9296 212.003 88.9296C212.198 88.9296 212.357 88.7703 212.357 88.5751V88.0635C212.36 87.8683 212.2 87.709 212.003 87.709Z" fill="#002856"/>
<path d="M210.183 89.2549C209.987 89.2549 209.828 89.4142 209.828 89.6094V90.121C209.828 90.3162 209.987 90.4755 210.183 90.4755C210.378 90.4755 210.537 90.3162 210.537 90.121V89.6094C210.539 89.4142 210.38 89.2549 210.183 89.2549Z" fill="#002856"/>
<path d="M147.848 75.5246C147.848 75.7265 148.011 75.8903 148.213 75.8903C148.415 75.8903 148.579 75.7265 148.579 75.5246V73.1597C148.579 72.9577 148.415 72.7939 148.213 72.7939C148.011 72.7939 147.848 72.9577 147.848 73.1597V75.5246Z" fill="#002856"/>
<path d="M148.583 80.1724C148.583 79.9704 148.419 79.8066 148.217 79.8066C148.015 79.8066 147.852 79.9704 147.852 80.1724V81.7206C147.852 81.9225 148.015 82.0863 148.217 82.0863C148.419 82.0863 148.583 81.9225 148.583 81.7206V80.1724Z" fill="#002856"/>
<path d="M146.752 84.2471C146.551 84.2471 146.387 84.4109 146.387 84.6128V85.1019C146.387 85.3039 146.551 85.4677 146.752 85.4677C146.954 85.4677 147.118 85.3039 147.118 85.1019V84.6128C147.12 84.4109 146.954 84.2471 146.752 84.2471Z" fill="#002856"/>
<path d="M130.001 79.102V77.7153C130.001 77.5134 129.837 77.3496 129.635 77.3496C129.433 77.3496 129.27 77.5134 129.27 77.7153V79.102C129.27 79.3039 129.433 79.4677 129.635 79.4677C129.837 79.4677 130.001 79.3039 130.001 79.102Z" fill="#002856"/>
<path d="M129.635 81.7119C129.433 81.7119 129.27 81.8757 129.27 82.0776V83.5451C129.27 83.747 129.433 83.9108 129.635 83.9108C129.837 83.9108 130.001 83.747 130.001 83.5451V82.0776C130.001 81.8757 129.837 81.7119 129.635 81.7119Z" fill="#002856"/>
<path d="M129.635 86.3555C129.433 86.3555 129.27 86.5193 129.27 86.7212V87.2103C129.27 87.4123 129.433 87.5761 129.635 87.5761C129.837 87.5761 130.001 87.4123 130.001 87.2103V86.7212C130.001 86.5193 129.837 86.3555 129.635 86.3555Z" fill="#002856"/>
</g>
<defs>
<clipPath id="clip0_110129_5324">
<rect width="328" height="95" fill="white"/>
</clipPath>
</defs>
</svg>
