<svg width="220" height="134" viewBox="0 0 220 134" fill="none" xmlns="http://www.w3.org/2000/svg">
<path d="M61.9757 51.3594H61.2114V52.744H60.6108V49.046H61.9666C62.7856 49.0418 63.2315 49.5145 63.2315 50.2048C63.2315 50.8699 62.8174 51.3594 61.9757 51.3594ZM61.9393 49.6024H61.2114V50.7988H61.9348C62.3807 50.7988 62.6263 50.5394 62.6263 50.1964C62.6309 49.8534 62.3306 49.6024 61.9393 49.6024ZM69.0186 51.2004L70.0878 52.7482H69.3781L68.3362 51.2339H67.8949V52.7482H67.2943V49.046H68.7047C69.4918 49.046 69.9149 49.502 69.9149 50.1379C69.9195 50.6859 69.601 51.0916 69.0186 51.2004ZM68.6911 49.6024H67.904V50.6817H68.6865C69.0869 50.6817 69.3144 50.4516 69.3144 50.142C69.3144 49.8241 69.0368 49.6024 68.6911 49.6024ZM76.5302 52.2169V52.7482H74.1871V49.0544H76.4892V49.5857H74.7922V50.5896H76.4483V51.1209H74.7922V52.2211H76.5302V52.2169ZM83.7733 52.744V49.8157L82.422 51.3719L81.0707 49.8116V52.744H80.4656V49.0502H81.1617L82.422 50.5436L83.6823 49.0502H84.3784V52.744H83.7733ZM88.6005 52.744V49.0502H89.2056V52.744H88.6005ZM95.0428 52.7942C94.0783 52.7942 93.4231 52.1082 93.4231 51.351V49.0544H94.0328V51.2799C94.0328 51.8195 94.4786 52.242 95.0383 52.242C95.6024 52.242 96.0483 51.8195 96.0483 51.2799V49.0544H96.6579V51.351C96.667 52.1082 96.0119 52.7942 95.0428 52.7942ZM104.156 52.744V49.8157L102.805 51.3719L101.453 49.8116V52.744H100.848V49.0502H101.544L102.805 50.5436L104.065 49.0502H104.761V52.744H104.156ZM117.859 52.3843L117.436 52.7901L117.041 52.4177C116.704 52.652 116.285 52.7901 115.835 52.7901C114.725 52.7901 113.815 51.9534 113.815 50.895C113.815 49.8367 114.729 49 115.835 49C116.945 49 117.855 49.8367 117.855 50.895C117.855 51.3175 117.709 51.7024 117.468 52.012L117.859 52.3843ZM115.83 49.5606C115.043 49.5606 114.415 50.1546 114.415 50.8992C114.415 51.6396 115.043 52.2379 115.83 52.2379C116.617 52.2379 117.245 51.6438 117.245 50.8992C117.245 50.1546 116.617 49.5606 115.83 49.5606ZM123.574 52.7942C122.609 52.7942 121.954 52.1082 121.954 51.351V49.0544H122.564V51.2799C122.564 51.8195 123.01 52.242 123.569 52.242C124.133 52.242 124.579 51.8195 124.579 51.2799V49.0544H125.189V51.351C125.194 52.1082 124.543 52.7942 123.574 52.7942ZM131.968 52.744L131.554 51.7944H129.852L129.438 52.744H128.801L130.376 49.0502H131.026L132.6 52.744H131.968ZM130.703 49.7446L130.089 51.2213H131.313L130.703 49.7446ZM136.513 52.744V49.0502H137.123V52.2086H138.729V52.7482H136.513V52.744ZM142.614 52.744V49.0502H143.219V52.744H142.614ZM148.806 49.5815V52.7482H148.201V49.5857H147.132V49.0502H149.876V49.5815H148.806ZM155.485 51.2464V52.744H154.88V51.2506L153.483 49.0502H154.143L155.185 50.6984L156.227 49.0502H156.887L155.485 51.2464Z" fill="white"/>
<path d="M46.0702 79.6099L39 63.521H42.3395L46.8755 74.2177L51.184 63.521H52.8265L46.0702 79.6099ZM71.9215 78.0496V79.2251H61.3844V63.521H71.9215V64.6965H64.5464V70.4402H71.4028V71.6282H64.5464V78.0537H71.9215V78.0496ZM92.9273 70.779C92.1584 71.4274 91.0665 71.7872 89.647 71.8583L94.1557 79.2209H90.6116L86.0391 71.2601C87.8317 71.1513 89.0965 70.8418 89.8336 70.3398C90.5706 69.8336 90.9437 69.0555 90.9437 67.9971C90.9437 66.83 90.5797 65.9599 89.8472 65.391C89.1147 64.8179 88.0137 64.5334 86.535 64.5334H85.2338V79.2251H82.0718V63.521H87.6543C89.7699 63.521 91.3668 63.9101 92.4496 64.684C93.5324 65.4579 94.0739 66.5999 94.0739 68.1143C94.0784 69.2396 93.6962 70.1306 92.9273 70.779ZM119.338 74.636C118.901 75.6358 118.264 76.5143 117.432 77.2715C116.59 78.037 115.648 78.6185 114.602 79.0159C113.556 79.4091 112.45 79.6099 111.276 79.6099C110.089 79.6099 108.97 79.4133 107.923 79.0159C106.877 78.6185 105.939 78.037 105.107 77.2715C104.283 76.5143 103.655 75.6316 103.228 74.6276C102.8 73.6278 102.586 72.5486 102.586 71.3982C102.586 70.231 102.805 69.1475 103.237 68.1436C103.669 67.1396 104.302 66.2653 105.134 65.5123C105.967 64.7593 106.909 64.182 107.964 63.7804C109.015 63.3788 110.121 63.1738 111.276 63.1738C112.2 63.1738 113.101 63.3077 113.979 63.5712C114.852 63.839 115.671 64.2238 116.436 64.7342C117.582 65.4997 118.46 66.4577 119.074 67.6039C119.684 68.7501 119.993 70.0135 119.993 71.3898C119.993 72.5611 119.775 73.6362 119.338 74.636ZM115.116 66.1858C114.124 64.8555 112.846 64.1904 111.281 64.1904C109.725 64.1904 108.451 64.8555 107.45 66.1858C106.454 67.5161 105.953 69.2563 105.953 71.3982C105.953 73.5358 106.454 75.2677 107.45 76.6021C108.446 77.9324 109.725 78.5976 111.281 78.5976C112.837 78.5976 114.111 77.9324 115.112 76.6063C116.108 75.2802 116.608 73.5442 116.608 71.3982C116.604 69.2563 116.108 67.5203 115.116 66.1858ZM136.736 64.9726C136.177 64.5794 135.508 64.3786 134.734 64.3786C133.911 64.3786 133.233 64.6254 132.71 65.1107C132.182 65.6001 131.918 66.2402 131.918 67.0308C131.918 67.6583 132.136 68.1896 132.569 68.6288C133.001 69.0681 133.811 69.5199 135.003 69.9926C136.882 70.7372 138.119 71.4484 138.715 72.1302C139.316 72.8121 139.612 73.6864 139.612 74.749C139.612 76.1587 139.084 77.3217 138.024 78.2378C136.968 79.154 135.626 79.6099 134.006 79.6099C132.833 79.6099 131.823 79.4008 130.972 78.9866C130.121 78.5725 129.384 77.9283 128.756 77.0623L130.016 76.2382C130.389 76.895 130.867 77.4095 131.449 77.7776C132.032 78.1458 132.66 78.3298 133.328 78.3298C134.238 78.3298 134.975 78.0663 135.544 77.5392C136.113 77.0121 136.4 76.3302 136.4 75.5019C136.4 74.18 135.13 73.038 132.591 72.0717L132.555 72.0591C131.186 71.5404 130.217 70.9589 129.643 70.3105C129.07 69.6621 128.783 68.838 128.783 67.8424C128.783 66.4786 129.275 65.3617 130.262 64.4916C131.249 63.6173 132.523 63.1822 134.084 63.1822C135.258 63.1822 136.281 63.4248 137.159 63.9101C138.037 64.3953 138.688 65.0856 139.116 65.9766L137.996 66.671C137.719 65.9306 137.296 65.3659 136.736 64.9726ZM156.432 64.9726C155.872 64.5794 155.203 64.3786 154.43 64.3786C153.606 64.3786 152.928 64.6254 152.405 65.1107C151.878 65.6001 151.614 66.2402 151.614 67.0308C151.614 67.6583 151.832 68.1896 152.264 68.6288C152.696 69.0681 153.506 69.5199 154.698 69.9926C156.577 70.7372 157.815 71.4484 158.411 72.1302C159.011 72.8121 159.307 73.6864 159.307 74.749C159.307 76.1587 158.779 77.3217 157.719 78.2378C156.664 79.154 155.322 79.6099 153.702 79.6099C152.528 79.6099 151.518 79.4008 150.667 78.9866C149.817 78.5725 149.079 77.9283 148.452 77.0623L149.712 76.2382C150.085 76.895 150.563 77.4095 151.145 77.7776C151.727 78.1458 152.355 78.3298 153.024 78.3298C153.934 78.3298 154.671 78.0663 155.24 77.5392C155.808 77.0121 156.095 76.3302 156.095 75.5019C156.095 74.18 154.826 73.038 152.287 72.0717L152.251 72.0591C150.881 71.5404 149.912 70.9589 149.339 70.3105C148.766 69.6621 148.479 68.838 148.479 67.8424C148.479 66.4786 148.97 65.3617 149.958 64.4916C150.945 63.6173 152.219 63.1822 153.779 63.1822C154.953 63.1822 155.977 63.4248 156.855 63.9101C157.733 64.3953 158.384 65.0856 158.811 65.9766L157.692 66.671C157.414 65.9306 156.996 65.3659 156.432 64.9726ZM177.633 79.2209L175.863 75.0418H169.99L168.234 79.2209H166.732L173.725 63.2031L181 79.2209H177.633ZM172.906 68.3234L170.436 74.0545H175.39L172.906 68.3234Z" fill="white"/>
</svg>
