<svg width="40" height="40" viewBox="0 0 40 40" fill="none" xmlns="http://www.w3.org/2000/svg">
<g clip-path="url(#clip0_108771_5841)">
<circle cx="20" cy="20" r="20" fill="#27A6E5"/>
<path fill-rule="evenodd" clip-rule="evenodd" d="M12.0955 19.6068C16.3896 17.778 19.2482 16.5628 20.6837 15.9732C24.7692 14.3008 25.628 14.012 26.1801 14C26.3028 14 26.5727 14.0241 26.7567 14.1684C26.904 14.2888 26.9408 14.4452 26.9653 14.5655C26.9898 14.6858 27.0144 14.9385 26.9898 15.131C26.769 17.417 25.812 22.9636 25.3213 25.5144C25.1127 26.5972 24.7078 26.9582 24.3152 26.9943C23.4564 27.0665 22.8062 26.4408 21.9842 25.9114C20.6837 25.0812 19.9598 24.5639 18.6961 23.7457C17.2361 22.8072 18.1808 22.2899 19.0151 21.4477C19.2359 21.2311 23.0025 17.8622 23.0761 17.5614C23.0884 17.5253 23.0884 17.3809 23.0025 17.3087C22.9166 17.2365 22.7939 17.2606 22.6958 17.2847C22.5608 17.3087 20.4996 18.6563 16.4877 21.3153C15.8988 21.7123 15.3713 21.9049 14.8928 21.8928C14.3652 21.8808 13.3592 21.6041 12.5985 21.3634C11.6784 21.0747 10.9422 20.9183 11.0036 20.4129C11.0404 20.1482 11.4084 19.8835 12.0955 19.6068Z" fill="white"/>
</g>
<defs>
<clipPath id="clip0_108771_5841">
<rect width="40" height="40" fill="white"/>
</clipPath>
</defs>
</svg>
