<svg width="16" height="16" viewBox="0 0 16 16" fill="none" xmlns="http://www.w3.org/2000/svg">
<path fill-rule="evenodd" clip-rule="evenodd" d="M8 15C9.85652 15 11.637 14.2625 12.9497 12.9497C14.2625 11.637 15 9.85652 15 8C15 6.14348 14.2625 4.36301 12.9497 3.05025C11.637 1.7375 9.85652 1 8 1C6.14348 1 4.36301 1.7375 3.05025 3.05025C1.7375 4.36301 1 6.14348 1 8C1 9.85652 1.7375 11.637 3.05025 12.9497C4.36301 14.2625 6.14348 15 8 15ZM8 16C10.1217 16 12.1566 15.1571 13.6569 13.6569C15.1571 12.1566 16 10.1217 16 8C16 5.87827 15.1571 3.84344 13.6569 2.34315C12.1566 0.842855 10.1217 0 8 0C5.87827 0 3.84344 0.842855 2.34315 2.34315C0.842855 3.84344 0 5.87827 0 8C0 10.1217 0.842855 12.1566 2.34315 13.6569C3.84344 15.1571 5.87827 16 8 16Z" fill="#FF0000"/>
<path d="M7 11.0001C7 10.8688 7.02587 10.7388 7.07612 10.6174C7.12638 10.4961 7.20003 10.3859 7.29289 10.293C7.38575 10.2002 7.49599 10.1265 7.61732 10.0762C7.73864 10.026 7.86868 10.0001 8 10.0001C8.13132 10.0001 8.26136 10.026 8.38268 10.0762C8.50401 10.1265 8.61425 10.2002 8.70711 10.293C8.79997 10.3859 8.87362 10.4961 8.92388 10.6174C8.97413 10.7388 9 10.8688 9 11.0001C9 11.2653 8.89464 11.5197 8.70711 11.7072C8.51957 11.8948 8.26522 12.0001 8 12.0001C7.73478 12.0001 7.48043 11.8948 7.29289 11.7072C7.10536 11.5197 7 11.2653 7 11.0001ZM7.098 4.99512C7.08468 4.86896 7.09804 4.74141 7.1372 4.62075C7.17636 4.50008 7.24045 4.389 7.32532 4.2947C7.41018 4.20041 7.51392 4.12501 7.62981 4.0734C7.7457 4.02179 7.87114 3.99512 7.998 3.99512C8.12486 3.99512 8.2503 4.02179 8.36619 4.0734C8.48208 4.12501 8.58582 4.20041 8.67068 4.2947C8.75555 4.389 8.81964 4.50008 8.8588 4.62075C8.89796 4.74141 8.91132 4.86896 8.898 4.99512L8.548 8.50212C8.53624 8.63989 8.4732 8.76823 8.37136 8.86175C8.26951 8.95528 8.13627 9.00717 7.998 9.00717C7.85973 9.00717 7.72649 8.95528 7.62464 8.86175C7.5228 8.76823 7.45976 8.63989 7.448 8.50212L7.098 4.99512Z" fill="#FF0000"/>
</svg>
