<svg width="8" height="9" viewBox="0 0 8 9" fill="none" xmlns="http://www.w3.org/2000/svg">
<path d="M1.33695 0C1.48538 0.0416533 1.59669 0.145787 1.70801 0.260333C2.11618 0.708107 2.52434 1.15588 2.93251 1.61407C3.09948 1.80151 3.15514 2.0306 3.07165 2.22845C3.0531 2.28052 3.016 2.33259 2.97889 2.38465C2.75625 2.67623 2.53362 2.95739 2.31098 3.24896C2.27388 3.29061 2.27388 3.32185 2.29243 3.37392C2.68204 4.19657 3.1737 4.93592 3.81377 5.52948C4.08279 5.7794 4.37964 5.97725 4.67649 6.18552C4.80636 6.27924 4.9455 6.36255 5.08465 6.44586C5.24235 6.28966 5.40005 6.12304 5.55775 5.96684C5.65979 5.86271 5.77111 5.76899 5.87315 5.66486C6.10506 5.44618 6.3277 5.44617 6.54106 5.68568C6.98633 6.18552 7.42233 6.69577 7.8676 7.20603C8.0253 7.39347 8.04385 7.71628 7.91398 7.91414C7.747 8.17447 7.58003 8.44522 7.32956 8.63266C7.05127 8.83051 6.74514 8.92423 6.42974 8.96588C6.0123 9.02836 5.59486 9.00754 5.18669 8.88258C4.79708 8.75762 4.4353 8.57018 4.08279 8.34108C3.47054 7.93496 2.93251 7.43512 2.44085 6.86239C2.04196 6.4042 1.65235 5.94601 1.27202 5.467C0.873128 4.94633 0.529898 4.35277 0.279433 3.69673C-0.0359677 2.87408 -0.0916266 2.04101 0.149562 1.18712C0.251603 0.833067 0.437133 0.541493 0.706151 0.3124C0.817469 0.21868 0.928787 0.145787 1.0401 0.06248C1.07721 0.03124 1.12359 0.0208267 1.16998 0C1.22563 0 1.28129 0 1.33695 0Z" fill="white"/>
</svg>
