<svg width="24" height="36" viewBox="0 0 24 36" fill="none" xmlns="http://www.w3.org/2000/svg">
<path fill-rule="evenodd" clip-rule="evenodd" d="M2.8139 4.49044C4.5807 2.27814 7.68952 0 11.9753 0C14.0441 0 15.6053 0.565536 15.6211 0.571261L15.6287 0.567766C18.5866 1.56596 21.1185 3.66145 22.6499 6.75159L22.6476 6.75446C22.6745 6.80265 24 9.19236 24 12.6225C24 16.3271 22.6282 18.9798 22.6282 18.9798C21.6719 21.049 19.7147 23.5922 18.9328 24.6083L18.9327 24.6084C18.8022 24.778 18.7044 24.9051 18.6495 24.9803C17.2331 26.8365 15.7917 28.7677 14.6316 30.9411C14.0404 32.0667 13.6657 33.2582 13.1881 34.8192C12.9581 35.5363 12.6605 36 12.0044 36C11.4024 36 11.1223 35.7274 10.8125 34.8142C10.3073 33.1612 10.0191 32.2309 9.32781 30.859C8.51814 29.4002 7.61248 28.0022 6.6174 26.6751L6.61814 26.6706C6.1666 26.0327 5.65717 25.371 5.12871 24.6845C3.69475 22.8217 2.12061 20.7768 1.18238 18.5338C1.18238 18.5338 0 16.1105 0 12.5999C0 9.28176 1.23243 6.38134 2.8139 4.49044ZM8.46605 9.46839L8.46876 9.47078L8.44492 9.50043C8.29038 9.69813 7.4149 10.8919 7.4149 12.5623C7.4149 15.2341 9.46309 17.3529 11.9983 17.3529C13.7386 17.3529 14.8818 16.349 15.3236 15.8762L15.5292 15.6312L15.6139 15.5203C15.8615 15.1748 16.5851 14.0362 16.5851 12.5269C16.5851 9.79289 14.3854 7.75049 12.0091 7.75049C9.76208 7.75049 8.47147 9.46511 8.47147 9.46511V9.46165L8.46605 9.46839Z" fill="#095540"/>
</svg>
