<svg width="26" height="26" viewBox="0 0 26 26" fill="none" xmlns="http://www.w3.org/2000/svg">
<path d="M24.9361 26C24.7804 26 24.6314 26 24.4757 26C24.083 25.8984 23.7986 25.6411 23.521 25.3634C21.3748 23.2029 19.2149 21.0492 17.0619 18.8955C17.001 18.8346 16.94 18.7804 16.8859 18.733C16.8588 18.7398 16.852 18.7398 16.8452 18.7398C16.8114 18.7601 16.7775 18.7872 16.7437 18.8143C14.2656 20.6225 11.5168 21.2659 8.49033 20.7241C4.44828 19.9995 1.09007 16.7351 0.250512 12.7189C0.142182 12.2042 0.0812471 11.6895 0 11.168C0 10.6939 0 10.2198 0 9.74572C0.0135412 9.66444 0.033853 9.58317 0.0473942 9.5019C0.209888 8.72982 0.291136 7.92388 0.541648 7.17889C2.24784 2.09266 7.31901 -0.833114 12.5662 0.209869C19.0457 1.48989 22.7492 8.66887 20.0139 14.6897C19.6686 15.455 19.2014 16.1662 18.7613 16.9586C18.7749 16.9721 18.8561 17.0195 18.9238 17.0872C20.2238 18.3876 21.5237 19.6811 22.8169 20.9815C23.7445 21.9093 24.6788 22.8304 25.5996 23.765C26.2631 24.4355 26.0736 25.5056 25.2408 25.8849C25.1392 25.9255 25.0309 25.9594 24.9361 26ZM2.59314 10.4365C2.57283 14.7575 6.10031 18.2995 10.4403 18.3266C14.7599 18.3537 18.3077 14.8252 18.328 10.4839C18.3483 6.15623 14.8208 2.61415 10.4877 2.59383C6.16124 2.58029 2.60668 6.10882 2.59314 10.4365Z" fill="white"/>
</svg>
