<svg width="40" height="40" viewBox="0 0 40 40" fill="none" xmlns="http://www.w3.org/2000/svg">
<circle cx="20" cy="20" r="20" fill="#25D366"/>
<path fill-rule="evenodd" clip-rule="evenodd" d="M20.0419 29.8329H20.0377C18.3711 29.8323 16.7335 29.4161 15.279 28.6263L10 30.0048L11.4127 24.868C10.5413 23.3647 10.0827 21.6594 10.0835 19.9123C10.0857 14.4467 14.5529 10 20.0418 10C22.7057 10.0011 25.206 11.0335 27.0861 12.9072C28.9662 14.7809 30.0011 17.2714 30 19.9201C29.9978 25.3844 25.5323 29.8307 20.0419 29.8329ZM15.5244 26.8332L15.8266 27.0118C17.0974 27.7625 18.5541 28.1597 20.0393 28.1602H20.0427C24.6046 28.1602 28.3176 24.4641 28.3194 19.921C28.3203 17.7194 27.4602 15.6494 25.8975 14.092C24.3348 12.5346 22.2567 11.6765 20.0459 11.6758C15.4805 11.6758 11.7674 15.3716 11.7656 19.9143C11.765 21.4711 12.2026 22.9873 13.0311 24.2991L13.2279 24.6108L12.3918 27.6512L15.5244 26.8332ZM25.0613 22.2769C24.9991 22.1736 24.8332 22.1116 24.5844 21.9876C24.3356 21.8636 23.1123 21.2644 22.8841 21.1817C22.6561 21.0991 22.4902 21.0578 22.3243 21.3057C22.1585 21.5536 21.6816 22.1116 21.5365 22.2769C21.3913 22.4421 21.2462 22.4629 20.9974 22.3389C20.7486 22.2149 19.9469 21.9534 18.9964 21.1095C18.2567 20.4527 17.7574 19.6416 17.6122 19.3936C17.4671 19.1457 17.5968 19.0117 17.7213 18.8882C17.8333 18.7771 17.9702 18.5988 18.0946 18.4542C18.219 18.3096 18.2604 18.2062 18.3434 18.041C18.4263 17.8756 18.3849 17.7311 18.3226 17.6071C18.2604 17.4831 17.7628 16.2639 17.5555 15.7679C17.3535 15.285 17.1484 15.3504 16.9956 15.3428C16.8507 15.3355 16.6846 15.334 16.5188 15.334C16.3529 15.334 16.0833 15.396 15.8552 15.644C15.6272 15.8919 14.9844 16.4912 14.9844 17.7103C14.9844 18.9294 15.876 20.1072 16.0004 20.2725C16.1248 20.4379 17.7549 22.9397 20.251 24.0125C20.8446 24.2678 21.3081 24.4202 21.6695 24.5343C22.2655 24.7229 22.808 24.6963 23.2366 24.6325C23.7147 24.5614 24.7088 24.0333 24.9162 23.4548C25.1234 22.8761 25.1234 22.3802 25.0613 22.2769Z" fill="white"/>
</svg>
