<svg width="102" height="102" viewBox="0 0 102 102" fill="none" xmlns="http://www.w3.org/2000/svg">
<g opacity="0.8">
<path d="M51 101C78.6142 101 101 78.6142 101 51C101 23.3858 78.6142 1 51 1C23.3858 1 1 23.3858 1 51C1 78.6142 23.3858 101 51 101Z" fill="white" fill-opacity="0.2" stroke="#095540" stroke-miterlimit="10"/>
<path d="M32.0936 39.2069L49.685 27.4138C50.0943 27.1379 50.5505 27 51 27C51.4562 27 51.9124 27.1379 52.3217 27.4138L69.8997 39.2069C70.2486 39.4414 70.5236 39.7448 70.7115 40.0966C70.8993 40.4552 71 40.8552 71 41.2828V66.5172C71 67.2 70.7316 67.8207 70.2888 68.269C69.8527 68.7172 69.2489 69 68.5847 69H33.4153C32.7511 69 32.1473 68.7172 31.7112 68.269C31.2751 67.8207 31 67.2 31 66.5172V41.2828C31 40.8552 31.1007 40.4552 31.2885 40.0966C31.4764 39.7448 31.7514 39.4414 32.1003 39.2069H32.0936ZM50.4834 28.6828L32.892 40.4759C32.7578 40.5655 32.6505 40.6828 32.5767 40.8207C32.5096 40.9517 32.4693 41.1103 32.4693 41.2828V66.5172C32.4693 66.7793 32.5767 67.0207 32.7444 67.2C32.9121 67.3724 33.1469 67.4828 33.4086 67.4828H68.578C68.8329 67.4828 69.0677 67.3724 69.2422 67.2C69.4099 67.0276 69.5173 66.7862 69.5173 66.5172V41.2828C69.5173 41.1103 69.477 40.9517 69.4099 40.8207C69.3361 40.6828 69.2288 40.5655 69.0946 40.4759L51.5166 28.6828C51.3556 28.5793 51.1744 28.5241 51 28.5241C50.8256 28.5241 50.6444 28.5793 50.4834 28.6828Z" fill="#095540"/>
<path d="M50.2858 57.1977L50.7353 57.577C50.9098 57.7288 51.1245 57.7977 51.3325 57.7977C51.5404 57.7977 51.7551 57.7219 51.9296 57.577L52.359 57.2115C54.6535 55.2943 57.4244 52.9632 57.4244 50.246C57.4244 49.3977 57.0956 48.6391 56.5589 48.1012C56.0222 47.5563 55.264 47.2253 54.412 47.2253C53.9222 47.2253 53.4391 47.3357 53.003 47.5288C52.5736 47.7219 52.1912 48.0115 51.8893 48.3632L51.3325 49.0253L50.7756 48.3632C50.4804 48.0115 50.0913 47.7219 49.6619 47.5288C49.2325 47.3288 48.7494 47.2253 48.2597 47.2253C47.4076 47.2253 46.6495 47.5563 46.1127 48.1012C45.576 48.646 45.2472 49.3977 45.2472 50.246C45.2472 52.9494 47.9913 55.2598 50.2724 57.177L50.2925 57.1977H50.2858ZM49.8028 58.7494L49.3398 58.3632C46.8105 56.2391 43.7578 53.6736 43.7578 50.246C43.7578 48.977 44.2543 47.8391 45.0728 47.0184C45.8846 46.1977 47.005 45.7012 48.2597 45.7012C48.9507 45.7012 49.635 45.8529 50.259 46.1426C50.6481 46.315 51.0104 46.5426 51.3325 46.8184C51.6612 46.5426 52.0235 46.315 52.4059 46.1426C53.0232 45.8598 53.7075 45.7081 54.4052 45.7081C55.6531 45.7081 56.7803 46.2046 57.5921 47.0253C58.4039 47.846 58.9004 48.9839 58.9004 50.2529C58.9004 53.6943 55.8142 56.2805 53.2781 58.4115C53.1708 58.5219 52.9896 58.6529 52.8621 58.7563C52.4126 59.1357 51.8692 59.3219 51.3325 59.3219C50.7957 59.3219 50.2523 59.1288 49.8028 58.7494Z" fill="#095540"/>
</g>
</svg>
