<svg width="20" height="20" viewBox="0 0 20 20" fill="none" xmlns="http://www.w3.org/2000/svg">
<circle cx="10" cy="10" r="10" fill="#095540"/>
<path d="M7.33695 5.5C7.48538 5.54165 7.59669 5.64579 7.70801 5.76033C8.11618 6.20811 8.52434 6.65588 8.93251 7.11407C9.09948 7.30151 9.15514 7.5306 9.07165 7.72845C9.0531 7.78052 9.016 7.83259 8.97889 7.88465C8.75625 8.17623 8.53362 8.45739 8.31098 8.74896C8.27388 8.79061 8.27388 8.82185 8.29243 8.87392C8.68204 9.69657 9.1737 10.4359 9.81377 11.0295C10.0828 11.2794 10.3796 11.4773 10.6765 11.6855C10.8064 11.7792 10.9455 11.8625 11.0847 11.9459C11.2424 11.7897 11.4001 11.623 11.5578 11.4668C11.6598 11.3627 11.7711 11.269 11.8732 11.1649C12.1051 10.9462 12.3277 10.9462 12.5411 11.1857C12.9863 11.6855 13.4223 12.1958 13.8676 12.706C14.0253 12.8935 14.0438 13.2163 13.914 13.4141C13.747 13.6745 13.58 13.9452 13.3296 14.1327C13.0513 14.3305 12.7451 14.4242 12.4297 14.4659C12.0123 14.5284 11.5949 14.5075 11.1867 14.3826C10.7971 14.2576 10.4353 14.0702 10.0828 13.8411C9.47054 13.435 8.93251 12.9351 8.44085 12.3624C8.04196 11.9042 7.65235 11.446 7.27202 10.967C6.87313 10.4463 6.5299 9.85277 6.27943 9.19673C5.96403 8.37408 5.90837 7.54101 6.14956 6.68712C6.2516 6.33307 6.43713 6.04149 6.70615 5.8124C6.81747 5.71868 6.92879 5.64579 7.0401 5.56248C7.07721 5.53124 7.12359 5.52083 7.16998 5.5C7.22563 5.5 7.28129 5.5 7.33695 5.5Z" fill="white"/>
</svg>
