<svg width="780" height="236" viewBox="0 0 780 236" fill="none" xmlns="http://www.w3.org/2000/svg">
<g opacity="0.45">
<path d="M224.47 0H161.01L115.104 75.8571L67.1721 0H3.71303L78.6487 115.64L0 236H63.4591L113.416 156.771L164.048 236H227.507L148.859 115.64L224.47 0Z" fill="url(#paint0_linear_107894_872)"/>
<path d="M452.257 0H397.911L341.203 155.76L281.795 0H224.074L318.587 236H360.106L452.257 0Z" fill="url(#paint1_linear_107894_872)"/>
<path d="M482.72 236H536.728V0H482.72V236Z" fill="url(#paint2_linear_107894_872)"/>
<path d="M604.356 236H658.364V0H604.356V236Z" fill="url(#paint3_linear_107894_872)"/>
<path d="M725.992 236H780V0H725.992V236Z" fill="url(#paint4_linear_107894_872)"/>
</g>
<defs>
<linearGradient id="paint0_linear_107894_872" x1="390" y1="0" x2="390" y2="355.048" gradientUnits="userSpaceOnUse">
<stop stop-color="#CADBD7" stop-opacity="0.2"/>
<stop offset="1" stop-color="#13322A" stop-opacity="0.1"/>
</linearGradient>
<linearGradient id="paint1_linear_107894_872" x1="390" y1="0" x2="390" y2="355.048" gradientUnits="userSpaceOnUse">
<stop stop-color="#CADBD7" stop-opacity="0.2"/>
<stop offset="1" stop-color="#13322A" stop-opacity="0.1"/>
</linearGradient>
<linearGradient id="paint2_linear_107894_872" x1="390" y1="0" x2="390" y2="355.048" gradientUnits="userSpaceOnUse">
<stop stop-color="#CADBD7" stop-opacity="0.2"/>
<stop offset="1" stop-color="#13322A" stop-opacity="0.1"/>
</linearGradient>
<linearGradient id="paint3_linear_107894_872" x1="390" y1="0" x2="390" y2="355.048" gradientUnits="userSpaceOnUse">
<stop stop-color="#CADBD7" stop-opacity="0.2"/>
<stop offset="1" stop-color="#13322A" stop-opacity="0.1"/>
</linearGradient>
<linearGradient id="paint4_linear_107894_872" x1="390" y1="0" x2="390" y2="355.048" gradientUnits="userSpaceOnUse">
<stop stop-color="#CADBD7" stop-opacity="0.2"/>
<stop offset="1" stop-color="#13322A" stop-opacity="0.1"/>
</linearGradient>
</defs>
</svg>
